<svg width="36" height="52" viewBox="0 0 36 52" fill="none" xmlns="http://www.w3.org/2000/svg">
<path d="M10.9667 31.9125V20.1979H9.11875L6 21.7646L6.71042 23.3313L8.68958 22.3417V31.9125H10.9667ZM17.5667 32.1104C20.3229 32.1104 21.8229 30.8396 21.8229 28.7771C21.8229 27.1604 20.8979 26.3187 19.7938 25.775C20.5688 25.2312 21.3771 24.3229 21.3771 23.0188C21.3771 21.2688 19.975 20 17.55 20C15.175 20 13.7375 21.2208 13.7375 23.1021C13.7375 24.3563 14.3646 25.1979 15.1563 25.775C14.1833 26.3521 13.3083 27.325 13.3083 28.8271C13.3104 30.8083 14.7792 32.1104 17.5667 32.1104ZM18.1292 25.1313C16.8917 24.7188 15.8187 24.3229 15.8187 23.1521C15.8187 22.1958 16.5292 21.6833 17.5833 21.6833C18.6229 21.6833 19.3167 22.1792 19.3167 23.1354C19.3167 24.0917 18.6563 24.7354 18.1292 25.1313ZM17.55 30.4125C16.4438 30.4125 15.6021 29.8687 15.6021 28.7125C15.6021 27.7229 16.2125 27.0792 16.8563 26.6667C18.1771 27.1625 19.5292 27.4417 19.5292 28.7458C19.5313 29.7688 18.7563 30.4125 17.55 30.4125ZM28.375 30.7583V27.8542H31.2125V26.2042H28.375V23.3H26.6917V26.2042H23.8542V27.8542H26.6917V30.7583H28.375Z" fill="white"/>
<path fill-rule="evenodd" clip-rule="evenodd" d="M18 8C27.9396 8 36 16.0604 36 26C36 35.9396 27.9396 44 18 44C8.06042 44 0 35.9396 0 26C0 16.0604 8.06042 8 18 8ZM18 11C9.71458 11 3 17.7146 3 26C3 34.2854 9.71458 41 18 41C26.2854 41 33 34.2854 33 26C33 17.7146 26.2854 11 18 11Z" fill="white"/>
</svg>
