<svg width="130" height="52" viewBox="0 0 130 52" fill="none" xmlns="http://www.w3.org/2000/svg">
<path d="M51.5772 21.8287C51.6609 22.1467 51.5562 22.3374 51.3049 22.4222L48.8964 23.143C48.6032 23.2278 48.4566 23.143 48.3519 22.8462C47.9749 21.5955 47.1791 20.9383 45.6921 20.9383C43.4303 20.9383 42.6554 22.295 42.6554 24.1182V28.3157C42.6554 30.1389 43.4093 31.4957 45.6921 31.4957C47.5561 31.4957 48.5404 30.6265 48.5404 28.6973V28.1461H46.0901C45.8806 28.1461 45.755 28.0401 45.755 27.7857V25.4538C45.734 25.2842 45.8597 25.1146 46.0482 25.0934C46.0691 25.0934 46.0901 25.0934 46.0901 25.0934H51.5353C51.7656 25.0934 51.8913 25.1994 51.8913 25.4326V28.9093C51.8913 32.2164 49.4828 34.718 45.734 34.718C41.2941 34.718 39.2207 32.0468 39.2207 28.4005V23.9698C39.2207 20.3235 41.2941 17.6523 45.734 17.6523C49.3153 17.6735 50.9279 19.7511 51.5772 21.8287ZM63.787 25.9626V34.1032C63.8079 34.2728 63.6613 34.4212 63.4938 34.4424C63.4729 34.4424 63.4729 34.4424 63.4519 34.4424H61.0016C60.834 34.4636 60.6665 34.3364 60.6455 34.1456C60.6455 34.1244 60.6455 34.1032 60.6455 34.1032V32.7676C59.9335 33.976 58.6559 34.718 57.2527 34.6968C54.9281 34.6968 53.4411 33.1916 53.4411 30.8597C53.4411 28.5913 54.8443 27.2557 58.279 27.0013C59.012 26.9377 59.7659 26.9377 60.5199 26.9801V26.0686C60.5199 24.8602 59.8916 24.3726 58.8235 24.3726C57.7344 24.3726 57.4203 24.8178 57.1271 25.5174C57.0224 25.793 56.9177 25.8354 56.6873 25.7718L54.2369 25.1358C53.9856 25.0722 53.9647 24.9238 54.0066 24.7542C54.3416 22.9734 56.0171 21.6591 58.9491 21.6591C62.0487 21.6803 63.787 23.1854 63.787 25.9626ZM60.5199 30.2449V29.0577C59.8706 29.0365 59.2005 29.0577 58.5512 29.1213C57.2946 29.2697 56.6454 29.6725 56.6454 30.6265C56.6454 31.4957 57.2318 31.9832 58.1742 31.9832C59.2633 31.9832 60.122 31.3897 60.5199 30.2449ZM72.625 21.6803C74.1748 21.6803 75.201 22.613 75.6827 23.9486C76.6042 22.5918 77.7142 21.6803 79.264 21.6803C81.4211 21.6803 82.6568 23.4186 82.6568 26.005V34.1032C82.6568 34.3152 82.4683 34.4424 82.2588 34.4424H79.7038C79.4734 34.4424 79.3059 34.3152 79.3059 34.1032V26.5986C79.3059 25.475 78.8242 24.7966 77.9446 24.7966C77.0231 24.7966 76.3529 25.5598 76.0387 26.7258V34.1032C76.0597 34.2728 75.9131 34.4212 75.7455 34.4424H75.7246H72.9601C72.7507 34.4424 72.6669 34.3152 72.6669 34.1032V26.5986C72.6669 25.475 72.1643 24.7966 71.3056 24.7966C70.3631 24.7966 69.693 25.6022 69.3998 26.7682V34.1244C69.4207 34.294 69.295 34.4424 69.1275 34.4636C69.1066 34.4636 69.0856 34.4636 69.0647 34.4636H66.363C66.1955 34.4848 66.0489 34.3576 66.0279 34.188C66.0279 34.1668 66.0279 34.1456 66.0279 34.1244V22.295C66.0279 22.1254 66.1745 21.9771 66.3421 21.9771H66.363H68.96C69.1275 21.9559 69.2741 22.0831 69.295 22.2739V22.295V23.7154C70.0071 22.6554 71.0752 21.6803 72.625 21.6803ZM96.6677 21.9559C96.7306 22.2526 96.6468 22.4646 96.3745 22.5494L94.0079 23.249C93.7147 23.3338 93.5681 23.2278 93.4634 22.9522C93.1283 21.8287 92.5419 20.9171 90.9084 20.9171C88.8769 20.9171 88.2276 22.2738 88.2276 24.097V28.2945C88.2276 30.1177 88.9607 31.4745 90.9084 31.4745C92.6466 31.4745 93.3168 30.4781 93.5891 29.2485C93.6519 28.9729 93.8404 28.8457 94.1336 28.9517L96.5002 29.7149C96.7724 29.7997 96.8562 30.0117 96.7934 30.3085C96.2279 32.7464 94.4896 34.7392 90.8874 34.7392C86.8245 34.7392 84.793 32.068 84.793 28.4217V23.991C84.793 20.3447 86.8873 17.6735 90.8874 17.6735C94.4059 17.6735 96.0604 19.5603 96.6677 21.9559ZM108.542 25.9626V34.1032C108.563 34.2728 108.417 34.4212 108.249 34.4424C108.228 34.4424 108.228 34.4424 108.207 34.4424H105.757C105.59 34.4636 105.422 34.3364 105.401 34.1456C105.401 34.1244 105.401 34.1032 105.401 34.1032V32.7676C104.689 33.976 103.411 34.718 102.008 34.6968C99.6835 34.6968 98.1966 33.1916 98.1966 30.8597C98.1966 28.5913 99.5998 27.2557 103.034 27.0013C103.767 26.9377 104.521 26.9377 105.275 26.9801V26.0686C105.275 24.8602 104.647 24.3726 103.579 24.3726C102.49 24.3726 102.176 24.8178 101.883 25.5174C101.778 25.793 101.673 25.8354 101.443 25.7718L98.9924 25.1358C98.7411 25.0722 98.7202 24.9238 98.762 24.7542C99.0971 22.9734 100.773 21.6591 103.705 21.6591C106.804 21.6803 108.542 23.1854 108.542 25.9626ZM105.254 30.2449V29.0577C104.605 29.0365 103.935 29.0577 103.286 29.1213C102.029 29.2697 101.38 29.6725 101.38 30.6265C101.38 31.4957 101.966 31.9832 102.909 31.9832C104.019 31.9832 104.856 31.3897 105.254 30.2449ZM118.072 22.189V24.6058C118.072 24.9026 117.967 25.0086 117.674 25.0086H117.318C115.537 25.0086 114.49 25.8142 114.134 27.1709V34.1244C114.155 34.294 114.03 34.4424 113.862 34.4636H113.841H111.035C110.867 34.4636 110.742 34.3152 110.742 34.1456C110.742 34.1456 110.742 34.1456 110.742 34.1244V22.2739C110.742 22.1043 110.867 21.9559 111.014 21.9559C111.035 21.9559 111.056 21.9559 111.056 21.9559H113.59C113.862 21.9559 113.925 22.1254 113.925 22.3162V23.991C114.511 22.8886 115.6 21.8075 117.506 21.8075C117.988 21.8075 118.072 21.8711 118.072 22.189ZM122.449 29.2485V29.7149C122.449 31.0293 123.119 31.9408 124.69 31.9408C126.218 31.9408 126.658 31.3473 127.056 30.6053C127.266 30.2661 127.349 30.2237 127.705 30.3721L129.465 31.2837C129.821 31.4745 129.842 31.6441 129.695 31.9832C128.941 33.7216 127.035 34.718 124.69 34.718C121.129 34.718 119.244 32.5768 119.244 29.6513V26.7682C119.244 23.9274 121.004 21.7015 124.648 21.7015C128.124 21.7015 129.821 23.9274 129.821 26.7046V28.6973C129.821 29.0365 129.716 29.2697 129.234 29.2697L122.449 29.2485ZM122.449 26.5986V27.0225H126.742V26.5986C126.742 25.3902 126.072 24.4362 124.606 24.4362C123.14 24.4362 122.449 25.3902 122.449 26.5986Z" fill="white"/>
<path d="M15.6107 8H0.680733C0.429809 8 0.220703 8.20797 0.220703 8.45754V30.0451C0.220703 37.74 6.49381 44 14.2515 44H15.6107C23.3476 44 29.6207 37.7608 29.6207 30.0451V21.9549C29.6416 14.2392 23.3685 8 15.6107 8ZM25.1458 30.2738C25.1458 35.5147 21.2565 39.487 15.2343 39.487C8.083 39.487 4.73734 35.2652 4.73734 29.4835V22.4749C4.73734 16.6932 8.083 12.4714 15.2343 12.4714C21.0265 12.4714 23.6403 15.7574 24.6858 19.0433C24.8322 19.5425 24.644 19.8336 24.2467 19.9792L20.3574 21.1231C19.8973 21.2686 19.6464 21.1231 19.5 20.6655C18.8936 18.6898 17.5972 17.6291 15.2343 17.6291C11.575 17.6291 10.3413 19.7712 10.3413 22.662V29.3172C10.3413 32.208 11.5541 34.3501 15.2343 34.3501C18.2454 34.3501 19.8346 32.9567 19.8346 29.9203V29.0676H15.8198C15.5062 29.0676 15.2762 28.8804 15.2762 28.5061V24.825C15.2762 24.4714 15.4853 24.2426 15.8198 24.2426H24.5813C24.9367 24.2426 25.1458 24.4298 25.1458 24.7834V30.2738Z" fill="white"/>
</svg>
