<svg width="40" height="30" viewBox="0 0 40 30" fill="none" xmlns="http://www.w3.org/2000/svg">
<path fill-rule="evenodd" clip-rule="evenodd" d="M19.9185 0.114655C19.9584 0.0585747 20.0417 0.0585761 20.0815 0.114659L27.4062 10.4191C27.4347 10.4592 27.4298 10.5142 27.3945 10.5486L21.562 16.2372C21.5218 16.2764 21.5218 16.3411 21.562 16.3804L28.9958 23.6305C29.0145 23.6487 29.0395 23.6589 29.0656 23.6589H33.2511C33.2986 23.6589 33.3396 23.6255 33.3491 23.5789L36.5122 8.11548C36.5322 8.01777 36.4125 7.95422 36.3428 8.0255L25.9607 18.6354C25.9214 18.6756 25.8567 18.6755 25.8175 18.6352L24.5079 17.2886C24.47 17.2497 24.4701 17.1877 24.5081 17.149L39.7625 1.55983C39.8323 1.48855 39.9519 1.5521 39.9319 1.64981L35.0158 25.6829C35.0063 25.7294 34.9654 25.7628 34.9179 25.7628H28.2452C28.2191 25.7628 28.1941 25.7526 28.1754 25.7344L20.0697 17.829C20.0308 17.7911 19.9689 17.7911 19.93 17.829L11.8246 25.7344C11.8059 25.7526 11.7809 25.7628 11.7548 25.7628H5.08213C5.03462 25.7628 4.99367 25.7294 4.98415 25.6829L0.0680536 1.64981C0.0480671 1.5521 0.167748 1.48855 0.237498 1.55983L15.4919 17.149C15.5299 17.1877 15.53 17.2497 15.4921 17.2886L14.1825 18.6352C14.1433 18.6755 14.0786 18.6756 14.0393 18.6354L3.65723 8.0255C3.58748 7.95422 3.4678 8.01777 3.48778 8.11548L6.65092 23.5789C6.66044 23.6255 6.70139 23.6589 6.74889 23.6589H10.9344C10.9604 23.6589 10.9855 23.6487 11.0042 23.6305L18.4376 16.3804C18.4778 16.3412 18.4778 16.2765 18.4376 16.2372L12.6049 10.5486C12.5696 10.5142 12.5646 10.4592 12.5932 10.4191L19.9185 0.114655ZM19.93 14.7886C19.9688 14.8265 20.0308 14.8265 20.0696 14.7886L24.6756 10.2963C24.7109 10.2619 24.7158 10.2069 24.6873 10.1668L20.0815 3.68725C20.0416 3.63117 19.9583 3.63117 19.9184 3.68725L15.3122 10.1668C15.2836 10.2069 15.2886 10.2619 15.3239 10.2963L19.93 14.7886ZM34.9859 29.9C34.9859 29.9552 34.9412 30 34.8859 30L5.10011 30C5.04488 30 5.00011 29.9552 5.00011 29.9L5.00011 27.996C5.00011 27.9408 5.04488 27.8961 5.10011 27.8961L34.8859 27.8961C34.9412 27.8961 34.9859 27.9408 34.9859 27.9961V29.9Z" fill="#DE3768"/>
</svg>
