<svg width="99" height="60" viewBox="0 0 99 60" fill="none" xmlns="http://www.w3.org/2000/svg">
<path d="M85.1408 24.7003C80.2705 25.0232 82.4577 31.7896 87.8427 31.4324C93.1095 31.0832 90.3308 24.3563 85.1408 24.7003Z" fill="#F19021"/>
<path d="M83.084 20.5213C79.9809 20.5213 76.9472 21.5029 74.3662 23.3421C71.7862 25.1813 69.7743 27.7955 68.5875 30.8539C67.3994 33.9124 67.0886 37.2779 67.6941 40.5247C68.2996 43.7716 69.794 46.754 71.9887 49.0949C74.1834 51.4358 76.979 53.0299 80.0231 53.6757C83.0671 54.3216 86.2218 53.9901 89.0896 52.7233C91.9565 51.4564 94.4071 49.311 96.1321 46.5585C97.8562 43.8059 98.7768 40.5698 98.7768 37.2593C98.7768 32.8201 97.1231 28.5627 94.1803 25.4237C91.2375 22.2847 87.2465 20.5213 83.084 20.5213ZM83.084 52.2432C80.3071 52.2437 77.5912 51.3656 75.2812 49.7199C72.9722 48.0742 71.1712 45.7348 70.1081 42.9977C69.045 40.2605 68.7665 37.2484 69.3075 34.3424C69.8493 31.4365 71.1871 28.767 73.1512 26.6718C75.1143 24.5766 77.6175 23.1496 80.3409 22.5714C83.0653 21.9932 85.889 22.2897 88.4559 23.4234C91.0218 24.5571 93.2156 26.4771 94.7587 28.9406C96.3018 31.4041 97.1259 34.3004 97.1259 37.2633C97.1259 41.2357 95.6465 45.0455 93.0131 47.8547C90.3796 50.6639 86.8087 52.2425 83.084 52.2432ZM82.6115 8.83624C78.8859 11.8399 79.5337 16.4461 79.5337 16.4461C79.5337 16.4461 77.1918 9.9631 74.1515 6C73.7409 11.1018 75.24 17.8616 75.24 17.8616C75.24 17.8616 73.3359 13.6705 68.67 13.4359C72.54 15.8082 74.0409 20.0824 74.385 21.229C76.6912 19.7106 79.3284 18.8593 82.0368 18.7591C81.7312 17.6916 80.6465 13.1934 82.6115 8.83624Z" fill="#F19021"/>
<path d="M2.11659 38.9001V42.4032H0.75V33.3779H3.62644C4.60172 33.3779 5.33484 33.6252 5.82581 34.1199C6.31669 34.6145 6.56381 35.292 6.56709 36.1522C6.56709 37.0053 6.31547 37.6766 5.81222 38.166C5.30887 38.6554 4.58194 38.9001 3.63141 38.9001H2.11659ZM5.17219 36.1522C5.17219 35.6408 5.03831 35.2507 4.77056 34.9818C4.50291 34.713 4.07372 34.579 3.48309 34.5798H2.11659V37.7113H3.48309C4.60828 37.7113 5.17134 37.1916 5.17219 36.1522ZM12.2076 42.4032L10.0985 38.7986H9.12731V42.4032H7.76072V33.3779H10.7459C11.7121 33.3779 12.4452 33.6292 12.9452 34.1317C13.4453 34.6343 13.6948 35.2994 13.694 36.1271C13.694 36.83 13.5083 37.4095 13.1367 37.8655C12.7653 38.3215 12.2298 38.611 11.5305 38.734L13.7545 42.4032H12.2076ZM9.12731 37.7627H10.6347C11.7384 37.7627 12.29 37.243 12.2891 36.2036C12.2891 35.7098 12.1552 35.324 11.8876 35.0464C11.6195 34.7696 11.203 34.6312 10.6347 34.6312H9.12731V37.7627ZM19.9745 40.4474H16.4024L15.755 42.4032H14.2932L17.4094 33.5189H18.9798L22.0836 42.4032H20.6207L19.9745 40.4474ZM19.5902 39.3232L18.1878 35.1057L16.7854 39.3232H19.5902ZM28.9868 34.0935C29.6576 34.6219 30.1295 35.3884 30.3175 36.255H28.8793C28.7002 35.7748 28.3831 35.3675 27.9737 35.0912C27.5273 34.7932 27.0086 34.6419 26.4823 34.6563C25.9837 34.6476 25.4924 34.7843 25.0613 35.0517C24.6397 35.3182 24.2987 35.7084 24.079 36.1759C23.8348 36.7104 23.7157 37.3001 23.7319 37.8945C23.7158 38.5094 23.8392 39.1193 24.0914 39.6724C24.3151 40.1488 24.6676 40.5427 25.1033 40.8032C25.5682 41.0726 26.0905 41.2088 26.6195 41.1986C27.2834 41.211 27.9278 40.9591 28.4271 40.4922C28.9296 40.0283 29.2331 39.3913 29.3377 38.5812H26.2302V37.507H30.4843V38.9001C30.3946 39.5493 30.1672 40.1682 29.8196 40.7096C29.4669 41.2561 28.9939 41.7019 28.442 42.0078C27.8362 42.3396 27.163 42.5062 26.4823 42.4928C25.7186 42.5095 24.9649 42.3065 24.3003 41.905C23.6769 41.5218 23.1697 40.9561 22.8385 40.2747C22.4994 39.532 22.3233 38.7167 22.3233 37.8905C22.3233 37.0644 22.4994 36.2491 22.8385 35.5064C23.1682 34.8278 23.6734 34.2643 24.2941 33.8826C24.9577 33.4853 25.7091 33.2846 26.4699 33.3014C27.4774 33.3014 28.3163 33.5655 28.9868 34.0935ZM40.1331 33.5189V42.4032H38.7541V35.7436L36.3459 42.4032H35.1474L32.7257 35.7436V42.4032H31.3604V33.5189H33.0136L35.7702 40.6134L38.4786 33.5189H40.1331ZM46.82 40.4474H43.2541L42.6067 42.4032H41.14L44.2562 33.5189H45.8254L48.9304 42.4032H47.4675L46.82 40.4474ZM46.437 39.3232L45.0346 35.1057L43.6322 39.3232H46.437ZM54.7784 33.3779V34.5535H52.4172V42.4032H51.0383V34.5535H48.6907V33.3779H54.7784ZM56.8752 33.3779V42.4032H55.5098V33.3779H56.8752ZM64.6062 34.1317C65.2996 34.7046 65.7897 35.5119 65.9962 36.421H64.5457C64.3605 35.8943 64.028 35.4411 63.5931 35.1228C63.1187 34.7912 62.5599 34.6237 61.993 34.6431C61.5175 34.635 61.0497 34.7722 60.645 35.0385C60.2403 35.3148 59.9162 35.7065 59.7096 36.1693C59.4848 36.7087 59.3687 37.2924 59.3687 37.8826C59.3687 38.4729 59.4848 39.0566 59.7096 39.596C59.9159 40.0593 60.24 40.4516 60.645 40.7281C61.0497 40.9945 61.5174 41.1317 61.993 41.1235C62.5597 41.1433 63.1185 40.9762 63.5931 40.6451C64.0255 40.3298 64.3579 39.8816 64.5457 39.3601H65.9962C65.7909 40.2676 65.3003 41.0727 64.6062 41.6414C63.9193 42.2003 63.0564 42.4797 62.0177 42.4797C61.2741 42.4947 60.5407 42.2933 59.8962 41.8971C59.2843 41.5136 58.7892 40.9497 58.4704 40.2734C58.1384 39.5285 57.9662 38.714 57.9662 37.8892C57.9662 37.0644 58.1384 36.25 58.4704 35.505C58.7903 34.8278 59.2851 34.2622 59.8962 33.8747C60.5395 33.4751 61.2734 33.2718 62.0177 33.2869C63.0556 33.2878 63.9185 33.5694 64.6062 34.1317ZM72.4425 38.9001V42.4032H71.0766V33.3779H73.9537C74.9269 33.3779 75.66 33.6252 76.1531 34.1199C76.6453 34.6145 76.8928 35.292 76.8937 36.1522C76.8937 37.0053 76.6425 37.6766 76.1391 38.166C75.6356 38.6554 74.9091 38.9001 73.9584 38.9001H72.4425ZM75.5025 36.1522C75.5025 35.6408 75.3694 35.2507 75.1012 34.9818C74.8341 34.713 74.4037 34.579 73.8122 34.5798H72.4425V37.7113H73.8084C74.9381 37.7113 75.5025 37.1916 75.5025 36.1522ZM79.2384 41.2658H82.1625V42.4032H77.8716V33.3779H79.2384V41.2658ZM88.4184 40.4474H84.8475L84.2006 42.4032H82.7372L85.8544 33.5189H87.4237L90.5287 42.4032H89.0662L88.4184 40.4474ZM88.035 39.3232L86.6334 35.1057L85.2309 39.3232H88.035ZM96.0141 33.3779L93.1978 39.1176V42.4032H91.8225V39.1176L88.9941 33.3779H90.5766L92.5191 37.5584L94.4606 33.3779H96.0141Z" fill="#313334"/>
</svg>
