<svg width="111" height="60" viewBox="0 0 111 60" fill="none" xmlns="http://www.w3.org/2000/svg">
<g clip-path="url(#clip0_11820_24273)">
<path d="M20.3841 29.2534C20.9951 28.3131 21.3233 27.2172 21.3298 26.0958V17.8739C21.3298 17.6908 21.3298 17.523 21.3298 17.3705C21.2069 15.9004 20.5339 14.5309 19.4451 13.5355C18.3564 12.5401 16.9322 11.9921 15.457 12.0011H9.99609V29.2534H20.3841ZM16.7536 16.4248C17.1153 16.7631 17.3336 17.227 17.3638 17.7213C17.3638 17.7213 17.3638 17.8281 17.3638 17.8739V26.0958C17.3672 26.3545 17.3176 26.6112 17.2179 26.85C17.1182 27.0887 16.9705 27.3045 16.7841 27.4839C16.6018 27.6655 16.3852 27.8089 16.1469 27.9058C15.9085 28.0027 15.6533 28.0511 15.396 28.0483H13.8706V15.8451H15.396C15.887 15.8343 16.3629 16.0148 16.7231 16.3485L16.7536 16.4248Z" fill="black"/>
<path d="M21.694 33.3559C21.6108 32.4118 21.3021 31.5016 20.794 30.7017H9.99414V47.9387H15.8364C16.6067 47.9496 17.3711 47.8022 18.0822 47.5057C18.7932 47.2092 19.4359 46.7699 19.9703 46.215C20.52 45.6734 20.9556 45.0273 21.2517 44.3148C21.5477 43.6022 21.6981 42.8375 21.694 42.0659V33.3559ZM17.8042 42.1269C17.8042 42.3851 17.7529 42.6408 17.6534 42.879C17.5539 43.1173 17.4081 43.3335 17.2245 43.515C17.0484 43.6964 16.8372 43.84 16.6038 43.937C16.3704 44.034 16.1197 44.0825 15.8669 44.0794H13.9297V31.8762H15.8822C16.1218 31.8728 16.3598 31.9168 16.5824 32.0059C16.8049 32.0949 17.0076 32.2271 17.1788 32.3949C17.5451 32.725 17.7693 33.1843 17.8042 33.6762V42.0506V42.1269Z" fill="black"/>
<path d="M37.4219 15.9213H41.3117V29.2075H45.2625V15.9213H48.7709V12.001H37.4829L37.4219 15.9213Z" fill="black"/>
<path d="M45.2628 47.9845V30.7017H41.373V47.9997L45.2628 47.9845Z" fill="black"/>
<path d="M24.5312 12.001V29.2075H34.5836V28.033H28.3143V15.8297H34.5836V12.001H24.5312Z" fill="black"/>
<path d="M34.6615 44.0341H28.4836V31.8309H34.5852V30.5801H24.5176V47.8629H34.5852L34.6615 44.0341Z" fill="black"/>
<path d="M91.1621 15.9213H95.0671V29.2075H98.9722V15.9213H102.496V12.001H91.1774L91.1621 15.9213Z" fill="#FAE307"/>
<path d="M98.9714 47.9845V30.7017H95.0664V47.9997L98.9714 47.9845Z" fill="#FAE307"/>
<path d="M79.4609 12.001V29.2075H89.6811V28.033H83.3965V15.8297H89.6964V12.001H79.4609Z" fill="#FAE307"/>
<path d="M79.4473 30.7017V47.9997H83.3981V31.9677H89.6827V30.7169L79.4473 30.7017Z" fill="#FAE307"/>
<path d="M69.0277 29.207V17.8733C69.0315 17.3579 69.2359 16.8641 69.5976 16.4968C69.9592 16.1295 70.4496 15.9174 70.965 15.9055C71.4618 15.9027 71.9414 16.088 72.3073 16.4242C72.6693 16.7559 72.8881 17.2154 72.9175 17.7055V29.207H76.792V17.8733C76.8073 17.7008 76.8073 17.5272 76.792 17.3547C76.6736 15.9005 76.014 14.5436 74.9435 13.5522C73.8731 12.5609 72.4697 12.0072 71.0107 12.0005C70.245 11.9902 69.4854 12.1379 68.7793 12.4345C68.0733 12.7311 67.436 13.1701 66.9074 13.7242C66.3577 14.2658 65.922 14.9119 65.626 15.6245C65.33 16.3371 65.1796 17.1017 65.1837 17.8733V29.207H69.0277Z" fill="#FAE307"/>
<path d="M72.9327 30.7017V42.1269C72.9443 42.5118 72.8427 42.8916 72.6406 43.2193C72.4385 43.5471 72.1448 43.8083 71.7956 43.9707C71.4465 44.133 71.0574 44.1894 70.6766 44.1328C70.2957 44.0763 69.9398 43.9092 69.653 43.6523C69.287 43.3156 69.0633 42.8518 69.0276 42.3557V30.7017H65.1836V42.1269C65.1836 42.31 65.1836 42.4778 65.1836 42.6303C65.2666 43.7412 65.668 44.8046 66.3397 45.6933C67.0114 46.582 67.9249 47.2584 68.971 47.6414C70.0171 48.0244 71.1513 48.0979 72.2381 47.853C73.3248 47.6082 74.318 47.0554 75.0987 46.2608C75.6459 45.7213 76.0791 45.0774 76.3725 44.3673C76.666 43.6571 76.8138 42.8953 76.8072 42.1269V30.7017H72.9327Z" fill="#FAE307"/>
<path d="M53.0409 29.2071H59.4171L57.2968 27.4529C56.6756 26.8972 56.1699 26.2245 55.8087 25.4733C55.4475 24.7222 55.2379 23.9072 55.1917 23.075C55.1761 22.7752 55.1761 22.4748 55.1917 22.175V17.8734C55.19 17.6149 55.2405 17.3587 55.3401 17.1202C55.4397 16.8817 55.5864 16.6658 55.7714 16.4853C56.0309 16.2188 56.3622 16.0334 56.7251 15.9516C57.0879 15.8697 57.4667 15.8949 57.8155 16.0241C58.1644 16.1533 58.4682 16.3809 58.6902 16.6794C58.9122 16.9779 59.0428 17.3343 59.0662 17.7056V20.6038H62.956V17.8734C62.9713 17.7008 62.9713 17.5273 62.956 17.3547C62.8515 15.8942 62.1909 14.5293 61.1103 13.5412C60.0035 12.5206 58.5438 11.9693 57.0386 12.0034C55.5334 12.0376 54.1003 12.6545 53.0409 13.7243C52.4995 14.2696 52.0722 14.9175 51.7841 15.6299C51.496 16.3423 51.3528 17.105 51.3629 17.8734V23.3496C51.34 23.7815 51.34 24.2143 51.3629 24.6462C51.4543 26.3123 52.0561 27.91 53.0866 29.2224L53.0409 29.2071Z" fill="#FAE307"/>
<path d="M61.0646 30.7017H54.6732L56.9003 32.5321C58.1488 33.6638 58.8998 35.2427 58.9901 36.9253C58.9901 37.1999 58.9901 37.8405 58.9901 37.8253V42.1269C58.9872 42.3861 58.9332 42.6421 58.8311 42.8803C58.729 43.1185 58.5809 43.3342 58.3952 43.515C58.2173 43.6983 58.0037 43.8429 57.7675 43.94C57.5313 44.0371 57.2776 44.0846 57.0223 44.0794C56.5314 44.0903 56.0555 43.9097 55.6952 43.5761C55.3292 43.2393 55.1055 42.7755 55.0698 42.2795C55.0773 42.2289 55.0773 42.1775 55.0698 42.1269V39.3812H51.1953V42.1269C51.1953 42.31 51.1953 42.4778 51.1953 42.6303C51.2782 43.7393 51.6785 44.8011 52.3482 45.6889C53.018 46.5768 53.9289 47.2532 54.9726 47.6375C56.0162 48.0218 57.1483 48.0978 58.2339 47.8564C59.3195 47.615 60.3128 47.0664 61.0952 46.276C61.6483 45.7363 62.0873 45.0908 62.386 44.3781C62.6847 43.6653 62.8371 42.8998 62.8341 42.1269V36.6507C62.8573 36.2188 62.8573 35.786 62.8341 35.3541C62.7292 33.6803 62.1054 32.0808 61.0494 30.7779L61.0646 30.7017Z" fill="#FAE307"/>
<path d="M-0.5 36.6504V23.1201L6.34904 29.9387L-0.5 36.6504Z" fill="#FAE307"/>
<path d="M110.855 36.7276V23.1973L104.006 29.9701L110.855 36.7276Z" fill="#FAE307"/>
</g>
<defs>
<clipPath id="clip0_11820_24273">
<rect width="111" height="60" fill="white"/>
</clipPath>
</defs>
</svg>
