<svg width="87" height="60" viewBox="0 0 87 60" fill="none" xmlns="http://www.w3.org/2000/svg">
<g clip-path="url(#clip0_11820_24291)">
<path d="M5.30758 22.551L14.8612 27.0051C14.6352 26.8544 10.0843 23.7775 8.68571 21.3784C7.2871 18.9792 7.35167 17.0749 8.56739 15.289C9.7831 13.5031 12.7955 12.395 17.3786 12.6855C21.9618 12.9759 26.9968 14.3638 30.773 17.7635C29.4687 15.8278 27.7823 14.1793 25.8175 12.9193C23.8526 11.6594 21.6508 10.8146 19.3475 10.4369C16.1447 9.76785 12.829 9.86753 9.6722 10.7278C6.51542 11.5881 3.60754 13.1844 1.18705 15.3859C0.390136 16.0296 -0.179281 16.912 -0.4375 17.9034C-0.36219 20.3455 5.30758 22.551 5.30758 22.551Z" fill="#2F98D5"/>
<path d="M8.56739 44.7131C7.35167 42.938 7.25483 41.109 8.68571 38.6238C10.1166 36.1386 14.8719 32.9863 14.8719 32.9863L5.30758 37.4404C5.30758 37.4404 -0.372949 39.6566 -0.4375 42.0988C-0.179281 43.0902 0.390136 43.9726 1.18705 44.6163C3.6073 46.8146 6.51342 48.409 9.66786 49.2692C12.8223 50.1293 16.1355 50.2307 19.3367 49.5652C21.643 49.1883 23.8477 48.3427 25.8146 47.0808C27.7815 45.8188 29.4691 44.1672 30.773 42.2279C26.9968 45.6276 21.9618 47.0262 17.3786 47.3167C12.7955 47.6072 9.7831 46.499 8.56739 44.7131Z" fill="#F9AE00"/>
<path d="M5.30733 37.4408L14.8609 32.9868C14.8609 32.9868 17.5828 31.5344 17.5828 30.0927V29.8991C17.5828 28.4682 14.8609 27.005 14.8609 27.005L5.30733 22.551C5.30733 22.551 -0.362442 20.3455 -0.437752 17.9033C-0.88961 20.1196 1.20833 22.0346 2.95121 23.6806C5.26429 25.8324 6.29708 28.0486 6.27556 29.9959C6.25404 31.9432 5.26429 34.1272 2.95121 36.3219C1.20833 37.9572 -0.88961 39.8722 -0.437752 42.0993C-0.373201 39.6571 5.30733 37.4408 5.30733 37.4408Z" fill="#E40E20"/>
<path d="M22.9523 30.9641C22.9523 31.0746 22.985 31.1825 23.0462 31.2744C23.1075 31.3663 23.1946 31.438 23.2966 31.4805C23.5686 31.5964 23.8616 31.655 24.1572 31.6527C24.5123 31.6527 24.8565 31.6527 25.2331 31.6527L26.1798 31.5343L26.6855 31.4698C26.7232 31.7095 26.709 31.9545 26.644 32.1883C26.5791 32.4222 26.4648 32.6394 26.3089 32.8253C25.8064 33.1531 25.2049 33.294 24.6091 33.2234C23.6864 33.3017 22.7662 33.0459 22.0163 32.5026C21.7081 32.1719 21.4747 31.7789 21.3317 31.3501C21.1888 30.9213 21.1397 30.4668 21.1879 30.0174C21.1756 29.5131 21.2521 29.0105 21.4138 28.5327C21.5352 28.1627 21.7636 27.8369 22.0701 27.5967C22.3591 27.3823 22.6884 27.2286 23.0384 27.1448C23.4465 27.0439 23.866 26.9968 24.2863 27.005C25.0057 26.9428 25.7226 27.1498 26.2982 27.5859C26.5305 27.8312 26.7082 28.1229 26.8195 28.4419C26.9308 28.7609 26.9731 29.0999 26.9437 29.4364C26.9599 29.7104 26.8964 29.9832 26.7608 30.2218C26.6468 30.4053 26.4715 30.5425 26.2659 30.6091C26.0313 30.6834 25.7898 30.7339 25.5451 30.7597C25.2656 30.7758 24.9854 30.7758 24.7059 30.7597C24.4088 30.7339 24.11 30.7339 23.8129 30.7597C23.5181 30.7887 23.2286 30.8574 22.9523 30.9641V30.9641ZM22.9523 29.8022C23.1401 29.6969 23.3503 29.6379 23.5655 29.6301C23.8452 29.6301 24.1034 29.6301 24.3509 29.6301C24.5786 29.6336 24.8038 29.5819 25.0072 29.4794C25.0945 29.4389 25.1678 29.3732 25.2176 29.2908C25.2675 29.2084 25.2915 29.113 25.2869 29.0168C25.2869 28.8232 25.1363 28.6618 24.835 28.5434C24.4419 28.3832 24.0017 28.3832 23.6085 28.5434C23.355 28.6277 23.142 28.8032 23.0107 29.0358C22.8795 29.2685 22.8395 29.5417 22.8985 29.8022H22.9523Z" fill="#1F2845"/>
<path d="M34.0105 29.0705V33.0835C33.7921 33.1005 33.5726 33.1005 33.3542 33.0835C33.1733 33.0722 32.9954 33.0322 32.827 32.9651C32.6663 32.906 32.535 32.7863 32.4613 32.6316C32.3824 32.456 32.3455 32.2645 32.3537 32.0722V29.1136C32.2461 28.5756 31.7405 28.3605 30.8583 28.4788C30.5862 28.4992 30.3163 28.5424 30.0514 28.6079C30.0641 28.7547 30.0641 28.9023 30.0514 29.049V32.0722C30.0664 32.2649 30.0292 32.4582 29.9438 32.6316C29.8643 32.7819 29.735 32.8998 29.578 32.9651C29.4134 33.0322 29.239 33.0722 29.0616 33.0835C28.8398 33.1056 28.6163 33.1056 28.3945 33.0835V27.7042C28.3945 27.2201 29.1692 26.9619 30.6969 26.9296C32.9131 26.8865 34.0105 27.5966 34.0105 29.0705Z" fill="#1F2845"/>
<path d="M39.7885 24.584C39.9109 24.6661 40.051 24.7177 40.1974 24.7347H40.6492C40.7845 24.7343 40.919 24.7561 41.0473 24.7992C41.1133 24.8246 41.1733 24.8636 41.2233 24.9136C41.2733 24.9637 41.3124 25.0236 41.3378 25.0897C41.4165 25.303 41.453 25.5295 41.4453 25.7567V32.2656L41.3378 32.3947C41.2855 32.4637 41.2279 32.5284 41.1656 32.5884C41.0741 32.6574 40.9769 32.7186 40.8752 32.7713C40.7314 32.8559 40.5753 32.9177 40.4125 32.9542C40.2512 32.9542 40.0145 33.0402 39.7347 33.0833C39.4132 33.1191 39.09 33.1371 38.7665 33.1371C37.8885 33.217 37.0137 32.9549 36.3242 32.4055C35.7638 31.7215 35.4969 30.8435 35.5819 29.9633C35.5782 29.558 35.64 29.1547 35.7648 28.7691C35.8636 28.459 36.0206 28.1705 36.2275 27.9192C36.4222 27.6964 36.6554 27.5106 36.916 27.3705C37.1692 27.2295 37.4408 27.1245 37.7229 27.0585C38.0028 27.0027 38.2874 26.9739 38.5728 26.9724C38.996 26.9356 39.4203 27.0295 39.7885 27.2414V24.5518V24.584ZM39.7885 30.0924V28.5217L39.4765 28.4464H39.0462C38.8886 28.4355 38.7304 28.4355 38.5728 28.4464C38.4085 28.4602 38.2481 28.504 38.0994 28.5755C37.9451 28.6496 37.8035 28.7476 37.6798 28.8659C37.5565 29.016 37.4617 29.1874 37.4001 29.3716C37.3221 29.6185 37.2858 29.8766 37.2925 30.1354C37.2868 30.3854 37.3307 30.6341 37.4216 30.867C37.4903 31.0481 37.6009 31.2103 37.7444 31.3404C37.8837 31.4542 38.0448 31.5384 38.2178 31.5878C38.3863 31.637 38.5592 31.6695 38.7341 31.6847C38.8948 31.7059 39.0576 31.7059 39.2183 31.6847H39.5841H39.7778C39.7778 31.6847 39.7885 31.0607 39.7885 30.0924Z" fill="#1F2845"/>
<path d="M43.0049 30.0282C43.0049 30.0282 43.0049 29.9206 43.0049 29.8453C42.9958 29.702 42.9958 29.5583 43.0049 29.415C43.0287 29.2079 43.0683 29.0029 43.1232 28.8018C43.2047 28.5764 43.3093 28.3601 43.4353 28.1562C43.5861 27.9284 43.7711 27.7252 43.9839 27.5538C44.2464 27.3596 44.5415 27.2139 44.8553 27.1234C45.2645 27.0062 45.6885 26.9482 46.1141 26.9513C46.4245 26.9512 46.7343 26.98 47.0393 27.0374C47.2873 27.0802 47.5293 27.1524 47.7601 27.2525C47.9525 27.3367 48.1332 27.4452 48.2981 27.5753C48.4408 27.694 48.5706 27.8274 48.6854 27.9733C48.7963 28.1083 48.8836 28.2611 48.9436 28.4252C49.0083 28.5754 49.0621 28.73 49.105 28.8878C49.1428 29.0365 49.1716 29.1875 49.191 29.3397C49.191 29.5118 49.191 29.6409 49.191 29.727V30.2864C49.1971 30.3939 49.1971 30.5017 49.191 30.6092C49.1602 30.9537 49.088 31.2933 48.9759 31.6205C48.8931 31.808 48.7884 31.9849 48.6639 32.1477C48.5197 32.3296 48.3492 32.4891 48.1582 32.621C47.9203 32.7672 47.6633 32.8794 47.3944 32.9545C47.0433 33.0464 46.6814 33.0899 46.3185 33.0836C45.9586 33.0826 45.5992 33.0574 45.2427 33.0083C44.9711 32.9673 44.7043 32.8988 44.4466 32.8039C44.2316 32.7247 44.0342 32.6041 43.8656 32.4489C43.7094 32.3175 43.5719 32.1655 43.4567 31.997C43.3471 31.8199 43.2637 31.6279 43.2093 31.4268C43.1399 31.2129 43.0895 30.9933 43.0587 30.7706C43.0258 30.5244 43.0078 30.2765 43.0049 30.0282V30.0282ZM44.6509 30.1251C44.6667 30.3311 44.6954 30.5359 44.737 30.7383C44.7859 30.9007 44.8624 31.0535 44.9629 31.1901C45.0827 31.3428 45.2488 31.4523 45.4363 31.5021C45.7011 31.5829 45.9774 31.6193 46.254 31.6097C46.4797 31.6172 46.7041 31.573 46.9102 31.4806C47.0654 31.4236 47.2053 31.3315 47.3191 31.2117C47.4134 31.1005 47.4863 30.9728 47.5342 30.8351C47.6056 30.6538 47.6385 30.4596 47.631 30.2649V29.9637C47.6354 29.8956 47.6354 29.8273 47.631 29.7593C47.631 29.6517 47.631 29.5764 47.631 29.5118C47.6103 29.4268 47.5815 29.3439 47.545 29.2644C47.5162 29.1772 47.4765 29.094 47.4266 29.0169C47.3713 28.9374 47.3062 28.8651 47.233 28.8018C47.1588 28.7255 47.0713 28.6635 46.9748 28.6188C46.8655 28.5649 46.7498 28.5251 46.6305 28.5005C46.4804 28.4835 46.3288 28.4835 46.1787 28.5005C45.9251 28.494 45.6728 28.5378 45.4363 28.6296C45.2722 28.6769 45.1232 28.7663 45.0043 28.889C44.8854 29.0117 44.8007 29.1633 44.7585 29.3289C44.7168 29.4584 44.688 29.5918 44.6724 29.727C44.6724 29.8238 44.6724 29.9422 44.6724 30.0928C44.6768 30.1033 44.6804 30.1141 44.6832 30.1251H44.6509Z" fill="#1F2845"/>
<path d="M54.839 26.9621C54.8296 27.0407 54.8296 27.1202 54.839 27.1988C54.8498 27.3312 54.8498 27.4644 54.839 27.5968C54.8248 27.7358 54.7959 27.8728 54.7529 28.0057C54.7129 28.1545 54.6164 28.2819 54.4839 28.3607C54.3239 28.4526 54.1411 28.4973 53.9568 28.4898C53.7203 28.4746 53.4832 28.4746 53.2467 28.4898C53.0826 28.5091 52.9247 28.5642 52.7841 28.6512C52.6543 28.7403 52.5622 28.8745 52.5259 29.0277C52.4775 29.243 52.4558 29.4634 52.4613 29.684V33.2236C52.3007 33.117 52.1221 33.0404 51.9342 32.9976L51.3855 32.8685C51.2242 32.8305 51.0803 32.7396 50.9766 32.6103C50.8502 32.4278 50.7895 32.2078 50.8045 31.9863V29.0277C50.8 28.9668 50.8 28.9057 50.8045 28.8448C50.7969 28.7374 50.7969 28.6295 50.8045 28.5221C50.8304 28.3822 50.87 28.2453 50.9228 28.1133C50.9747 27.962 51.0511 27.8202 51.1488 27.6937C51.2545 27.5466 51.3813 27.4161 51.5253 27.3064C51.6981 27.1813 51.8909 27.0867 52.0956 27.0266C52.3463 26.9496 52.6078 26.9133 52.8701 26.9191H54.796L54.839 26.9621Z" fill="#1F2845"/>
<path d="M57.8421 35.5259C57.6881 35.4159 57.5041 35.3558 57.3149 35.3537H56.7662C56.6854 35.3507 56.6066 35.3274 56.537 35.2861C56.4675 35.2447 56.4094 35.1866 56.3681 35.117C56.2335 34.8823 56.1735 34.6121 56.196 34.3424V27.8335L56.2928 27.7044C56.3482 27.6381 56.4095 27.5769 56.4758 27.5215C56.5612 27.4493 56.6551 27.3879 56.7554 27.3386C56.8986 27.2504 57.0548 27.185 57.2181 27.145L57.8959 27.0159C58.221 26.9797 58.5478 26.9618 58.8749 26.9621C59.3155 26.8727 59.7715 26.8948 60.2015 27.0263C60.6314 27.1579 61.0217 27.3947 61.3369 27.7152C61.6522 28.0358 61.8824 28.4301 62.0067 28.8622C62.131 29.2943 62.1454 29.7505 62.0487 30.1896C62.0592 30.6791 61.9714 31.1656 61.7905 31.6205C61.6357 31.9899 61.3872 32.3125 61.0696 32.5565C60.7832 32.7669 60.463 32.927 60.1229 33.0299C59.7733 33.1314 59.411 33.1821 59.047 33.1805C58.6365 33.1908 58.2268 33.1401 57.8313 33.0299V35.6012L57.8421 35.5259ZM57.8421 30.0067V31.5344L58.2186 31.6205H58.735C58.9274 31.6328 59.1205 31.6109 59.3053 31.556C59.4841 31.4917 59.654 31.4049 59.8109 31.2977C59.9916 31.1665 60.1269 30.9822 60.1982 30.7706C60.3024 30.4921 60.3535 30.1965 60.3488 29.8991C60.3565 29.648 60.3087 29.3982 60.2089 29.1676C60.1363 28.9886 60.0263 28.8272 59.8862 28.6942C59.7471 28.5739 59.581 28.489 59.4021 28.4467C59.2403 28.3997 59.0747 28.3673 58.9071 28.3499C58.7428 28.3296 58.5766 28.3296 58.4123 28.3499H58.0465H57.8528C57.8528 28.3499 57.8313 29.0385 57.8421 30.0067Z" fill="#1F2845"/>
<path d="M65.2545 27.2311C65.8389 27.0496 66.4508 26.9731 67.0619 27.0052C67.4322 26.9944 67.8001 27.068 68.1378 27.2204C68.3835 27.3264 68.6009 27.4885 68.7726 27.6938C68.9089 27.8824 69.0108 28.0937 69.0738 28.3178C69.1326 28.4849 69.1723 28.6581 69.1922 28.8342C69.2031 28.9307 69.2031 29.0281 69.1922 29.1246V33.1376C68.1163 33.2882 67.5353 32.9439 67.5353 32.1155V30.8998C67.5866 30.229 67.5358 29.5543 67.3847 28.8987C67.2663 28.662 66.9221 28.5329 66.3088 28.5222C65.9417 28.5238 65.5776 28.5893 65.233 28.7158V32.1155C65.2615 32.2863 65.2365 32.4618 65.1614 32.6178C65.0863 32.7738 64.9647 32.9028 64.8134 32.987C64.4183 33.1326 63.9947 33.1841 63.5762 33.1376V24.5308C63.7338 24.6332 63.9156 24.6926 64.1033 24.7029C64.2861 24.7124 64.4693 24.7124 64.652 24.7029C64.7334 24.7089 64.8121 24.7346 64.8815 24.7777C64.9508 24.8208 65.0086 24.88 65.0501 24.9503C65.186 25.1846 65.2462 25.4552 65.2223 25.725V27.2311H65.2545Z" fill="#1F2845"/>
<path d="M71.0199 26.3272C70.8565 26.1604 70.7639 25.9368 70.7617 25.7032C70.7612 25.5863 70.7849 25.4705 70.8311 25.3632C70.8774 25.2558 70.9453 25.1591 71.0307 25.0792C71.1111 24.9953 71.2082 24.929 71.3156 24.8846C71.423 24.8401 71.5385 24.8185 71.6547 24.821C71.7706 24.821 71.8853 24.8437 71.9924 24.888C72.0994 24.9323 72.1968 24.9973 72.2787 25.0792C72.3626 25.1597 72.4289 25.2567 72.4733 25.3641C72.5178 25.4715 72.5394 25.587 72.5369 25.7032C72.5382 25.8193 72.5159 25.9343 72.4716 26.0416C72.4272 26.1488 72.3616 26.246 72.2787 26.3272C72.1983 26.4111 72.1012 26.4774 71.9938 26.5218C71.8864 26.5663 71.7709 26.5879 71.6547 26.5854C71.537 26.5869 71.4202 26.5648 71.3112 26.5205C71.2022 26.4761 71.1032 26.4104 71.0199 26.3272V26.3272ZM72.4616 28.0593C72.4841 27.7896 72.424 27.5195 72.2894 27.2847C72.2481 27.2151 72.1901 27.157 72.1205 27.1157C72.051 27.0743 71.9722 27.0511 71.8914 27.048H71.3427C71.1539 27.0439 70.9704 26.984 70.8155 26.8759V33.1051C71.234 33.1516 71.6576 33.1001 72.0528 32.9545C72.2041 32.8702 72.3256 32.7413 72.4007 32.5853C72.4758 32.4292 72.5009 32.2538 72.4724 32.083V28.0916L72.4616 28.0593Z" fill="#1F2845"/>
<path d="M79.6804 29.0705V33.0835C79.462 33.1002 79.2426 33.1002 79.0241 33.0835C78.8434 33.071 78.6657 33.0311 78.497 32.9651C78.34 32.8998 78.2107 32.7819 78.1312 32.6316C78.0523 32.456 78.0154 32.2645 78.0236 32.0722V29.1136C77.916 28.5756 77.4211 28.3605 76.5281 28.4788C76.256 28.4992 75.9861 28.5424 75.7212 28.6079C75.734 28.7547 75.734 28.9023 75.7212 29.049V32.0722C75.7363 32.2649 75.6992 32.4582 75.6137 32.6316C75.5365 32.7837 75.4064 32.9023 75.2479 32.9651C75.0832 33.0322 74.9089 33.0722 74.7315 33.0835C74.5097 33.1058 74.2862 33.1058 74.0645 33.0835V27.7042C74.0645 27.2201 74.8391 26.9619 76.3776 26.9296C78.5831 26.8865 79.6804 27.5966 79.6804 29.0705Z" fill="#1F2845"/>
<path d="M81.6929 28.5112C81.6972 28.4791 81.6972 28.4466 81.6929 28.4144C81.6852 28.3429 81.6852 28.2707 81.6929 28.1992V27.898C81.7215 27.7867 81.7611 27.6786 81.8112 27.5753C81.8612 27.4578 81.9344 27.3517 82.0264 27.2632C82.1383 27.1699 82.2657 27.0971 82.4029 27.0481C82.5835 26.9891 82.7725 26.96 82.9624 26.962H83.8553H84.4686C84.6675 26.9829 84.8651 27.0152 85.0603 27.0588C85.247 27.1121 85.4302 27.1768 85.609 27.2525C85.7836 27.3283 85.9438 27.4339 86.0823 27.5645C86.2276 27.7015 86.3542 27.8571 86.4589 28.0271C86.5714 28.2334 86.6546 28.4542 86.7063 28.6834C86.7659 28.97 86.7948 29.2621 86.7924 29.5548V30.7705C86.7919 31.0501 86.7557 31.3285 86.6848 31.5989C86.6298 31.81 86.5466 32.0126 86.4374 32.2014C86.3361 32.3548 86.2128 32.4926 86.0716 32.6102C85.9438 32.7146 85.8028 32.8015 85.652 32.8684C85.5105 32.9286 85.3625 32.9719 85.2109 32.9975L84.8236 33.0621H82.8763H82.6397C82.519 33.0496 82.4 33.0243 82.2846 32.9868C82.1565 32.939 82.0339 32.8777 81.9188 32.8039C81.7843 32.7242 81.6643 32.6223 81.5638 32.5026C81.4594 32.3708 81.3792 32.2214 81.3271 32.0616C81.2611 31.8602 81.2283 31.6494 81.2302 31.4376C81.2118 31.0726 81.2629 30.7075 81.3809 30.3617C81.4685 30.1088 81.6295 29.8878 81.8435 29.727C82.0536 29.5777 82.2913 29.4716 82.5428 29.415C82.8546 29.3541 83.1719 29.3252 83.4896 29.3289C83.9275 29.3514 84.3664 29.3079 84.7914 29.1998C85.0281 29.1137 85.1356 28.9846 85.1356 28.8125C85.1356 28.6403 84.8989 28.3929 84.4148 28.3068C83.911 28.2142 83.3968 28.1925 82.8871 28.2423C82.478 28.2728 82.0756 28.3634 81.6929 28.5112V28.5112ZM85.1894 30.168L85.0603 30.3079C84.9467 30.3871 84.8239 30.4521 84.6945 30.5016C84.5049 30.5863 84.2997 30.6302 84.092 30.6307C83.7951 30.619 83.4989 30.6665 83.2206 30.7705C82.9947 30.8566 82.8871 30.9749 82.8871 31.1363C82.8826 31.2244 82.9022 31.3121 82.9439 31.3898C82.9857 31.4676 83.0478 31.5324 83.1237 31.5774C83.4329 31.6922 83.763 31.7399 84.092 31.7173H84.5546C84.66 31.7103 84.7628 31.681 84.8559 31.6312C84.926 31.5885 84.991 31.538 85.0496 31.4806C85.0993 31.3952 85.1287 31.2995 85.1356 31.2009C85.1509 31.065 85.1509 30.9279 85.1356 30.792C85.1786 30.6522 85.1894 30.4585 85.1894 30.168Z" fill="#1F2845"/>
</g>
<defs>
<clipPath id="clip0_11820_24291">
<rect width="87" height="60" fill="white"/>
</clipPath>
</defs>
</svg>
