<svg width="126" height="60" viewBox="0 0 126 60" fill="none" xmlns="http://www.w3.org/2000/svg">
<g clip-path="url(#clip0_11820_24306)">
<path d="M0 36.3789V40.7697H12.3467L14.2153 36.3789H0Z" fill="#0099FA"/>
<path d="M0 31.0687V35.5293L15.5164 33.3547L17.5373 28.6016L0 31.0687Z" fill="#0099FA"/>
<path d="M0 25.5901V30.1899L18.9492 25.3113L21.2053 20.0005L0 25.5901Z" fill="#0099FA"/>
<path d="M11.4186 33.6046C11.5521 33.5834 11.6739 33.5149 11.7616 33.4114C11.8495 33.3079 11.8977 33.1763 11.8977 33.0401C11.8977 32.9039 11.8495 32.7722 11.7616 32.6687C11.6739 32.5652 11.5521 32.4968 11.4186 32.4756C11.2851 32.4968 11.1634 32.5652 11.0756 32.6687C10.9878 32.7722 10.9395 32.9039 10.9395 33.0401C10.9395 33.1763 10.9878 33.3079 11.0756 33.4114C11.1634 33.5149 11.2851 33.5834 11.4186 33.6046Z" fill="#0099FA"/>
<path d="M30.4247 32.8245H34.5772L35.9336 29.5628H30.4247V27.3046H36.8888L38.356 23.8199L38.3698 23.792H26.3691V38.7068H38.3837V35.1942H30.4247V32.8245Z" fill="#090A0B"/>
<path d="M77.6658 23.792H71.3125V38.7068H75.465V34.4414H77.5135C79.1633 34.5266 80.7923 34.0341 82.1229 33.0475C82.7065 32.5754 83.1703 31.9702 83.4763 31.2819C83.7817 30.5935 83.9201 29.8418 83.8807 29.0888C83.918 28.3558 83.7872 27.624 83.4992 26.9498C83.2112 26.2755 82.7737 25.6768 82.2198 25.1998C80.9203 24.1915 79.3024 23.6914 77.6658 23.792ZM79.0497 30.6779C78.5623 31.0257 77.9711 31.1932 77.375 31.1519H75.4234V27.2628H77.3473C77.9683 27.2281 78.5824 27.4049 79.0913 27.7646C79.292 27.9353 79.452 28.1492 79.56 28.3904C79.668 28.6316 79.7206 28.8941 79.7143 29.1586C79.7365 29.4433 79.6922 29.7294 79.5835 29.9934C79.4755 30.2575 79.3066 30.492 79.0913 30.6779H79.0497Z" fill="#090A0B"/>
<path d="M89.3609 23.792H85.25V38.7068H94.3296L95.8527 35.0826H89.3609V23.792Z" fill="#090A0B"/>
<path d="M102.843 23.6807L97.5418 36.3095L96.5449 38.707H100.864L101.916 36.0446H107.632L108.712 38.707H113.113L106.801 23.6807H102.843ZM103.12 32.8247L104.794 28.643L106.441 32.8247H103.12Z" fill="#090A0B"/>
<path d="M121.405 23.792L118.333 29.2283L115.287 23.792H110.609L116.243 33.1172V38.7068H120.367V33.0615L126.001 23.792H121.405Z" fill="#090A0B"/>
<path d="M50.508 23.792L47.1445 33.2288L43.7809 23.792H39.1855L45.1928 38.8183H48.9992L55.0203 23.792H50.508Z" fill="#090A0B"/>
<path d="M61.9538 23.5273C60.4317 23.5273 58.9437 23.9819 57.6781 24.8335C56.4125 25.6851 55.4261 26.8955 54.8436 28.3116C54.2612 29.7278 54.1087 31.2861 54.4057 32.7894C54.7027 34.2928 55.4356 35.6738 56.5119 36.7577C57.5882 37.8415 58.9595 38.5797 60.4524 38.8787C61.9452 39.1778 63.4926 39.0243 64.8988 38.4377C66.3051 37.8511 67.507 36.8577 68.3527 35.5832C69.1983 34.3087 69.6499 32.8103 69.6499 31.2775C69.6499 29.222 68.8388 27.2507 67.3956 25.7973C65.9523 24.3439 63.9948 23.5273 61.9538 23.5273ZM61.9538 35.3477C61.1544 35.3477 60.3729 35.109 59.7083 34.6618C59.0436 34.2145 58.5256 33.5788 58.2197 32.8351C57.9137 32.0914 57.8337 31.273 57.9897 30.4834C58.1456 29.6939 58.5306 28.9686 59.0958 28.3994C59.661 27.8301 60.3813 27.4425 61.1652 27.2855C61.9493 27.1284 62.7619 27.209 63.5004 27.5171C64.239 27.8252 64.8702 28.3468 65.3144 29.0162C65.7585 29.6855 65.9955 30.4725 65.9955 31.2775C65.9918 32.3545 65.5644 33.3863 64.8068 34.1465C64.0492 34.9068 63.0233 35.3337 61.9538 35.3337V35.3477Z" fill="#090A0B"/>
</g>
<defs>
<clipPath id="clip0_11820_24306">
<rect width="126" height="20.7692" fill="white" transform="translate(0 20)"/>
</clipPath>
</defs>
</svg>
