<?xml version="1.0" standalone="no"?>
<!DOCTYPE svg PUBLIC "-//W3C//DTD SVG 20010904//EN"
 "http://www.w3.org/TR/2001/REC-SVG-20010904/DTD/svg10.dtd">
<svg version="1.0" xmlns="http://www.w3.org/2000/svg"
 width="828.000000pt" height="828.000000pt" viewBox="0 0 828.000000 828.000000"
 preserveAspectRatio="xMidYMid meet">
<metadata>
Created by potrace 1.14, written by Peter Selinger 2001-2017
</metadata>
<g transform="translate(0.000000,828.000000) scale(0.100000,-0.100000)"
fill="#000000" stroke="none">
<path d="M4970 8273 c-129 -22 -284 -105 -377 -202 -54 -57 -143 -209 -143
-244 0 -7 -6 -22 -14 -32 -11 -15 -29 -19 -102 -21 -151 -4 -243 -32 -368
-112 -95 -60 -256 -225 -256 -261 0 -6 -4 -11 -8 -11 -12 0 -78 -144 -98 -215
-35 -122 -23 -298 29 -420 47 -112 109 -180 222 -246 85 -49 115 -88 121 -161
2 -29 6 -69 9 -88 16 -119 17 -127 3 -127 -98 -4 -232 -79 -318 -179 -113
-131 -134 -375 -47 -539 6 -11 17 -32 25 -48 7 -15 39 -52 70 -83 91 -89 193
-138 314 -150 67 -6 71 -8 74 -27 2 -17 14 -116 19 -152 2 -16 6 -59 10 -95
16 -169 90 -369 188 -509 59 -85 221 -231 255 -231 6 0 12 -3 14 -7 2 -5 35
-24 73 -43 l70 -35 3 -225 c3 -234 0 -281 -21 -302 -7 -7 -35 -42 -61 -78 -77
-102 -89 -111 -171 -125 -11 -2 -60 -11 -110 -20 -145 -25 -149 -25 -180 -35
-16 -5 -45 -12 -63 -15 -75 -13 -347 -87 -387 -105 -11 -6 -39 -16 -63 -25
-47 -16 -107 -56 -167 -110 -22 -20 -64 -58 -94 -83 -29 -26 -63 -56 -75 -67
-12 -11 -51 -45 -85 -75 -35 -30 -86 -75 -114 -100 -27 -25 -58 -52 -67 -60
-43 -37 -168 -150 -220 -197 -105 -97 -157 -134 -167 -120 -16 19 -128 254
-166 348 -77 187 -184 533 -193 627 -3 26 -7 133 -9 237 -2 128 -8 203 -17
230 -24 67 -10 126 44 186 48 55 115 50 174 -12 22 -23 49 -52 62 -65 59 -62
118 -12 186 158 38 97 -4 317 -104 541 l-21 48 24 52 c17 36 27 79 31 138 4
47 8 96 11 108 2 11 7 56 11 99 8 100 11 127 17 182 3 25 9 77 12 115 4 39 8
86 10 105 4 32 7 68 20 190 3 25 7 70 11 100 25 226 28 308 10 334 -8 13 -57
56 -108 95 -51 40 -104 81 -118 91 -14 11 -90 69 -170 130 -80 60 -149 113
-155 117 -5 5 -48 38 -95 73 -47 35 -87 66 -90 69 -3 4 -41 33 -85 65 -44 33
-82 62 -85 66 -17 21 -85 52 -117 53 -32 1 -123 -5 -258 -18 -16 -1 -44 -3
-62 -4 -18 0 -44 -11 -59 -24 l-27 -24 2 -489 c1 -269 3 -569 5 -666 2 -162 1
-180 -16 -198 -10 -11 -23 -20 -27 -20 -5 0 -16 -15 -25 -32 -9 -18 -22 -42
-29 -53 -84 -134 -197 -355 -249 -485 -86 -214 -117 -364 -113 -545 1 -71 6
-146 9 -165 12 -64 47 -174 72 -228 20 -43 23 -60 17 -95 -10 -55 -10 -237 1
-362 7 -82 12 -103 30 -120 24 -24 25 -27 31 -104 3 -31 7 -78 10 -106 2 -27
7 -81 10 -120 3 -38 8 -87 11 -107 3 -21 7 -52 9 -70 10 -78 20 -145 24 -150
1 -2 4 -19 5 -38 2 -19 7 -51 10 -70 10 -55 37 -193 42 -215 2 -11 6 -30 8
-43 3 -13 7 -31 10 -40 3 -9 7 -29 10 -43 2 -15 19 -80 36 -145 18 -66 33
-126 35 -134 28 -127 197 -540 268 -655 98 -160 179 -276 242 -343 194 -210
301 -287 530 -382 26 -11 137 -37 195 -46 50 -7 233 -7 258 0 10 3 37 8 62 11
24 4 48 9 52 11 4 3 17 7 28 10 46 10 57 13 95 30 22 10 42 18 45 19 43 13
192 106 260 163 104 87 94 81 85 47 -4 -16 -9 -46 -10 -65 -2 -19 -6 -62 -10
-95 -4 -33 -8 -89 -11 -124 -2 -36 -5 -83 -8 -105 -3 -23 -7 -77 -11 -121 -3
-44 -8 -93 -10 -110 -6 -44 24 -78 65 -77 56 1 64 18 75 162 3 41 8 91 10 110
13 113 17 149 20 185 2 22 6 56 9 75 11 71 18 126 21 155 3 41 15 134 21 170
3 17 7 44 9 60 10 73 18 131 20 145 1 8 6 35 10 60 4 25 9 54 11 65 3 11 7 36
10 55 2 19 9 59 15 88 6 29 12 65 14 80 3 15 7 38 10 52 11 56 25 127 30 155
4 25 13 71 51 250 2 11 7 34 10 50 8 39 10 47 17 65 24 57 9 115 -31 123 -54
10 -85 -24 -97 -109 -2 -16 -9 -51 -15 -79 -18 -84 -19 -89 -24 -126 -3 -20
-8 -42 -10 -50 -3 -8 -7 -30 -10 -49 -3 -19 -15 -82 -26 -140 -11 -58 -23
-121 -26 -140 -3 -19 -7 -41 -10 -49 -2 -8 -7 -30 -10 -50 -3 -20 -16 -90 -30
-156 -13 -66 -27 -132 -29 -147 -12 -65 -18 -74 -136 -181 -108 -98 -183 -152
-274 -196 -104 -51 -154 -68 -255 -87 -56 -10 -231 -6 -285 6 -49 11 -67 16
-102 24 -19 5 -139 55 -185 78 -16 7 -28 16 -28 21 0 4 -7 7 -15 7 -8 0 -15 5
-15 10 0 6 -5 10 -11 10 -32 0 -210 165 -316 292 -49 60 -150 219 -203 323
-122 236 -256 634 -314 935 -3 14 -14 70 -25 125 -19 100 -30 160 -36 202 -2
13 -6 42 -10 65 -7 43 -8 53 -20 143 -4 28 -9 61 -11 75 -4 30 -13 156 -18
257 -5 87 -22 81 229 89 292 9 342 11 500 19 179 10 224 9 240 -5 7 -5 20 -40
30 -77 53 -206 118 -415 150 -488 7 -16 16 -41 20 -55 4 -14 19 -50 32 -80 14
-30 39 -86 56 -125 17 -38 42 -87 54 -107 13 -21 20 -38 16 -38 -5 0 -3 -4 3
-8 6 -4 21 -29 35 -56 31 -64 81 -117 105 -113 24 4 61 24 83 45 10 9 48 44
86 77 37 33 73 65 79 70 12 11 159 141 215 190 19 17 44 39 56 50 61 54 100
89 215 190 69 61 127 112 130 115 47 47 156 133 182 144 33 14 345 100 398
109 14 3 70 16 125 30 55 14 118 28 140 32 23 3 51 7 63 10 12 2 22 1 22 -3 0
-4 -18 -34 -40 -67 -22 -33 -40 -70 -40 -83 0 -19 35 -77 60 -102 3 -3 64 -84
135 -180 71 -96 134 -180 140 -186 5 -6 19 -23 30 -38 11 -15 28 -37 38 -49
10 -12 35 -43 55 -69 20 -27 40 -48 44 -48 4 0 8 -5 8 -12 0 -19 77 -88 98
-88 11 0 32 12 47 28 30 30 179 213 198 243 6 10 16 19 22 19 5 0 61 -51 123
-114 l113 -113 -5 -44 c-3 -24 -7 -53 -10 -64 -15 -65 -25 -115 -31 -155 -3
-25 -8 -58 -11 -75 -3 -16 -7 -64 -9 -105 -3 -41 -5 -75 -6 -75 -14 0 -11
-651 5 -840 2 -33 8 -103 12 -155 4 -52 8 -108 10 -125 1 -16 3 -38 3 -48 1
-21 55 -47 83 -39 36 9 49 44 43 113 -6 66 -14 167 -20 254 -2 28 -7 124 -10
215 -3 91 -7 184 -8 208 -1 23 0 42 3 42 3 0 5 75 6 168 1 231 13 402 35 503
6 26 11 53 12 60 2 8 6 20 10 27 5 6 6 12 2 12 -13 0 68 139 106 180 23 25 64
75 91 113 27 37 54 67 59 67 4 0 15 -12 23 -28 9 -15 32 -45 51 -67 20 -22 44
-51 53 -65 9 -14 39 -48 66 -77 50 -54 77 -64 107 -40 31 25 399 500 399 516
0 5 4 11 8 13 14 5 160 210 171 239 7 20 6 34 -5 55 -8 15 -12 34 -10 41 12
30 -23 75 -163 210 -103 99 -150 152 -157 175 -12 38 -12 541 0 575 4 13 46
50 94 82 97 67 232 196 232 222 0 4 6 14 14 21 19 20 60 103 80 164 35 107 41
168 38 409 -1 116 -2 222 -2 238 -2 45 8 61 57 92 156 98 236 238 236 415 0
104 -8 143 -48 226 -38 78 -115 159 -189 196 -74 37 -74 37 -75 166 -1 64 -3
197 -5 295 -2 98 -1 190 3 204 5 18 31 43 82 77 125 85 244 215 312 341 21 38
67 152 74 179 32 144 38 315 15 406 -14 53 -60 139 -90 167 -47 43 -130 76
-198 79 -83 3 -161 -16 -307 -77 -67 -27 -126 -51 -132 -53 -5 -2 -21 -8 -35
-13 -189 -80 -283 -102 -422 -99 -162 4 -243 35 -418 159 -47 34 -87 64 -90
67 -3 3 -12 10 -22 15 -9 6 -48 32 -88 59 -154 105 -275 147 -435 151 -60 1
-121 1 -135 -2z m-187 -1120 c40 -26 74 -48 77 -48 3 0 23 -12 45 -27 183
-117 545 -258 755 -293 19 -3 42 -8 50 -10 8 -2 33 -7 55 -10 23 -3 51 -7 64
-10 93 -18 372 -24 526 -11 194 16 180 14 275 35 64 13 85 9 87 -19 5 -55 5
-129 0 -137 -2 -4 -1 -17 3 -28 4 -11 4 -32 -1 -47 -4 -16 -5 -28 -1 -28 4 0
7 -143 7 -318 0 -335 -2 -352 -45 -352 -20 0 -38 21 -65 75 -38 78 -150 204
-182 205 -7 0 -13 3 -13 8 0 9 -70 40 -107 47 -15 2 -42 9 -59 14 -17 5 -67 7
-110 6 -169 -6 -294 -83 -398 -243 -22 -36 -42 -58 -45 -50 -2 7 -7 15 -10 18
-3 3 -14 19 -23 37 -118 226 -131 244 -177 245 -18 1 -40 -6 -49 -15 -17 -18
-20 -80 -4 -100 5 -7 33 -57 62 -112 29 -55 61 -114 72 -132 21 -35 20 -36
-47 -47 -43 -8 -66 13 -105 95 -37 77 -44 88 -98 150 -72 82 -198 139 -322
145 -212 9 -389 -95 -483 -284 -22 -46 -48 -87 -57 -92 -15 -8 -34 -7 -112 5
-18 3 -129 8 -245 11 l-213 6 -30 -31 c-30 -29 -30 -31 -15 -55 20 -31 56 -44
123 -45 93 -1 95 -3 107 -96 3 -27 8 -65 11 -82 10 -78 13 -101 20 -158 3 -33
8 -68 10 -79 3 -16 -2 -18 -49 -13 -186 19 -330 171 -341 359 -8 141 64 270
188 334 48 25 172 57 187 48 4 -2 10 0 14 6 4 6 10 8 14 5 5 -2 16 4 26 15 14
16 16 31 12 92 -4 40 -9 89 -12 108 -7 45 -15 104 -22 157 -4 37 -2 42 19 48
12 5 25 8 28 8 3 0 28 8 55 17 234 81 365 243 434 540 28 120 33 143 33 163
-1 9 1 17 4 17 3 0 37 -21 77 -47z m-3208 -843 c-27 -12 -43 -12 -25 0 8 5 22
9 30 9 10 0 8 -3 -5 -9z m4725 -236 c91 -35 165 -105 207 -194 88 -190 6 -410
-185 -498 -89 -41 -185 -39 -288 4 -43 18 -52 31 -136 194 -70 133 -76 149
-73 195 14 218 269 379 475 299z m-1221 -5 c159 -51 250 -172 256 -339 3 -105
-30 -193 -100 -265 -198 -205 -539 -121 -618 152 -17 57 -15 198 3 221 2 1 3
5 4 10 7 30 45 88 83 125 98 97 249 136 372 96z m1860 -39 c40 -31 94 -123
106 -178 27 -130 -12 -262 -103 -349 -25 -24 -50 -42 -55 -40 -10 3 -18 538
-9 580 6 24 18 21 61 -13z m-228 -454 c0 -94 2 -304 4 -466 3 -328 0 -358 -60
-485 -57 -121 -139 -213 -272 -303 -129 -88 -333 -170 -528 -211 -107 -23
-138 -43 -131 -84 3 -12 5 -28 5 -35 1 -7 13 -17 28 -23 22 -8 69 0 253 45
125 31 231 56 236 56 7 0 12 -516 5 -601 -3 -37 -105 -174 -185 -248 -21 -20
-44 -41 -50 -46 -27 -26 -148 -114 -218 -160 -108 -70 -110 -91 -26 -253 43
-82 45 -92 21 -130 -24 -38 -114 -146 -124 -150 -5 -2 -7 -7 -5 -10 2 -4 -9
-20 -23 -35 l-27 -28 -92 99 c-117 125 -142 155 -142 166 0 5 14 36 30 68 69
135 68 165 -8 218 -189 134 -360 284 -412 363 -66 101 -72 136 -74 423 l-1
252 45 -6 c105 -13 140 0 140 55 0 36 -37 61 -119 79 -220 47 -318 93 -430
204 -91 89 -106 109 -159 221 -50 105 -85 238 -107 409 -3 25 -8 56 -10 70 -3
14 -7 48 -10 75 -3 28 -7 70 -10 95 -8 62 -21 182 -30 275 -5 50 -11 109 -20
178 l-4 37 128 0 129 0 21 -70 c12 -38 21 -71 19 -72 -9 -11 79 -144 127 -193
67 -69 138 -107 242 -131 63 -14 88 -31 88 -59 0 -5 4 -15 8 -21 8 -13 -30
-49 -105 -101 -47 -32 -53 -48 -33 -95 16 -39 76 -34 148 12 l45 28 39 -42
c51 -56 150 -136 168 -136 8 0 15 -4 15 -10 0 -5 4 -10 9 -10 5 0 22 -5 38
-12 81 -33 184 -48 296 -44 146 6 230 29 347 94 168 93 213 149 160 202 -29
29 -62 25 -108 -12 -201 -163 -473 -209 -673 -114 -107 51 -207 171 -223 266
-2 19 0 40 5 47 6 7 47 30 92 52 105 51 176 119 221 215 19 39 37 87 41 106
17 81 29 97 81 104 27 4 65 9 85 12 58 8 68 -6 199 -264 56 -111 64 -155 36
-197 -41 -63 -173 -91 -281 -60 -33 10 -76 18 -95 19 -30 1 -37 -4 -52 -33
-24 -49 -11 -65 76 -94 97 -33 234 -35 313 -6 57 22 115 76 163 152 23 37 35
47 48 42 21 -8 73 -15 132 -19 92 -5 187 25 275 85 45 31 129 109 118 109 -5
0 -3 4 3 8 33 23 86 158 99 252 7 49 17 60 46 53 18 -5 19 -17 20 -177z
m-4591 -430 c63 -7 121 -35 169 -79 43 -41 101 -131 74 -114 -5 3 -30 8 -58
11 -27 3 -72 10 -100 15 -27 6 -108 8 -180 6 -111 -3 -155 -7 -210 -20 -5 -1
-39 -8 -74 -16 -81 -17 -127 -55 -116 -97 3 -15 10 -31 15 -36 15 -15 68 -10
170 14 139 34 364 35 468 2 68 -21 178 -79 169 -89 -2 -2 -22 0 -43 5 -45 9
-176 8 -249 -3 -94 -14 -327 -99 -360 -131 -23 -23 -20 -81 6 -94 25 -14 41
-11 241 55 149 48 170 53 248 51 71 -1 94 -6 141 -28 57 -28 103 -72 139 -130
30 -50 27 -57 -22 -46 -41 9 -189 6 -233 -5 -86 -22 -243 -88 -247 -105 -8
-37 -2 -64 17 -82 21 -19 23 -19 76 -4 30 9 59 20 64 24 6 5 44 17 86 28 200
51 345 -11 357 -154 3 -31 -1 -67 -8 -84 l-12 -30 -47 25 c-119 63 -179 73
-255 40 -36 -15 -106 -76 -106 -92 0 -3 -6 -14 -14 -22 -8 -9 -17 -27 -20 -41
-13 -60 -24 -97 -34 -117 l-12 -21 -467 4 c-258 2 -478 6 -490 9 -14 3 -29 20
-39 43 -24 57 -62 174 -68 207 -2 17 -8 48 -12 70 -8 49 -9 215 -1 270 13 92
32 160 63 232 8 17 14 36 14 41 0 6 15 37 34 70 163 289 423 432 771 426 55
-1 125 -4 155 -8z m71 -1503 c0 -5 3 -28 6 -53 3 -25 6 -76 7 -115 l1 -70 -30
-2 c-16 -1 -95 -4 -175 -8 -80 -4 -174 -8 -210 -10 -395 -18 -605 -23 -615
-14 -6 6 -8 29 -20 202 l-5 77 520 0 c286 0 520 -3 521 -7z m2647 -334 c72
-124 221 -277 378 -387 46 -31 85 -63 89 -71 5 -12 -258 -421 -271 -421 -8 0
-64 63 -64 72 0 3 -6 13 -13 20 -7 7 -52 67 -100 133 -47 66 -90 125 -94 130
-65 82 -173 235 -173 245 0 6 33 62 73 123 40 62 84 130 97 152 20 33 38 54
47 55 1 0 15 -23 31 -51z m1611 -23 c18 -23 65 -76 105 -119 39 -43 74 -86 77
-96 6 -15 -80 -145 -152 -229 -10 -12 -19 -25 -19 -28 0 -3 -6 -11 -12 -18 -7
-7 -24 -28 -38 -46 -170 -227 -231 -300 -252 -300 -10 0 -18 3 -18 8 0 4 -10
18 -23 32 -36 40 -91 111 -130 167 -43 61 -113 193 -113 210 1 12 14 28 24 28
4 0 27 14 52 30 154 100 284 224 370 351 62 92 61 92 129 10z"/>
<path d="M5950 6549 c-59 -13 -92 -26 -109 -43 -23 -24 -24 -25 -7 -51 21 -32
43 -41 126 -51 83 -9 166 -9 262 0 60 7 83 13 103 32 14 13 25 29 25 36 0 12
-55 62 -69 64 -3 0 -26 6 -51 13 -70 21 -185 20 -280 0z"/>
<path d="M4918 6534 c-2 -1 -28 -5 -60 -7 -61 -6 -118 -30 -118 -51 0 -17 39
-52 74 -66 107 -40 265 -46 406 -15 8 2 16 4 18 5 1 2 5 3 10 5 52 14 64 20
73 36 8 15 5 24 -17 44 -15 14 -36 25 -48 26 -12 0 -30 2 -41 5 -65 12 -289
27 -297 18z"/>
<path d="M6086 5825 c-87 -59 -47 -200 57 -200 103 0 158 113 90 184 -44 45
-96 51 -147 16z"/>
<path d="M4924 5845 c-56 -23 -86 -103 -59 -155 45 -87 154 -91 205 -7 25 40
25 74 1 110 -37 56 -91 76 -147 52z"/>
</g>
</svg>
