<svg width="33" height="26" viewBox="0 0 33 26" fill="none" xmlns="http://www.w3.org/2000/svg">
    <path fill-rule="evenodd" clip-rule="evenodd" d="M22.7803 3.83961C27.9753 1.36008 32.0319 0.431345 32.6337 0.992088C33.1522 1.47223 31.4944 5.44299 29.8271 7.36704C29.5035 7.73503 24.6295 9.22801 24.4183 9.69761C24.2312 10.0989 27.3674 10.0376 28.7419 9.81154C27.7538 11.6777 25.2065 14.8127 23.4405 16.5439C23.3014 16.6789 16.9113 17.0276 16.7199 17.1888C16.3445 17.5183 21.0469 18.5101 20.6442 18.7869C14.8981 22.7542 8.49009 24.5363 5.73694 22.8821C2.84015 24.4627 0.964844 25.2547 0.964844 25.2547L1.01868 24.0369C2.45312 23.301 3.79982 22.5702 5.10454 21.843L5.07458 21.794C4.87909 20.0451 5.43971 15.787 9.96841 11.5358C9.96841 11.5358 11.5066 13.9014 11.9674 13.516C12.4303 13.1339 13.8068 9.4628 14.3256 9.07906C16.1969 7.70349 17.0667 6.92546 18.8859 5.88283C19.3607 5.60771 18.497 8.74086 18.9658 8.48678C19.4208 8.2397 21.7328 7.66493 22.7803 3.83961Z" fill="#0E9C60"/>
</svg>
