<svg width="16" height="16" viewBox="0 0 16 16" fill="none" xmlns="http://www.w3.org/2000/svg">
    <g clip-path="url(#clip0_7724_10350)">
        <mask id="path-2-outside-1_7724_10350" maskUnits="userSpaceOnUse" x="-0.5" y="-0.5" width="17" height="17" fill="black">
            <rect fill="white" x="-0.5" y="-0.5" width="17" height="17"/>
            <path fill-rule="evenodd" clip-rule="evenodd" d="M3.58961 10.3576C3.785 10.7224 3.75756 11.1818 3.46497 11.4744L3.40381 11.5355C3.11091 11.8284 3.11091 12.3033 3.40381 12.5962C3.6967 12.8891 4.17157 12.8891 4.46447 12.5962L4.52563 12.535C4.81822 12.2424 5.27765 12.215 5.64239 12.4104C5.92886 12.5638 6.23202 12.6902 6.54844 12.786C6.94442 12.906 7.25 13.2501 7.25 13.6639V13.75C7.25 14.1642 7.58579 14.5 8 14.5C8.41421 14.5 8.75 14.1642 8.75 13.75V13.6639C8.75 13.2501 9.05558 12.906 9.45156 12.786C9.76798 12.6902 10.0711 12.5638 10.3576 12.4104C10.7224 12.215 11.1818 12.2424 11.4744 12.535L11.5355 12.5962C11.8284 12.8891 12.3033 12.8891 12.5962 12.5962C12.8891 12.3033 12.8891 11.8284 12.5962 11.5355L12.535 11.4744C12.2424 11.1818 12.215 10.7224 12.4104 10.3576C12.5638 10.0711 12.6902 9.76798 12.786 9.45156C12.906 9.05558 13.2501 8.75 13.6639 8.75H13.75C14.1642 8.75 14.5 8.41421 14.5 8C14.5 7.58579 14.1642 7.25 13.75 7.25H13.6639C13.2501 7.25 12.906 6.94442 12.786 6.54844C12.6902 6.23202 12.5638 5.92886 12.4104 5.6424C12.215 5.27765 12.2424 4.81822 12.535 4.52563L12.5962 4.46447C12.8891 4.17157 12.8891 3.6967 12.5962 3.40381C12.3033 3.11091 11.8284 3.11091 11.5355 3.40381L11.4744 3.46497C11.1818 3.75756 10.7224 3.785 10.3576 3.58961C10.0711 3.43616 9.76798 3.3098 9.45156 3.21396C9.05558 3.09402 8.75 2.74987 8.75 2.33612V2.25C8.75 1.83579 8.41421 1.5 8 1.5C7.58579 1.5 7.25 1.83579 7.25 2.25V2.33612C7.25 2.74987 6.94442 3.09402 6.54844 3.21396C6.23202 3.3098 5.92886 3.43616 5.6424 3.58961C5.27765 3.785 4.81822 3.75756 4.52563 3.46497L4.46447 3.40381C4.17157 3.11091 3.6967 3.11091 3.40381 3.40381C3.11091 3.6967 3.11091 4.17157 3.40381 4.46447L3.46497 4.52563C3.75756 4.81822 3.785 5.27765 3.58961 5.64239C3.43616 5.92886 3.3098 6.23202 3.21396 6.54844C3.09402 6.94442 2.74987 7.25 2.33612 7.25H2.25C1.83579 7.25 1.5 7.58579 1.5 8C1.5 8.41421 1.83579 8.75 2.25 8.75H2.33612C2.74987 8.75 3.09402 9.05558 3.21396 9.45156C3.3098 9.76798 3.43616 10.0711 3.58961 10.3576Z"/>
        </mask>
        <path d="M3.58961 5.64239L2.26737 4.9341L3.58961 5.64239ZM4.46447 3.40381L3.40381 4.46447L4.46447 3.40381ZM11.5355 3.40381L12.5962 4.46447L11.5355 3.40381ZM12.4104 5.6424L11.0881 6.35069L12.4104 5.6424ZM12.535 4.52563L11.4744 3.46497L12.535 4.52563ZM12.786 9.45156L14.2216 9.88638L12.786 9.45156ZM10.3576 12.4104L9.64931 11.0881L10.3576 12.4104ZM9.45156 12.786L9.01673 11.3504L9.45156 12.786ZM6.54844 12.786L6.98327 11.3504L6.54844 12.786ZM4.52563 12.535L3.46497 11.4744L4.52563 12.535ZM3.46497 11.4744L2.40431 10.4137L3.46497 11.4744ZM3.40381 11.5355L4.46447 12.5962L3.40381 11.5355ZM4.46447 12.5962L4.52563 12.535L2.40431 10.4137L2.34315 10.4749L4.46447 12.5962ZM3.46497 11.4744L3.40381 11.5355L5.52513 13.6569L5.58629 13.5957L3.46497 11.4744ZM6.98327 11.3504C6.7626 11.2836 6.55097 11.1954 6.35069 11.0881L4.9341 13.7326C5.30676 13.9323 5.70144 14.0968 6.11362 14.2216L6.98327 11.3504ZM8.75 13.75V13.6639H5.75V13.75H8.75ZM7.25 13.6639V13.75H10.25V13.6639H7.25ZM9.64931 11.0881C9.44903 11.1954 9.2374 11.2836 9.01673 11.3504L9.88638 14.2216C10.2986 14.0968 10.6932 13.9323 11.0659 13.7326L9.64931 11.0881ZM12.5962 11.5355L12.535 11.4744L10.4137 13.5957L10.4749 13.6569L12.5962 11.5355ZM11.4744 12.535L11.5355 12.5962L13.6569 10.4749L13.5957 10.4137L11.4744 12.535ZM11.3504 9.01673C11.2836 9.2374 11.1954 9.44903 11.0881 9.64931L13.7326 11.0659C13.9323 10.6932 14.0968 10.2986 14.2216 9.88638L11.3504 9.01673ZM13.75 7.25H13.6639V10.25H13.75V7.25ZM13.6639 8.75H13.75V5.75H13.6639V8.75ZM11.0881 6.35069C11.1954 6.55097 11.2836 6.7626 11.3504 6.98327L14.2216 6.11361C14.0968 5.70144 13.9323 5.30676 13.7326 4.9341L11.0881 6.35069ZM11.5355 3.40381L11.4744 3.46497L13.5957 5.58629L13.6569 5.52513L11.5355 3.40381ZM12.535 4.52563L12.5962 4.46447L10.4749 2.34315L10.4137 2.40431L12.535 4.52563ZM9.01673 4.64955C9.2374 4.71639 9.44903 4.80457 9.64931 4.91185L11.0659 2.26737C10.6932 2.06775 10.2986 1.90321 9.88638 1.77837L9.01673 4.64955ZM7.25 2.25V2.33612H10.25V2.25H7.25ZM8.75 2.33612V2.25H5.75V2.33612H8.75ZM6.35069 4.91185C6.55097 4.80457 6.7626 4.71639 6.98327 4.64955L6.11362 1.77837C5.70144 1.90321 5.30676 2.06775 4.9341 2.26737L6.35069 4.91185ZM3.40381 4.46447L3.46497 4.52563L5.58629 2.40431L5.52513 2.34315L3.40381 4.46447ZM4.52563 3.46497L4.46447 3.40381L2.34315 5.52513L2.40431 5.58629L4.52563 3.46497ZM4.64955 6.98327C4.71639 6.7626 4.80457 6.55097 4.91185 6.35069L2.26737 4.9341C2.06775 5.30676 1.90321 5.70144 1.77837 6.11361L4.64955 6.98327ZM2.25 8.75H2.33612V5.75H2.25V8.75ZM2.33612 7.25H2.25V10.25H2.33612V7.25ZM4.91185 9.64931C4.80457 9.44903 4.71639 9.2374 4.64955 9.01673L1.77837 9.88638C1.90321 10.2986 2.06775 10.6932 2.26737 11.0659L4.91185 9.64931ZM2.33612 10.25C2.16134 10.25 2.02001 10.183 1.93121 10.1098C1.84776 10.041 1.80113 9.96153 1.77837 9.88638L4.64955 9.01673C4.37606 8.11378 3.53332 7.25 2.33612 7.25V10.25ZM0 8C0 9.24264 1.00736 10.25 2.25 10.25V7.25C2.66421 7.25 3 7.58578 3 8H0ZM2.25 5.75C1.00736 5.75 0 6.75736 0 8H3C3 8.41421 2.66421 8.75 2.25 8.75V5.75ZM1.77837 6.11361C1.80113 6.03847 1.84776 5.95896 1.93121 5.89018C2.02001 5.817 2.16134 5.75 2.33612 5.75V8.75C3.53332 8.75 4.37606 7.88622 4.64955 6.98327L1.77837 6.11361ZM2.40431 5.58629C2.2809 5.46288 2.22828 5.3157 2.21722 5.20102C2.20681 5.0932 2.2301 5.00368 2.26737 4.9341L4.91185 6.35069C5.35793 5.51796 5.37184 4.31118 4.52563 3.46497L2.40431 5.58629ZM2.34315 2.34315C1.46447 3.22182 1.46447 4.64645 2.34315 5.52513L4.46447 3.40381C4.75736 3.6967 4.75736 4.17157 4.46447 4.46447L2.34315 2.34315ZM5.52513 2.34315C4.64645 1.46447 3.22183 1.46447 2.34315 2.34315L4.46447 4.46447C4.17157 4.75736 3.6967 4.75736 3.40381 4.46447L5.52513 2.34315ZM4.9341 2.26737C5.00368 2.2301 5.0932 2.20681 5.20102 2.21722C5.3157 2.22828 5.46288 2.28089 5.58629 2.40431L3.46497 4.52563C4.31118 5.37184 5.51796 5.35793 6.35069 4.91185L4.9341 2.26737ZM5.75 2.33612C5.75 2.16134 5.817 2.02001 5.89019 1.93121C5.95896 1.84776 6.03847 1.80113 6.11362 1.77837L6.98327 4.64955C7.88622 4.37606 8.75 3.53332 8.75 2.33612H5.75ZM8 0C6.75736 0 5.75 1.00736 5.75 2.25H8.75C8.75 2.66421 8.41422 3 8 3V0ZM10.25 2.25C10.25 1.00736 9.24264 0 8 0V3C7.58579 3 7.25 2.66421 7.25 2.25H10.25ZM9.88638 1.77837C9.96153 1.80113 10.041 1.84776 10.1098 1.93121C10.183 2.02001 10.25 2.16133 10.25 2.33612H7.25C7.25 3.53332 8.11378 4.37606 9.01673 4.64955L9.88638 1.77837ZM10.4137 2.40431C10.5371 2.28089 10.6843 2.22828 10.799 2.21722C10.9068 2.20681 10.9963 2.2301 11.0659 2.26737L9.64931 4.91185C10.482 5.35793 11.6888 5.37184 12.535 4.52563L10.4137 2.40431ZM13.6569 2.34315C12.7782 1.46447 11.3536 1.46446 10.4749 2.34315L12.5962 4.46447C12.3033 4.75736 11.8284 4.75736 11.5355 4.46447L13.6569 2.34315ZM13.6569 5.52513C14.5355 4.64645 14.5355 3.22182 13.6569 2.34315L11.5355 4.46447C11.2426 4.17157 11.2426 3.6967 11.5355 3.40381L13.6569 5.52513ZM13.7326 4.9341C13.7699 5.00368 13.7932 5.0932 13.7828 5.20102C13.7717 5.3157 13.7191 5.46288 13.5957 5.58629L11.4744 3.46497C10.6282 4.31118 10.6421 5.51796 11.0881 6.35069L13.7326 4.9341ZM13.6639 5.75C13.8387 5.75 13.98 5.817 14.0688 5.89018C14.1522 5.95896 14.1989 6.03847 14.2216 6.11361L11.3504 6.98327C11.6239 7.88622 12.4667 8.75 13.6639 8.75V5.75ZM16 8C16 6.75736 14.9926 5.75 13.75 5.75V8.75C13.3358 8.75 13 8.41421 13 8H16ZM13.75 10.25C14.9926 10.25 16 9.24264 16 8H13C13 7.58579 13.3358 7.25 13.75 7.25V10.25ZM14.2216 9.88638C14.1989 9.96153 14.1522 10.041 14.0688 10.1098C13.98 10.183 13.8387 10.25 13.6639 10.25V7.25C12.4667 7.25 11.6239 8.11378 11.3504 9.01673L14.2216 9.88638ZM13.5957 10.4137C13.7191 10.5371 13.7717 10.6843 13.7828 10.799C13.7932 10.9068 13.7699 10.9963 13.7326 11.0659L11.0881 9.64931C10.6421 10.482 10.6282 11.6888 11.4744 12.535L13.5957 10.4137ZM13.6569 13.6569C14.5355 12.7782 14.5355 11.3536 13.6569 10.4749L11.5355 12.5962C11.2426 12.3033 11.2426 11.8284 11.5355 11.5355L13.6569 13.6569ZM10.4749 13.6569C11.3536 14.5355 12.7782 14.5355 13.6569 13.6569L11.5355 11.5355C11.8284 11.2426 12.3033 11.2426 12.5962 11.5355L10.4749 13.6569ZM11.0659 13.7326C10.9963 13.7699 10.9068 13.7932 10.799 13.7828C10.6843 13.7717 10.5371 13.7191 10.4137 13.5957L12.535 11.4744C11.6888 10.6282 10.482 10.6421 9.64931 11.0881L11.0659 13.7326ZM10.25 13.6639C10.25 13.8387 10.183 13.98 10.1098 14.0688C10.041 14.1522 9.96153 14.1989 9.88638 14.2216L9.01673 11.3504C8.11378 11.6239 7.25 12.4667 7.25 13.6639H10.25ZM8 16C9.24264 16 10.25 14.9926 10.25 13.75H7.25C7.25 13.3358 7.58579 13 8 13V16ZM5.75 13.75C5.75 14.9926 6.75736 16 8 16V13C8.41421 13 8.75 13.3358 8.75 13.75H5.75ZM6.11362 14.2216C6.03847 14.1989 5.95896 14.1522 5.89019 14.0688C5.817 13.98 5.75 13.8387 5.75 13.6639H8.75C8.75 12.4667 7.88622 11.6239 6.98327 11.3504L6.11362 14.2216ZM5.58629 13.5957C5.46287 13.7191 5.3157 13.7717 5.20102 13.7828C5.0932 13.7932 5.00368 13.7699 4.9341 13.7326L6.35069 11.0881C5.51796 10.6421 4.31118 10.6282 3.46497 11.4744L5.58629 13.5957ZM2.34315 13.6569C3.22182 14.5355 4.64644 14.5355 5.52513 13.6569L3.40381 11.5355C3.6967 11.2426 4.17157 11.2426 4.46447 11.5355L2.34315 13.6569ZM4.52563 12.535C5.37184 11.6888 5.35793 10.482 4.91185 9.64931L2.26737 11.0659C2.2301 10.9963 2.20681 10.9068 2.21722 10.799C2.22828 10.6843 2.28089 10.5371 2.40431 10.4137L4.52563 12.535ZM2.34315 10.4749C1.46447 11.3536 1.46447 12.7782 2.34315 13.6569L4.46447 11.5355C4.75736 11.8284 4.75736 12.3033 4.46447 12.5962L2.34315 10.4749Z" fill="#8296AA" mask="url(#path-2-outside-1_7724_10350)"/>
        <circle cx="8" cy="8" r="2" stroke="#8296AA" stroke-width="1.5" stroke-linecap="round" stroke-linejoin="round"/>
    </g>
    <defs>
        <clipPath id="clip0_7724_10350">
            <rect width="16" height="16" fill="white"/>
        </clipPath>
    </defs>
</svg>
