<svg width="105" height="60" viewBox="0 0 105 60" fill="none" xmlns="http://www.w3.org/2000/svg">
<g clip-path="url(#clip0_11820_24256)">
<path d="M54.6738 9.99951H53.6035V49.9995H54.6738V42.3156H68.3401V37.6614H57.8022V32.2608H66.817V27.5626H57.8022V22.3815H68.3401V17.6834H54.6738V9.99951Z" fill="#6AB023"/>
<path d="M12.1114 32.7879L8.24198 26.07L3.26119 17.7714L3.17886 17.6836H-0.9375V42.3159H3.63166V27.1677L7.04823 33.0513L12.5642 42.3159H16.7217V17.6836H12.1114V32.7879Z" fill="#313334"/>
<path d="M19.2734 42.3159H34.4216V37.6616H23.8838V32.261H32.8986V27.5628H23.8838V22.3817H34.4216V17.6836H19.2734V42.3159Z" fill="#313334"/>
<path d="M36.2754 22.4256H41.5855V42.3159H46.1958V22.4256H51.4236V17.6836H36.2754V22.4256Z" fill="#313334"/>
<path d="M83.6953 32.8318L79.8259 26.1139L74.8452 17.8154L74.7628 17.7275H70.6465V42.3598H75.2156V27.2116L78.6322 33.0953L84.1481 42.3598H88.3056V17.7275H83.6953V32.8318Z" fill="#6AB023"/>
<path d="M90.1992 17.7275V22.4696H95.4682V42.3598H100.078V22.4696H105.347V17.7275H90.1992Z" fill="#6AB023"/>
</g>
<defs>
<clipPath id="clip0_11820_24256">
<rect width="105" height="60" fill="white"/>
</clipPath>
</defs>
</svg>
