<svg width="120" height="60" viewBox="0 0 120 60" fill="none" xmlns="http://www.w3.org/2000/svg">
<path fill-rule="evenodd" clip-rule="evenodd" d="M115.765 30.9419L119.062 36.6414H115.311L112.184 31.3058H112.127V36.6414H108.717V22.7566H113.776C114.969 22.6959 116.106 23.0597 117.072 23.7872C117.925 24.5755 118.38 25.7881 118.323 27.0008C118.323 27.9103 118.096 28.8198 117.584 29.608C117.186 30.3356 116.504 30.8207 115.765 30.9419ZM114.628 26.3945C114.514 26.152 114.287 25.97 114.117 25.8488C113.889 25.7276 113.604 25.6669 113.377 25.6062C113.093 25.5457 112.809 25.5457 112.524 25.5457H112.184V29.0017H112.524C112.809 29.0017 113.093 29.0017 113.377 28.9411C113.662 28.8804 113.889 28.8198 114.117 28.6985C114.344 28.5772 114.514 28.3953 114.628 28.1528C114.912 27.6071 114.912 26.9402 114.628 26.3945ZM99.2236 22.8171H106.67V25.9094H102.634V28.1528H106.67V31.3058H102.634V33.5491H106.67V36.7021H99.2236V22.8171ZM50.1681 25.8488H46.1322V28.0922H50.1681V31.2451H46.1322V33.4885H50.1681V36.6414H42.7216V22.7566H50.1681V25.8488ZM37.5489 36.7021L34.4226 31.3663H34.3657V36.7021H30.9551V22.8171H36.0141C37.2079 22.7566 38.3447 23.1204 39.3111 23.8479C40.1637 24.6361 40.6185 25.8488 40.5616 27.0614C40.5616 27.9709 40.3342 28.8804 39.8226 29.6687C39.3111 30.3962 38.5721 30.8813 37.7194 31.0025L41.3005 36.7021H37.5489ZM36.9237 26.3945C36.8099 26.152 36.5826 25.97 36.412 25.8488C36.1846 25.7276 35.9005 25.6669 35.6731 25.6062C35.3889 25.5457 35.1046 25.5457 34.8205 25.5457H34.4794V29.0017H34.8205C35.1046 29.0017 35.3889 29.0017 35.6731 28.9411C35.9573 28.8804 36.1846 28.8198 36.412 28.6985C36.6394 28.5772 36.8099 28.3953 36.9237 28.1528C37.151 27.6071 37.151 26.9402 36.9237 26.3945ZM59.0356 23.3022C59.7745 23.666 60.4567 24.1511 61.025 24.7574C61.5935 25.4243 62.0483 26.152 62.3324 27.0008C62.9577 28.7591 62.9577 30.6994 62.3324 32.3971C62.0483 33.246 61.5935 33.9735 61.025 34.6405C60.4567 35.2469 59.7745 35.7925 59.0356 36.0957C58.2966 36.4595 57.5008 36.6414 56.705 36.6414H52.2712V22.7566H56.705C57.5008 22.7566 58.2966 22.9385 59.0356 23.3022ZM55.3977 25.8488V33.6098H56.0797C56.5345 33.6098 56.9892 33.5491 57.444 33.3672C58.2966 33.0641 58.9787 32.3364 59.3198 31.427C59.4903 30.8813 59.604 30.275 59.604 29.7293C59.6609 28.6985 59.3198 27.6678 58.6377 26.8796C57.9556 26.152 57.0461 25.7881 56.1366 25.8488H55.3977ZM76.941 25.8488H74.1558V36.7021H70.7452V25.8488H67.9599V22.8171H76.941V25.8488ZM82.3984 36.7021H78.9871V22.7566H82.3984V36.7021ZM86.2636 24.6968C86.8315 24.0905 87.5706 23.6054 88.3662 23.2416C89.2193 22.8778 90.1288 22.7566 91.0384 22.7566C92.1749 22.6959 93.3123 23.0597 94.3349 23.666C95.301 24.333 96.0401 25.2425 96.4949 26.3945L93.5393 27.7284C93.3688 27.1221 92.9706 26.5763 92.5158 26.2126C92.061 25.8488 91.4932 25.6669 90.9245 25.6669C90.4697 25.6669 90.0149 25.7881 89.6175 26.0307C89.2193 26.2732 88.8784 26.5763 88.594 27.0008C88.3097 27.4252 88.1393 27.8497 87.9688 28.3348C87.6845 29.3049 87.6845 30.3356 87.9688 31.3058C88.0827 31.7908 88.3097 32.2152 88.594 32.6396C88.8784 33.0034 89.2193 33.3672 89.6175 33.5491C90.0149 33.7916 90.5262 33.913 90.981 33.913C91.6062 33.913 92.2323 33.731 92.7436 33.3066C93.1984 32.8822 93.4827 32.2759 93.5393 31.6089H90.981V29.0017H97.234C97.234 29.9718 97.1201 30.9419 96.9497 31.8514C96.7793 32.7003 96.4384 33.4279 95.9836 34.1554C95.4149 35.0043 94.6758 35.6713 93.8236 36.0957C92.914 36.5201 91.948 36.7626 90.981 36.7021C90.0715 36.7021 89.2193 36.5201 88.3662 36.217C87.5706 35.9138 86.8888 35.4287 86.3201 34.8224C85.7515 34.2161 85.2967 33.4885 85.0132 32.6396C84.6715 31.7302 84.5584 30.8207 84.5584 29.8505C84.5584 28.8804 84.7288 27.9103 85.0132 27.0008C85.2402 26.0913 85.6949 25.3638 86.2636 24.6968Z" fill="#313334"/>
<path fill-rule="evenodd" clip-rule="evenodd" d="M16.9155 25.8486C16.9155 26.2123 16.9155 26.6368 16.4039 26.8187C16.0629 26.94 15.665 26.4549 15.665 26.1518C15.8355 25.9092 16.0629 25.7273 16.2903 25.6667C16.8018 25.4241 16.9155 25.3635 16.9155 25.8486ZM7.42273 26.8187C6.85429 26.6368 6.91116 26.2123 6.91116 25.8486C6.91116 25.3635 7.02482 25.4241 7.53638 25.6667C7.82064 25.7879 7.99116 25.9699 8.16169 26.1518C8.16169 26.4549 7.76377 26.94 7.42273 26.8187ZM19.9851 37.8538C20.3261 37.6719 20.6103 37.4294 20.8945 37.1868C22.2019 35.7317 22.4293 34.034 22.5998 32.0331C22.6566 31.5481 22.6566 31.0023 22.6566 30.4566C22.6566 30.396 22.6566 30.0322 22.7135 30.0322C22.8272 30.1535 22.884 30.2747 22.9409 30.4566C23.1114 30.9417 23.2251 31.3661 23.2251 31.8512C23.3957 32.8213 23.3957 33.7914 23.2819 34.7615C23.2251 35.1254 23.1114 35.4285 22.9978 35.7317C22.2019 37.1868 21.2924 38.5208 20.4398 39.9154C20.383 40.0366 20.3261 39.794 20.2692 39.794L20.2124 39.7334C20.0418 39.6122 19.9282 39.6122 19.8713 39.6728C19.8145 39.7334 19.8145 39.794 19.8145 39.8547C19.5871 40.3397 19.2461 41.0674 19.0187 41.5524C18.9618 41.613 18.9051 41.6737 18.7913 41.613C18.7345 41.613 18.7345 41.5524 18.7345 41.4918C18.7345 40.946 18.7345 40.4004 18.7345 39.8547C18.7345 39.4909 18.7345 39.1271 18.2798 39.1271C17.825 39.1271 17.825 39.5515 17.825 39.8547C17.825 40.1578 17.825 40.461 17.825 40.8248C17.825 40.8855 17.7682 41.0067 17.6545 41.0067C17.5977 41.0067 17.5977 41.0067 17.5977 41.0067C17.2565 40.7036 16.8587 40.461 16.4039 40.3397C15.7218 40.0366 14.926 40.1578 14.3576 40.5823L14.4712 40.5216C14.9829 40.0366 15.7218 39.794 16.4039 39.9759C16.5745 40.0366 16.8018 40.0366 16.9724 40.0366C17.0292 40.0366 17.1429 39.9759 17.086 39.8547V39.794C16.8018 39.0665 16.006 36.2774 17.7113 35.3678C17.7682 35.3678 17.7682 35.3073 17.7682 35.2466C17.825 34.7615 18.6777 32.5787 16.3471 31.1236C16.006 31.4874 15.5513 32.2756 14.926 32.8213C15.9492 33.0638 16.5176 32.3969 16.9724 31.9724C16.745 33.2457 15.8355 33.3064 15.0965 33.7914C15.7218 33.4883 16.3471 33.9127 17.1429 33.4883C16.5745 34.5796 15.4945 34.034 14.8692 34.6403C15.4945 35.0647 16.1197 34.8222 16.6881 34.7615C16.8587 34.7615 17.0292 34.7615 17.1998 34.7615C17.086 35.0041 16.9155 35.186 16.745 35.3678C16.5176 35.5497 16.2334 35.6711 16.006 35.7923C15.7218 35.9136 15.4376 35.9136 15.1534 35.7923C14.3007 35.4892 13.5049 35.186 12.6523 34.8222C12.4818 34.7615 12.3681 34.5796 12.3112 34.3977C12.2544 34.0946 12.3112 33.7914 12.3112 33.4883C12.2544 33.1245 12.4818 32.7606 12.8228 32.7001C13.6186 32.4575 14.2439 31.9724 14.7555 31.3055C14.926 31.063 15.0397 30.7598 15.0965 30.5173C15.0965 30.2747 15.0397 29.9715 14.9829 29.7291C14.926 29.5472 14.926 29.3046 14.9829 29.1228V29.0621L15.1534 28.2739C15.2102 28.0313 15.3239 27.8494 15.5513 27.6675L15.6081 27.6069L15.665 27.5463C16.006 27.3644 16.2903 27.2431 16.6313 27.1219C17.825 26.6368 18.7345 25.5454 19.1324 24.2721C19.3029 23.8477 19.3029 23.3627 19.2461 22.9382C19.1324 23.1808 18.9618 23.6658 18.8482 23.9083C18.7345 24.3328 18.3366 24.5753 17.9387 24.5147C16.8587 24.5147 15.7786 24.6966 15.2102 25.9092C14.9829 26.5762 14.4712 27.0612 13.9028 27.425C13.9028 27.0612 13.9597 26.6974 14.0733 26.3942C13.5618 26.1518 13.7892 25.8486 14.0165 25.5454C14.3576 25.121 14.7555 24.6966 15.1534 24.2721C14.8124 24.2115 14.5281 24.0296 14.3007 23.7264H16.4039V23.6658C15.7786 23.5446 15.1534 23.302 14.5281 22.9382C15.4945 22.2712 17.5977 22.635 17.9387 22.5138C17.9387 22.4531 17.6545 22.3319 17.3703 22.2712C16.6881 22.0893 16.4039 22.0287 15.7786 21.8468C15.0965 21.6649 14.4712 21.3618 13.846 20.998H16.6313C15.665 20.3917 14.6418 20.0278 13.5618 19.9066C12.9365 19.8459 12.4818 19.8459 12.1407 19.8459V19.664V19.8459C11.7428 19.8459 11.3449 19.8459 10.7196 19.9066C9.6396 20.0278 8.5596 20.3917 7.65012 20.998H10.4354C9.81012 21.3618 9.1849 21.6649 8.50273 21.8468C7.82064 22.0287 7.59325 22.0893 6.91116 22.2712C6.6269 22.3926 6.34273 22.4531 6.34273 22.5138C6.68377 22.635 8.73012 22.3319 9.75333 22.9382C9.1849 23.302 8.5596 23.5446 7.87751 23.6658V23.7264H9.98064C9.75333 23.969 9.41221 24.1509 9.12803 24.2721C9.52594 24.6966 9.86699 25.121 10.2649 25.5454C10.5491 25.8486 10.7196 26.1518 10.208 26.3942C10.3218 26.6974 10.3786 27.0612 10.3786 27.425C9.81012 27.1219 9.35542 26.5762 9.07116 25.9092C8.50273 24.6966 7.42273 24.5147 6.34273 24.5147C5.94482 24.5753 5.60377 24.3328 5.43325 23.9083C5.31951 23.6658 5.14899 23.1808 5.03534 22.9382C4.97847 23.3627 4.97847 23.8477 5.14899 24.2721C5.5469 25.606 6.45638 26.6368 7.65012 27.1219C7.99116 27.2431 8.33221 27.3644 8.61647 27.5463C8.61647 27.5463 8.67325 27.5463 8.67325 27.6069C8.67325 27.6069 8.73012 27.6069 8.73012 27.6675C8.90064 27.7888 9.07116 28.0313 9.12803 28.2739L9.29855 29.0621V29.1228C9.35542 29.3046 9.35542 29.5472 9.29855 29.7291C9.1849 29.9715 9.1849 30.2747 9.1849 30.5173C9.24168 30.8204 9.35542 31.063 9.52594 31.3055C9.98064 31.9724 10.6628 32.5182 11.4586 32.7001C11.7997 32.7606 12.027 33.1245 11.9702 33.4883C11.9702 33.7914 12.027 34.0946 11.9702 34.3977C11.9133 34.5796 11.7997 34.7009 11.6292 34.8222C10.8333 35.186 9.98064 35.4892 9.12803 35.7923C8.84377 35.8529 8.5596 35.8529 8.27534 35.7923C7.99116 35.7317 7.76377 35.5497 7.53638 35.3678C7.36586 35.186 7.19534 35.0041 7.08168 34.7615C7.25221 34.7009 7.42273 34.7009 7.59325 34.7615C8.16168 34.8222 8.78699 35.0647 9.41221 34.6403C8.73012 34.034 7.65012 34.5796 7.13855 33.4883C7.87751 33.9127 8.5596 33.4883 9.1849 33.7914C8.44594 33.3064 7.53638 33.2457 7.30908 31.9724C7.82064 32.3969 8.33221 33.0638 9.35542 32.8213C8.78699 32.2756 8.33221 31.4874 7.93429 31.1236C5.60377 32.5787 6.45638 34.7615 6.51325 35.2466C6.51325 35.3073 6.57012 35.3678 6.57012 35.3678C8.27534 36.2774 7.42273 39.0665 7.19534 39.794C7.19534 39.8547 7.19534 39.9154 7.19534 39.9154C7.19534 39.9759 7.25221 39.9759 7.30908 39.9759C7.4796 39.9759 7.70699 39.9759 7.87751 39.9154C8.5596 39.7334 9.29855 39.9759 9.81012 40.461L9.92385 40.5216C9.29855 40.0973 8.5596 39.9759 7.87751 40.2791C7.4796 40.461 7.08169 40.7036 6.68377 40.946C6.6269 41.0067 6.51325 40.946 6.45638 40.8855V40.8248C6.45638 40.461 6.45638 40.1578 6.45638 39.8547C6.45638 39.4909 6.45638 39.1271 6.00169 39.1271C5.54691 39.1271 5.54691 39.5515 5.54691 39.8547C5.54691 40.4004 5.54691 40.946 5.54691 41.4918C5.54691 41.5524 5.49004 41.6737 5.37638 41.6737C5.31951 41.6737 5.26273 41.6737 5.26273 41.613C5.03534 41.1279 4.63743 40.4004 4.46691 39.9154C4.46691 39.8547 4.41004 39.794 4.41004 39.7334C4.29638 39.6728 4.23952 39.6728 4.06899 39.794L4.01212 39.8547C3.95534 39.9154 3.89847 40.0973 3.8416 39.9759C2.98899 38.5814 2.07952 37.2475 1.28369 35.7923C1.11317 35.4892 0.999433 35.186 0.999433 34.8222C0.885788 33.8521 0.942649 32.882 1.0563 31.9118C1.11317 31.4267 1.17004 30.9417 1.34056 30.5173C1.39735 30.396 1.45421 30.2141 1.56787 30.0929C1.62474 30.0929 1.62474 30.4566 1.62474 30.5173C1.62474 31.063 1.62474 31.5481 1.6816 32.0937C1.85213 34.034 2.07952 35.7317 3.38691 37.2475C3.67108 37.5506 3.95534 37.7932 4.29638 37.9145C4.35317 37.9751 4.46691 37.9145 4.46691 37.8538C4.46691 37.7932 4.46691 37.7932 4.46691 37.7326C4.06899 36.8837 3.67108 36.0348 3.33004 35.1254C2.98899 34.2158 2.7616 33.2457 2.53421 32.3363C2.53421 32.2756 2.53421 32.1543 2.64795 32.1543C2.70473 32.1543 2.70473 32.1543 2.7616 32.1543C2.93213 32.215 3.21638 32.3363 3.38691 32.3969C3.44369 32.4575 3.55743 32.3969 3.55743 32.2756C3.55743 32.215 3.55743 32.215 3.55743 32.1543C3.33004 31.2449 2.53421 28.6376 2.53421 28.6376C2.59108 28.6983 3.04578 29.4259 3.10265 29.4865C3.50056 30.1535 3.78482 30.8204 4.06899 31.4874C4.18265 31.8512 4.29638 32.0937 4.35317 32.2756C4.35317 32.3363 4.41004 32.3969 4.35317 32.4575C3.67108 33.0638 4.23951 34.2158 4.52377 34.5796C4.9216 35.0647 5.20586 35.6711 5.31951 36.2774C5.37638 36.3986 5.43325 36.5805 5.49004 36.7624C5.49004 36.8231 5.60377 36.8837 5.66056 36.8837C5.71743 36.8837 5.7743 36.8231 5.7743 36.7624C5.71743 35.9742 5.60377 34.8828 5.31951 34.5796C4.9216 34.2158 5.03534 32.882 5.43325 32.6394C5.83116 32.3969 5.94482 32.1543 5.71743 31.7905C5.66056 31.73 5.71743 31.6086 5.7743 31.5481L7.65012 30.396C7.70699 30.3354 7.76377 30.2748 7.7069 30.1535C7.7069 30.0929 7.65012 30.0929 7.59325 30.0929C6.96795 30.0322 6.28586 30.2141 5.83116 30.6385C5.43325 30.8811 4.9216 30.7598 4.6943 30.3354C4.63743 30.2747 4.63743 30.2141 4.63743 30.1535C4.58056 30.0322 4.58056 29.9715 4.52377 29.8503C4.52377 29.7896 4.58056 29.6684 4.63743 29.6684C5.54691 29.4259 5.66056 29.3652 5.71743 29.0621C5.71743 29.0014 5.66056 28.8802 5.60377 28.8802C5.26273 28.9409 4.97847 28.8802 4.6943 28.759C4.52377 28.577 4.41004 28.3345 4.35317 28.0313C4.35317 27.9708 4.35317 27.8494 4.46691 27.8494C4.52377 27.8494 4.52377 27.8494 4.58056 27.8494C4.9216 27.9707 4.97847 27.9707 5.14899 27.8494C5.20586 27.7888 5.20586 27.6675 5.14899 27.6069C5.09212 27.5463 5.09221 27.4857 5.03534 27.4857C4.35317 26.94 3.33004 23.8477 3.38691 22.9382C3.10265 23.1808 2.93213 23.4839 2.81847 23.8477C2.1363 23.5446 1.56787 23.4232 1.6816 22.3926L2.47743 22.8169C2.47743 22.8169 2.53421 22.5138 2.07952 22.15C1.17004 21.3618 1.0563 20.2704 0.999433 19.1184C0.942649 18.5727 1.34056 18.0876 1.85213 18.0269C2.07952 18.0269 2.25004 18.0876 2.42056 18.1482C4.18265 18.9971 6.57012 19.9066 8.5596 19.6035H8.61647C9.86699 19.3609 11.1175 19.179 12.3681 19.179C13.6186 19.179 14.8692 19.3609 16.1197 19.6035H16.1765C18.1661 19.8459 20.5535 18.9971 22.3156 18.1482C22.7704 17.845 23.3388 18.0269 23.623 18.512C23.7367 18.6939 23.7935 18.9365 23.7367 19.1184C23.7367 20.2704 23.5662 21.3618 22.6566 22.15C22.2588 22.5138 22.2588 22.8169 22.2588 22.8169L23.0545 22.3926C23.1683 23.4232 22.5998 23.5446 21.9177 23.8477C21.804 23.4839 21.6335 23.1808 21.3492 22.9382C21.4061 23.8477 20.383 26.8793 19.7008 27.4857C19.644 27.5463 19.5871 27.6069 19.5871 27.6069C19.5871 27.6675 19.5303 27.6675 19.5303 27.7282C19.5303 27.7888 19.5303 27.7888 19.5871 27.8494C19.7577 27.9707 19.8713 27.9707 20.1556 27.8494C20.2125 27.7888 20.3261 27.8494 20.3261 27.9101C20.3261 27.9708 20.3261 27.9708 20.3261 28.0313C20.2692 28.2739 20.1556 28.5164 19.9851 28.759C19.7008 28.8802 19.3598 28.9409 19.0756 28.8802C19.0187 28.8802 18.9051 28.9409 18.9051 29.0621C18.9618 29.3652 19.0756 29.4259 19.9851 29.6684C20.0418 29.6684 20.1556 29.7896 20.0987 29.8503C20.0987 29.9715 20.0418 30.0322 19.9851 30.1535C19.8713 30.6385 19.4166 30.8811 18.9618 30.6992C18.9051 30.6992 18.8482 30.6385 18.7913 30.6385C18.2798 30.2141 17.6545 30.0322 17.0292 30.0929C16.9724 30.0929 16.9155 30.2141 16.9155 30.2747C16.9155 30.3354 16.9724 30.3354 16.9724 30.396L18.8482 31.5481C18.9051 31.6086 18.9618 31.6693 18.9051 31.7905C18.6777 32.1543 18.7913 32.3969 19.1892 32.6394C19.644 32.882 19.7008 34.2158 19.3029 34.5796C19.0756 34.8222 18.9051 35.9136 18.8482 36.7624C18.8482 36.8231 18.9051 36.9443 19.0187 36.9443C19.0756 36.9443 19.1324 36.8837 19.1324 36.8231C19.1892 36.6412 19.2461 36.4593 19.3029 36.338C19.4734 35.7317 19.7577 35.1254 20.0987 34.6403C20.383 34.2765 20.8945 33.1245 20.2692 32.5182C20.2125 32.4575 20.2125 32.3969 20.2692 32.3363C20.3261 32.215 20.4398 31.9118 20.5535 31.5481C20.8377 30.8204 21.1787 30.1535 21.5198 29.5472C21.5766 29.4865 22.0314 28.759 22.0883 28.6983C22.0883 28.6983 21.2925 31.3661 21.0651 32.215C21.0651 32.2756 21.0651 32.3969 21.1787 32.3969C21.2356 32.3969 21.2356 32.3969 21.2925 32.3969C21.463 32.3363 21.7471 32.215 21.9177 32.1543C21.9745 32.1543 22.0883 32.1544 22.0883 32.2756C22.0883 32.3363 22.0883 32.3363 22.0883 32.3969C21.8609 33.3064 21.6335 34.2765 21.2925 35.186C20.9514 36.0955 20.5535 36.9443 20.1556 37.7932C20.0987 37.8538 20.1556 37.9751 20.2124 37.9751C19.8713 37.9145 19.9282 37.9145 19.9851 37.8538ZM7.82064 30.8811L7.76377 30.9417C7.76377 30.9417 7.82064 30.9417 7.82064 30.8811ZM4.46691 19.3609C4.63743 19.4215 4.75108 19.4215 4.9216 19.4821C4.80795 19.4215 4.63743 19.3609 4.46691 19.3609ZM4.29638 19.6035C2.25004 19.4215 2.64795 21.0586 3.04578 22.0287L3.38691 22.635L3.44369 22.6957C3.95534 23.969 4.35317 26.6974 6.8543 27.7888C6.74064 27.7282 6.68377 27.6675 6.57012 27.6069C5.88795 26.94 5.26273 26.1518 4.86482 25.3029C3.78482 22.9382 4.06899 21.483 3.89847 20.8767C4.12586 20.9373 4.86482 21.1192 5.03534 21.1799C5.03534 21.1192 3.72795 20.5129 3.33004 20.331C3.50056 20.2097 3.67108 20.1491 3.89847 20.0885C4.75108 19.9672 5.09221 20.2704 5.66056 20.3917C6.05847 20.4522 6.3996 20.3917 6.79743 20.2704L4.29638 19.6035ZM16.006 30.8811C16.006 30.8811 16.0629 30.8811 16.0629 30.9417L16.006 30.8811ZM18.9051 19.4821C19.0187 19.4215 19.1892 19.4215 19.3598 19.3609C19.1892 19.3609 19.0756 19.4215 18.9051 19.4821ZM20.4398 22.635C20.4398 22.5744 20.4966 22.5744 20.4966 22.5138L20.8377 21.9075C21.2356 20.9373 21.6335 19.3609 19.5871 19.4821L17.1429 20.0885C17.4839 20.2097 17.8818 20.2097 18.2798 20.2097C18.8482 20.1491 19.1892 19.8459 20.0418 19.9066C20.2125 19.9066 20.4398 20.0278 20.6103 20.1491C20.2124 20.3917 18.9051 20.998 18.9051 20.998C19.0756 20.9373 19.8145 20.7555 20.0418 20.6948C19.9282 21.3011 20.2125 22.7563 19.0756 25.121C18.6777 26.0304 18.0524 26.8187 17.3703 27.425C17.2565 27.4857 17.1998 27.5463 17.086 27.6069C19.4734 26.6974 19.9282 23.969 20.4398 22.635ZM11.9133 31.063C11.6292 31.063 11.288 31.063 10.8901 31.063C10.4923 31.063 10.1512 31.0023 9.81012 30.8204C9.6396 30.6992 9.52594 30.4566 9.58273 30.1535C9.58273 29.8503 9.98064 29.6078 9.98064 29.6078C9.98064 30.396 10.6059 30.5779 11.9133 30.5779C13.2207 30.5779 13.846 30.3354 13.846 29.6078C13.846 29.6078 14.2439 29.8503 14.2439 30.1535C14.3007 30.396 14.1871 30.6385 14.0165 30.8204C13.6755 31.0023 13.2776 31.063 12.9365 31.063C12.5386 31.063 12.1975 31.063 11.9133 31.063ZM11.9133 39.309C11.9702 40.3397 10.3218 40.4004 8.90064 39.5515C8.84377 39.2484 8.95751 38.7027 8.78699 38.5814C8.5596 38.3995 8.16168 38.642 7.93429 38.8239C7.70699 39.0058 7.53638 39.309 7.30908 39.4909C7.42273 37.9145 8.90064 36.4593 11.1744 36.338C11.4018 36.338 11.6859 36.2774 11.9133 36.2774C12.1407 36.2774 12.4249 36.2774 12.6523 36.338C14.926 36.4593 16.4039 37.9145 16.5176 39.4909C16.2903 39.309 16.1197 39.0058 15.8924 38.8239C15.665 38.642 15.2671 38.3995 15.0397 38.5814C14.8692 38.7027 15.0397 39.2484 14.926 39.5515C13.5049 40.461 11.8565 40.3397 11.9133 39.309Z" fill="#D71920"/>
</svg>
