<svg width="33" height="32" viewBox="0 0 33 32" fill="none" xmlns="http://www.w3.org/2000/svg">
<g clip-path="url(#clip0_12146_29274)">
<path fill-rule="evenodd" clip-rule="evenodd" d="M9.35026 10.6671H12.0616C13.06 10.6523 14.1558 10.8902 14.1558 11.9975C14.1558 12.4731 13.8473 12.8595 13.3928 13.0676C14.0095 13.231 14.3913 13.7216 14.3913 14.3235C14.3913 15.587 13.3765 15.9733 12.1345 15.9733H9.35026V10.6671ZM10.86 12.7555H12.0291C12.2888 12.7555 12.6459 12.6291 12.6459 12.2501C12.6459 11.8637 12.3455 11.7374 12.0291 11.7374H10.86V12.7555ZM12.0696 14.866H10.86V13.6472H12.0696C12.5242 13.6472 12.8813 13.8033 12.8813 14.2715C12.8813 14.71 12.5485 14.866 12.0696 14.866Z" fill="#336699"/>
<path fill-rule="evenodd" clip-rule="evenodd" d="M18.3195 10.6671H16.7854L14.6179 15.9733H16.1684L16.5337 15.0221H18.5549L18.9121 15.9733H20.4869L18.3195 10.6671ZM18.1977 13.9967H16.8827L17.5403 12.1388H17.5564L18.1977 13.9967Z" fill="#336699"/>
<path d="M20.9084 10.6671H22.459L24.4722 13.9371H24.4883V10.6671H25.9091V15.9733H24.3584L22.3453 12.6664H22.3292V15.9733H20.9084V10.6671Z" fill="#336699"/>
<path d="M26.9394 10.6671H28.4493V12.7035L30.3569 10.6671H32.2321L30.089 12.7555L32.5 15.9733H30.6249L29.0663 13.744L28.4494 14.3385V15.9734H26.9395L26.9394 10.6671Z" fill="#336699"/>
<path d="M5.65552 18.6351H4.4785V21.2621H3.45102V18.6351H2.27414V17.8764H5.65552V18.6351Z" fill="#336699"/>
<path fill-rule="evenodd" clip-rule="evenodd" d="M8.11967 17.8764H6.10854V21.2622H7.13622V20.0293H7.91525C8.39595 20.0293 8.46202 20.3802 8.48978 20.7216C8.49143 20.7358 8.49321 20.7553 8.49533 20.7786C8.5074 20.9109 8.53061 21.1654 8.60572 21.2622H9.62256C9.49922 21.1519 9.47274 20.7428 9.46061 20.5554C9.45916 20.533 9.45792 20.5138 9.45674 20.4987C9.42349 20.1761 9.30205 19.7732 8.88221 19.6878V19.6784C9.2967 19.5408 9.50091 19.1946 9.50091 18.8295C9.50091 18.1468 8.81585 17.8764 8.11967 17.8764ZM7.99809 19.3463H7.13644L7.13637 18.5829H7.95399C8.24126 18.5829 8.4733 18.6969 8.4733 18.9481C8.4733 19.2041 8.30755 19.3463 7.99809 19.3463Z" fill="#336699"/>
<path fill-rule="evenodd" clip-rule="evenodd" d="M12.2137 17.8764H11.1695L9.69421 21.2621H10.7496L10.9982 20.6551H12.374L12.6169 21.2621H13.6889L12.2137 17.8764ZM12.131 20.0007H11.2358L11.6834 18.8151H11.6944L12.131 20.0007Z" fill="#336699"/>
<path d="M13.9763 17.8764H15.0315L16.4019 19.9628H16.4131V17.8764H17.38V21.2621H16.3247L14.9543 19.1521H14.9432V21.2621H13.9763V17.8764Z" fill="#336699"/>
<path d="M18.8826 20.124C18.9048 20.5223 19.1921 20.6503 19.6286 20.6503C19.9379 20.6503 20.2585 20.5555 20.2585 20.3042C20.2585 20.0055 19.6948 19.9486 19.1259 19.8109C18.5623 19.6735 17.971 19.4555 17.971 18.8341C17.971 18.0945 18.8385 17.8052 19.579 17.8052C20.3635 17.8052 21.1535 18.1322 21.1591 18.8957H20.1314C20.148 18.5875 19.8109 18.488 19.496 18.488C19.275 18.488 18.9987 18.5543 18.9987 18.7773C18.9987 19.038 19.5678 19.0854 20.1424 19.223C20.7116 19.3605 21.2861 19.588 21.2861 20.1997C21.2861 21.0581 20.4352 21.3332 19.5678 21.3332C18.6617 21.3332 17.8607 20.9917 17.855 20.124L18.8826 20.124Z" fill="#336699"/>
<path d="M21.7668 17.8764H24.6731V18.5829H22.7946V19.2753H24.4189V19.9579H22.7946V21.2621H21.7668V17.8764Z" fill="#336699"/>
<path d="M25.1429 17.8764H28.2866V18.5829H26.1705V19.1757H28.1043V19.8585H26.1705V20.5034H28.3419V21.262H25.1429L25.1429 17.8764Z" fill="#336699"/>
<path fill-rule="evenodd" clip-rule="evenodd" d="M30.9387 17.8764H28.9276V21.2622H29.9553V20.0293H30.7342C31.2149 20.0293 31.2812 20.3802 31.3088 20.7216C31.3104 20.736 31.3123 20.7557 31.3144 20.7794C31.3265 20.9119 31.3496 21.1656 31.4248 21.2622H32.4415C32.3184 21.1522 32.2919 20.7451 32.2797 20.557C32.2782 20.5339 32.2769 20.5142 32.2757 20.4987C32.2426 20.1761 32.121 19.7732 31.7011 19.6878V19.6784C32.1155 19.5408 32.3198 19.1946 32.3198 18.8295C32.3198 18.1468 31.6349 17.8764 30.9387 17.8764ZM30.8173 19.3463H29.9553V18.5829H30.7729C31.0604 18.5829 31.2922 18.6969 31.2922 18.9481C31.2922 19.2041 31.1266 19.3463 30.8173 19.3463Z" fill="#336699"/>
<path d="M0.5 10.6665H7.4925V11.8202H0.5V10.6665Z" fill="#336699"/>
<path d="M0.5 14.8195H7.4925V15.9732H0.5V14.8195Z" fill="#336699"/>
<path d="M0.5 12.7427H7.4925V13.8965H0.5V12.7427Z" fill="#336699"/>
</g>
<defs>
<clipPath id="clip0_12146_29274">
<rect width="32" height="32" fill="white" transform="translate(0.5)"/>
</clipPath>
</defs>
</svg>
