<svg width="33" height="32" viewBox="0 0 33 32" fill="none" xmlns="http://www.w3.org/2000/svg">
<g clip-path="url(#clip0_12146_29297)">
<path d="M17.4149 13.3529C15.9123 13.3529 14.6931 14.5238 14.6931 15.9689C14.6931 17.5053 15.8593 18.6538 17.4149 18.6538C18.9317 18.6538 20.1293 17.4901 20.1293 15.9991C20.1293 14.5169 18.9397 13.3529 17.4149 13.3529Z" fill="#FF6600"/>
<path d="M1.96322 13.4483H0.5V18.539H1.95557C2.72788 18.539 3.2864 18.3565 3.77637 17.9516C4.3577 17.4707 4.70244 16.7455 4.70244 15.9961C4.70244 14.4931 3.57681 13.4483 1.96322 13.4483ZM3.12687 17.2717C2.81228 17.5548 2.4072 17.6772 1.76347 17.6772H1.49605V14.3103H1.76347C2.4072 14.3103 2.79674 14.4249 3.12687 14.7223C3.47117 15.0277 3.6765 15.5005 3.6765 15.9888C3.6765 16.4782 3.47117 16.9675 3.12687 17.2717ZM5.16196 18.539H6.15644V13.4483H5.16208L5.16196 18.539ZM8.59102 15.401C7.99334 15.1802 7.81747 15.0345 7.81747 14.7607C7.81747 14.4398 8.13062 14.1958 8.55988 14.1958C8.85832 14.1958 9.10318 14.3178 9.36414 14.607L9.88388 13.9287C9.45531 13.5539 8.94272 13.3634 8.38351 13.3634C7.48138 13.3634 6.79209 13.9896 6.79209 14.8208C6.79209 15.5236 7.11327 15.8821 8.04723 16.2188C8.4377 16.3555 8.6362 16.4467 8.73595 16.509C8.93488 16.6388 9.03482 16.8213 9.03482 17.0349C9.03482 17.4478 8.70544 17.7526 8.26095 17.7526C7.78639 17.7526 7.40419 17.5162 7.17449 17.0736L6.53238 17.6926C6.99065 18.3633 7.54178 18.662 8.30017 18.662C9.33325 18.662 10.0598 17.9741 10.0598 16.9897C10.0598 16.1804 9.72398 15.8138 8.59102 15.401ZM10.3735 15.9961C10.3735 17.4939 11.5524 18.6538 13.0681 18.6538C13.4966 18.6538 13.8639 18.5693 14.3159 18.3564V17.1879C13.9174 17.5852 13.5653 17.7451 13.1135 17.7451C12.1113 17.7451 11.399 17.0198 11.399 15.9888C11.399 15.0122 12.1335 14.2411 13.0681 14.2411C13.5418 14.2411 13.9021 14.4089 14.3159 14.8135V13.6451C13.8797 13.4245 13.5194 13.3335 13.0908 13.3335C11.5829 13.3335 10.3735 14.5169 10.3735 15.9961ZM22.3817 16.8678L21.0194 13.4483H19.9325L22.0992 18.669H22.6345L24.8389 13.4482H23.7602L22.3817 16.8678ZM25.2915 18.539H28.1151V17.6772H26.2862V16.3022H28.0451V15.4402H26.2862V14.3103H28.1151V13.4484H25.2914L25.2915 18.539ZM32.0555 14.9507C32.0555 13.997 31.3982 13.4483 30.2496 13.4483H28.7723V18.539H29.7682V16.493H29.8986L31.2754 18.539H32.5L30.8918 16.3947C31.6429 16.2414 32.0555 15.7298 32.0555 14.9507ZM30.0579 15.7914H29.7682V14.2488H30.0738C30.6951 14.2488 31.0316 14.5091 31.0316 15.0045C31.0316 15.5156 30.6951 15.7914 30.0579 15.7914Z" fill="#FF6600"/>
</g>
<defs>
<clipPath id="clip0_12146_29297">
<rect width="32" height="32" fill="white" transform="translate(0.5)"/>
</clipPath>
</defs>
</svg>
