<svg width="33" height="32" viewBox="0 0 33 32" fill="none" xmlns="http://www.w3.org/2000/svg">
<path d="M19.2968 21.7398H13.0366V10.9268H19.2968V21.7398Z" fill="#6C6BBD"/>
<path d="M13.63 16.3334C13.63 14.0644 14.7332 12.0432 16.4512 10.7406C15.1949 9.78813 13.6094 9.21962 11.8862 9.21962C7.80682 9.21962 4.5 12.4045 4.5 16.3334C4.5 20.2624 7.80682 23.4473 11.8862 23.4473C13.6094 23.4473 15.1949 22.8788 16.4512 21.9263C14.7332 20.6237 13.63 18.6025 13.63 16.3334Z" fill="#EB001B"/>
<path d="M27.8333 16.3334C27.8333 20.2624 24.6841 23.4473 20.7991 23.4473C19.158 23.4473 17.6481 22.8788 16.4512 21.9263C18.0877 20.6237 19.1384 18.6025 19.1384 16.3334C19.1384 14.0644 18.0877 12.0432 16.4512 10.7406C17.6481 9.78813 19.158 9.21962 20.7991 9.21962C24.6841 9.21962 27.8333 12.4045 27.8333 16.3334Z" fill="#0099DF"/>
</svg>
