<svg width="33" height="32" viewBox="0 0 33 32" fill="none" xmlns="http://www.w3.org/2000/svg">
<path d="M13.2572 10.2681H19.7456V22.0388H13.2572V10.2681Z" fill="#FF5F00"/>
<path d="M13.6686 16.1532C13.6686 13.7617 14.7809 11.6404 16.4905 10.2678C15.2341 9.26958 13.6481 8.6665 11.9178 8.6665C7.81861 8.6665 4.50232 12.0147 4.50232 16.1532C4.50232 20.2917 7.81861 23.6399 11.9177 23.6399C13.648 23.6399 15.234 23.0368 16.4905 22.0385C14.7809 20.6868 13.6686 18.5448 13.6686 16.1532V16.1532Z" fill="#EB001B"/>
<path d="M28.4999 16.1532C28.4999 20.2917 25.1836 23.6399 21.0845 23.6399C19.3542 23.6399 17.7682 23.0368 16.5117 22.0385C18.242 20.666 19.3337 18.5448 19.3337 16.1532C19.3337 13.7617 18.2213 11.6404 16.5117 10.2678C17.7681 9.26958 19.3542 8.6665 21.0845 8.6665C25.1836 8.6665 28.5 12.0355 28.5 16.1532H28.4999Z" fill="#F79E1B"/>
</svg>
