<svg width="33" height="32" viewBox="0 0 33 32" fill="none" xmlns="http://www.w3.org/2000/svg">
<path fill-rule="evenodd" clip-rule="evenodd" d="M25.2551 26.6668C27.2673 26.6668 27.2874 24.4395 27.0824 23.3399C26.9705 22.6009 25.7646 22.6071 25.6318 23.3399V24.1979C25.6318 24.5898 25.3236 24.9108 24.9472 24.9108H8.05269C7.67623 24.9108 7.36824 24.5898 7.36824 24.1979V23.3399C7.23547 22.6071 6.02956 22.6009 5.91758 23.3399C5.71284 24.4395 5.73258 26.6668 7.74488 26.6668H25.2551ZM23.8006 5.3335C24.7554 5.3335 25.5362 6.19425 25.5362 7.24639V8.16063C25.5362 9.45312 23.855 9.44821 23.855 8.16936V7.66994C23.855 7.35228 23.6055 7.09247 23.3003 7.09247H9.68521C9.38019 7.09247 9.13073 7.35228 9.13073 7.66994V8.15918C9.13073 9.44457 7.52844 9.43547 7.52844 8.18701V7.24639C7.52844 6.19425 8.30949 5.3335 9.26402 5.3335H23.8006Z" fill="#2A6BAE"/>
<path fill-rule="evenodd" clip-rule="evenodd" d="M25.1934 15.8422C26.1344 16.3033 26.7841 17.255 26.7841 18.3477C26.7841 19.8883 25.4926 21.1488 23.9137 21.1488H19.4889C19.0751 21.1488 18.7363 20.8184 18.7363 20.4145V11.6467C18.7363 11.2239 19.0689 10.8777 19.4756 10.8777H23.1611C24.7126 10.8777 25.9819 12.1984 25.9819 13.8123C25.9819 14.5981 25.6809 15.3141 25.1934 15.8422ZM21.8908 15.1281H23.2957V15.1119C23.9354 15.0097 24.4294 14.4304 24.4294 13.7367C24.4294 12.9714 23.8281 12.3452 23.0934 12.3452H20.2635V19.6209H23.8521C24.6109 19.6209 25.2318 18.9743 25.2318 18.1839C25.2318 17.3936 24.6109 16.747 23.8521 16.747H23.2957V16.7435H21.8908C21.4642 16.7435 21.1151 16.3802 21.1151 15.9359C21.1151 15.4916 21.4642 15.1281 21.8908 15.1281Z" fill="#2A6BAE"/>
<path d="M18.0333 20.2731C18.0852 20.7809 17.7318 21.2364 17.2442 21.2903C16.7566 21.3443 16.3192 20.9764 16.2675 20.4685L15.5399 13.4959L12.9628 20.3136L12.9602 20.32L12.9529 20.3389L12.9471 20.3531L12.9457 20.3566L12.9396 20.3708L12.9357 20.3793L12.9296 20.3926L12.9267 20.3988L12.9198 20.4128L12.9174 20.4177C12.8699 20.511 12.8087 20.5931 12.7373 20.6621L12.7347 20.6644L12.7214 20.677C12.6749 20.7199 12.6236 20.7578 12.5678 20.7903L12.564 20.7925L12.5472 20.802L12.531 20.8107L12.5238 20.8145L12.5139 20.8194L12.5032 20.8245L12.4939 20.8291L12.4829 20.834L12.4733 20.8382L12.4642 20.8422L12.456 20.8454L12.4513 20.8474L12.4321 20.8549L12.4253 20.8573C12.3393 20.8886 12.2518 20.9053 12.165 20.9086L12.1545 20.9089L12.1419 20.9091H12.1236L12.1114 20.9089L12.1002 20.9086C12.0032 20.9049 11.905 20.8844 11.8095 20.8454L11.7976 20.8405L11.7946 20.8391L11.7828 20.8342L11.7712 20.8289L11.762 20.8243L11.752 20.8196L11.7414 20.8143L11.7352 20.8111L11.719 20.8025L11.7174 20.8014L11.7036 20.7936L11.6958 20.7892C11.647 20.7607 11.6018 20.7277 11.56 20.6912L11.5567 20.6881C11.5467 20.6792 11.537 20.6704 11.5274 20.6611C11.5198 20.6539 11.5118 20.6457 11.5046 20.6382C11.4975 20.6306 11.4901 20.6229 11.4832 20.6151C11.4742 20.6051 11.4652 20.5944 11.4566 20.5838L11.4536 20.5804C11.4185 20.5369 11.3871 20.4898 11.3596 20.439L11.3553 20.431L11.3476 20.4164L11.3469 20.4146L11.3385 20.3981L11.3355 20.3915L11.3305 20.3806L11.3258 20.37L11.3216 20.3604L11.3165 20.3484L11.3114 20.3362L11.3104 20.3331L11.3055 20.3207L8.72561 13.4959L7.99801 20.4685C7.94613 20.9764 7.50887 21.3443 7.0213 21.2903C6.53355 21.2364 6.18032 20.7809 6.23221 20.2731L7.08995 12.0526L7.0903 12.0504L7.09065 12.0469C7.10096 11.9512 7.12 11.8557 7.14795 11.7622C7.17503 11.6714 7.21119 11.5819 7.25591 11.4946C7.47498 11.0661 7.878 10.7655 8.35893 10.6962C8.375 10.694 8.393 10.6918 8.40907 10.6904C8.48436 10.6822 8.5593 10.6798 8.63302 10.6835L8.63652 10.6837C8.73243 10.6884 8.82222 10.7008 8.90502 10.7208C9.36377 10.8323 9.75351 11.1647 9.93694 11.6499L12.1328 17.4587L14.3286 11.6499C14.512 11.1647 14.9017 10.8323 15.3605 10.7208C15.4431 10.7008 15.5329 10.6882 15.629 10.6835H15.6325C15.7064 10.6798 15.7815 10.6822 15.857 10.6904C15.8729 10.6918 15.8888 10.6937 15.9048 10.6958C16.3858 10.7652 16.7907 11.0661 17.0098 11.4946C17.0543 11.5819 17.0907 11.6714 17.1176 11.7622C17.1455 11.8557 17.1649 11.9509 17.1752 12.0467V12.0504L17.1756 12.0526L18.0333 20.2731Z" fill="#2A6BAE"/>
</svg>
