<svg width="33" height="32" viewBox="0 0 33 32" fill="none" xmlns="http://www.w3.org/2000/svg">
<path d="M22.0186 8C21.0455 8 20.1492 8.29714 19.4065 8.80476L15.3988 11.6276C15.0531 9.57238 13.2093 8 10.9814 8C8.51024 8 6.5 9.94381 6.5 12.3333C6.5 14.7229 8.51024 16.6667 10.9814 16.6667C11.9545 16.6667 12.8636 16.3571 13.6063 15.8495L17.6012 13.039C17.9469 15.0943 19.7907 16.6667 22.0186 16.6667C24.4898 16.6667 26.5 14.7229 26.5 12.3333C26.5 9.94381 24.5026 8 22.0186 8ZM10.9814 14.2771C9.86748 14.2771 8.97119 13.4105 8.97119 12.3333C8.97119 11.2562 9.86748 10.3895 10.9814 10.3895C12.0954 10.3895 12.9917 11.2562 12.9917 12.3333C12.9917 13.4105 12.0954 14.2771 10.9814 14.2771ZM22.0186 14.2771C20.9046 14.2771 20.0083 13.4105 20.0083 12.3333C20.0083 11.2562 20.9046 10.3895 22.0186 10.3895C23.1325 10.3895 24.0288 11.2562 24.0288 12.3333C24.0288 13.4105 23.1325 14.2771 22.0186 14.2771Z" fill="#FF4785"/>
<path d="M25.4798 19.5882H26.4964V23.1681H25.4798V19.5882ZM25.9818 18C25.6555 18 25.392 18.2647 25.392 18.605C25.392 18.9328 25.6555 19.2101 25.9818 19.2101C26.3082 19.2101 26.5717 18.9454 26.5717 18.605C26.5843 18.2647 26.3082 18 25.9818 18ZM30.5 19.5882V23.9874H29.4834V23.0042C29.245 23.1176 28.9939 23.1807 28.7178 23.1807C27.7389 23.1807 26.9357 22.374 26.9357 21.3782C26.9357 20.3824 27.7264 19.5756 28.7178 19.5756C28.9939 19.5756 29.2575 19.6387 29.4834 19.7521V19.6008H30.5V19.5882ZM29.4834 21.3782C29.4834 20.9496 29.1446 20.6092 28.7304 20.6092C28.3162 20.6092 27.9774 20.9496 27.9774 21.3782C27.9774 21.8067 28.3162 22.1471 28.7304 22.1471C29.1446 22.1471 29.4834 21.7941 29.4834 21.3782ZM15.7407 20.5966C15.9917 20.5966 16.2302 20.7227 16.3682 20.9496L17.2216 20.3824C16.8953 19.8782 16.3431 19.563 15.7407 19.563C14.7618 19.563 13.9585 20.3697 13.9585 21.3655C13.9585 22.3613 14.7492 23.1681 15.7407 23.1681C16.3306 23.1681 16.8828 22.8655 17.2216 22.3613L16.3808 21.8067C16.2427 22.021 16.0043 22.1471 15.7532 22.1471C15.3391 22.1471 15.0002 21.8067 15.0002 21.3782C14.9877 20.9496 15.3265 20.5966 15.7407 20.5966ZM6.07687 21.3782C6.07687 22.374 5.28619 23.1807 4.29471 23.1807C4.0186 23.1807 3.75504 23.1176 3.51658 22.9916V23.9874H2.5V19.5882H3.51658V19.7521C3.75504 19.6387 4.0186 19.563 4.29471 19.563C5.28619 19.563 6.07687 20.3824 6.07687 21.3782ZM5.06029 21.3782C5.06029 20.9496 4.72143 20.6092 4.30726 20.6092C3.8931 20.6092 3.55424 20.9496 3.55424 21.3782C3.55424 21.8067 3.8931 22.1471 4.30726 22.1471C4.72143 22.1471 5.06029 21.7941 5.06029 21.3782ZM9.9424 23.1681H8.92582V23.0042C8.69991 23.1176 8.43635 23.1807 8.17279 23.1807C7.19386 23.1807 6.39063 22.374 6.39063 21.3782C6.39063 20.3824 7.18131 19.5756 8.17279 19.5756C8.43635 19.5756 8.69991 19.6387 8.92582 19.7521V19.6008H9.9424V23.1681ZM8.92582 21.2773C8.88817 20.8992 8.56186 20.5966 8.17279 20.5966C7.75863 20.5966 7.41977 20.937 7.41977 21.3655C7.41977 21.7941 7.75863 22.1345 8.17279 22.1345C8.56186 22.1345 8.87562 21.8319 8.92582 21.4538V21.2773ZM23.1831 19.6008C22.9697 19.6008 22.7438 19.6513 22.5305 19.7269V19.5882H21.5139V23.1681H22.5305V21.2899C22.5305 20.6597 23.1078 20.6345 23.1831 20.6345C23.3588 20.6345 23.5094 20.6849 23.6224 20.7983C23.7479 20.9118 23.8106 21.0882 23.8106 21.3151V23.1429H24.8272V21.3025C24.8272 20.1807 23.9989 19.6008 23.1831 19.6008ZM13.9711 19.6008H12.942L12.214 21.4916L11.4234 19.6008H10.3189L11.7246 22.7521L11.2351 24H12.2642L13.9711 19.6008ZM21.0746 21.3782C21.0746 22.374 20.284 23.1807 19.2925 23.1807C18.3135 23.1807 17.5103 22.374 17.5103 21.3782C17.5103 20.3824 18.301 19.5756 19.2925 19.5756C20.2714 19.563 21.0746 20.3824 21.0746 21.3782ZM20.058 21.3782C20.058 20.9496 19.7192 20.6092 19.305 20.6092C18.8909 20.6092 18.552 20.9496 18.552 21.3782C18.552 21.8067 18.8909 22.1471 19.305 22.1471C19.7192 22.1471 20.058 21.7941 20.058 21.3782Z" fill="#FF4785"/>
</svg>
