<svg width="33" height="32" viewBox="0 0 33 32" fill="none" xmlns="http://www.w3.org/2000/svg">
<path d="M13.0529 17.8755C12.8886 18.7787 12.2375 22.9892 12.0447 24.1792C12.0304 24.2643 11.9974 24.2966 11.9037 24.2966H8.40649C8.32444 24.2972 8.24323 24.2799 8.16844 24.246C8.09365 24.2121 8.02704 24.1624 7.97318 24.1003C7.91932 24.0382 7.87947 23.9651 7.85638 23.8861C7.83329 23.8071 7.82749 23.724 7.83939 23.6425L10.5872 6.14711C10.625 5.92497 10.7398 5.72339 10.9114 5.57796C11.083 5.43253 11.3002 5.3526 11.5248 5.35227C18.6654 5.35227 19.2656 5.1784 21.0892 5.88893C23.9067 6.98485 24.1647 9.62903 23.152 12.4892C22.1439 15.4345 19.7532 16.6998 16.5838 16.7374C14.5494 16.7705 13.3252 16.4077 13.0536 17.8755H13.0529ZM24.5728 11.1058C24.4881 11.0448 24.4558 11.0207 24.4318 11.1668C24.3333 11.7031 24.1954 12.2315 24.0192 12.7474C22.1484 18.1013 16.9634 17.6353 14.4316 17.6353C14.1458 17.6353 13.9583 17.7904 13.9208 18.0772C12.8616 24.682 12.6501 26.0602 12.6501 26.0602C12.6028 26.3944 12.8143 26.6668 13.1466 26.6668H16.124C16.5275 26.6668 16.8599 26.3703 16.9401 25.9661C16.9731 25.7124 16.8884 26.2529 17.6152 21.6713C17.8313 20.6363 18.2859 20.7447 18.9888 20.7447C22.3179 20.7447 24.9149 19.3899 25.6883 15.4616C25.9928 13.8245 25.9043 12.1024 24.5728 11.105V11.1058Z" fill="#009CDE"/>
</svg>
