<svg width="33" height="32" viewBox="0 0 33 32" fill="none" xmlns="http://www.w3.org/2000/svg">
<path d="M16.4837 25.962C21.9325 25.962 26.3497 21.4938 26.3497 15.982C26.3497 10.4702 21.9325 6.00195 16.4837 6.00195C11.0348 6.00195 6.61768 10.4702 6.61768 15.982C6.61768 21.4938 11.0348 25.962 16.4837 25.962Z" fill="#F7941D"/>
<path d="M21.1111 16.3968L21.1056 16.3865L21.1047 16.3847C21.1014 16.3744 21.0989 16.3635 21.0951 16.3523L21.0946 16.3514L21.0942 16.3505L21.0937 16.3496L21.0932 16.3488L21.0928 16.3479L21.0923 16.347L21.0914 16.3453C20.9756 15.9535 20.746 15.606 20.4324 15.348L20.4319 15.3471C20.4227 15.3399 20.4129 15.3319 20.4036 15.3248L20.3908 15.3152L20.3815 15.308L20.3775 15.3047L20.3687 15.2984L20.3647 15.295L20.3559 15.2887L20.3519 15.2854L20.3426 15.2783L20.3377 15.2753L20.3285 15.2682L20.3236 15.2653L20.3137 15.2586L20.3088 15.2556L20.3029 15.2466L20.2976 15.2429L20.2877 15.2361L20.2824 15.2324L20.2723 15.2256L20.267 15.2219L20.257 15.2152L20.2517 15.2114L20.2411 15.2039L20.2358 15.2001L20.2244 15.193L20.2191 15.1892L20.2077 15.1822L20.2024 15.1784L20.191 15.1713L20.1857 15.1675L20.1743 15.1604L20.1681 15.1571L20.1567 15.15L20.1505 15.1466L20.1382 15.1399L20.1321 15.1365L20.1193 15.1291L20.1132 15.1257L20.1004 15.1183L20.0943 15.1149L20.0815 15.1074L20.0749 15.1033L20.0621 15.0958L20.0555 15.0916L20.0419 15.0846L20.0352 15.0804L20.0216 15.0734L20.0124 15.0684L20.012 15.0676C20.0053 15.0634 19.9984 15.0605 19.9918 15.0564C19.7097 14.9097 19.4051 14.8124 19.0909 14.7684C19.179 14.6726 19.2597 14.5701 19.3323 14.4618L19.3438 14.4444L19.3447 14.444L19.35 14.4355L19.357 14.4239L19.3608 14.4186L19.3678 14.407L19.3715 14.4017L19.3785 14.3901L19.3822 14.3848L19.3892 14.3732L19.393 14.3679L19.4 14.3563L19.4037 14.351L19.4098 14.3398L19.4136 14.3345L19.4197 14.3234L19.4226 14.3185L19.4288 14.3073L19.4316 14.3024L19.4378 14.2913L19.4407 14.2864L19.446 14.2757L19.4489 14.2708L19.4541 14.2602L19.457 14.2553L19.4623 14.2446L19.4652 14.2397L19.4709 14.2299L19.4738 14.225L19.4796 14.2152L19.4825 14.2103L19.4874 14.201L19.4903 14.1961L19.4952 14.1868L19.4972 14.1824L19.5021 14.173L19.5042 14.1686L19.5091 14.1593L19.5111 14.1549L19.516 14.1455L19.518 14.1411L19.5221 14.1322L19.5241 14.1278L19.5282 14.1189L19.5302 14.1145L19.5343 14.1056L19.5363 14.1012L19.5407 14.0911L19.5468 14.0776C19.5513 14.0676 19.5549 14.0577 19.5593 14.0476L19.5602 14.0471C19.6954 13.71 19.7271 13.3396 19.6511 12.984L19.6507 12.9832L19.6497 12.9814L19.6493 12.9806L19.6488 12.9797L19.6483 12.9788L19.6479 12.9779L19.6474 12.9771L19.6469 12.9762C19.6449 12.9661 19.6429 12.9562 19.64 12.9467V12.9445L19.6396 12.9436L19.6391 12.9428L19.6386 12.9419L19.6391 12.9428L19.635 12.935C19.632 12.9211 19.629 12.9073 19.6246 12.893C19.6217 12.8791 19.6173 12.8648 19.6135 12.8514L19.6085 12.8419L19.6075 12.8402C19.6046 12.8307 19.6018 12.8211 19.5989 12.8116L19.5984 12.8108L19.598 12.8099L19.5975 12.809L19.597 12.8081L19.5966 12.8073L19.5961 12.8064L19.5957 12.8055C19.4928 12.4569 19.2885 12.1476 19.0095 11.9181L19.009 11.9172C19.0011 11.9105 18.9922 11.9042 18.9842 11.8975L18.9732 11.8891L18.9644 11.8828L18.9604 11.8794L18.9529 11.8735L18.9489 11.8702L18.9414 11.8643L18.9374 11.8609L18.929 11.8555L18.925 11.8522L18.9162 11.8459L18.9122 11.8425L18.9034 11.8362L18.8994 11.8329L18.8905 11.8266L18.8857 11.8237L18.8768 11.8174L18.872 11.8145L18.8632 11.8082L18.8583 11.8052L18.8486 11.7994L18.8438 11.7965L18.8341 11.7907L18.8293 11.7878L18.8196 11.7819L18.8147 11.779L18.8051 11.7732L18.8002 11.7703L18.7901 11.7636L18.7852 11.7606L18.7751 11.7539L18.7702 11.751L18.7592 11.7448L18.7544 11.7418L18.7434 11.7356L18.7381 11.7319L18.7271 11.7256L18.7219 11.7219L18.7109 11.7157L18.7056 11.7119L18.6942 11.7048L18.688 11.7014L18.6766 11.6944L18.6705 11.691L18.6582 11.6843L18.652 11.6809L18.6397 11.6742L18.6309 11.6701L18.6305 11.6692L18.612 11.6591C18.0733 11.3759 17.3888 11.2906 16.7001 11.4693L16.5209 11.5158L16.0678 9.73096L15.0178 10.0032L15.4694 11.781L14.6292 12.0001L14.1772 10.228L13.1272 10.5003L13.5788 12.2781L11.4133 12.8417L11.7015 13.9745L12.574 13.7478C12.6428 13.7299 12.7143 13.7259 12.7846 13.736C12.8549 13.746 12.9226 13.7701 12.9837 13.8066C13.0448 13.8432 13.0982 13.8916 13.1408 13.949C13.1834 14.0065 13.2144 14.0719 13.2319 14.1415V14.1415L14.4431 18.9084C14.4668 19.0021 14.4528 19.1014 14.4042 19.1846C14.3556 19.2678 14.2764 19.3281 14.1839 19.3523L13.4193 19.5513L13.4643 20.8985L15.6272 20.3363L16.0846 22.1109L17.1341 21.8377L16.6822 20.059L17.5222 19.8411L17.9743 21.6198L19.0238 21.3466L18.5702 19.561C18.748 19.5139 18.901 19.474 19.0068 19.4463C19.7829 19.2444 20.4106 18.7841 20.7903 18.2102L20.8032 18.191L20.804 18.1906L20.8102 18.1816L20.8185 18.1682L20.8226 18.1614L20.8308 18.148L20.835 18.1413L20.8423 18.1284L20.8465 18.1216L20.8538 18.1087L20.8572 18.1025L20.8645 18.0896L20.8679 18.0834L20.8752 18.0705L20.8786 18.0643L20.8852 18.0518L20.8885 18.0456L20.8952 18.0332L20.8985 18.027L20.9055 18.0154L20.9088 18.0092L20.9158 17.9976L20.9192 17.9914L20.9253 17.9803L20.9286 17.974L20.9348 17.963L20.9381 17.9567L20.9443 17.9456L20.9467 17.9399L20.9528 17.9288L20.9553 17.9231L20.9605 17.9124L20.9634 17.9075L20.9687 17.8968L20.9716 17.8919L20.9769 17.8813L20.9798 17.8764L20.9851 17.8657L20.988 17.8608L20.9932 17.8501L20.9961 17.8452L21.0014 17.8346L21.0043 17.8297L21.0088 17.8196L21.0116 17.8147L21.0161 17.8046L21.0181 17.8002L21.023 17.7887L21.0296 17.774C21.0345 17.7626 21.0396 17.7519 21.0437 17.7408L21.0441 17.7395C21.196 17.3603 21.2318 16.9437 21.1467 16.5438L21.1462 16.5429L21.1458 16.542L21.1453 16.5411L21.1448 16.5403L21.1444 16.5394L21.1439 16.5385L21.1434 16.5376L21.143 16.5368C21.1405 16.5259 21.138 16.5151 21.1355 16.5042V16.502L21.1351 16.5012L21.1346 16.5003L21.1341 16.4994L21.1337 16.4986L21.1332 16.4977L21.1327 16.4968L21.1323 16.4959L21.1318 16.4951L21.1313 16.4942L21.1309 16.4933L21.1304 16.4924L21.1299 16.4916L21.1295 16.4907L21.1276 16.4873C21.1237 16.4717 21.1207 16.4557 21.1159 16.4405C21.1143 16.4315 21.1121 16.4149 21.1111 16.3968ZM14.9417 13.2078C15.1208 13.1613 15.8615 12.9731 16.1057 12.9089C16.494 12.8084 16.8767 12.8474 17.1754 12.9929L17.1854 12.9974L17.1897 12.9995L17.1959 13.0029L17.199 13.0045L17.2051 13.0079L17.2082 13.0095L17.2143 13.0129L17.2174 13.0145L17.2235 13.0179L17.2266 13.0195L17.2327 13.0229L17.2358 13.0245L17.2419 13.0279L17.245 13.0295L17.2511 13.0329L17.2542 13.0346L17.2603 13.0379L17.2634 13.0396L17.2695 13.0429L17.2726 13.0446L17.2779 13.0483L17.2809 13.05L17.2862 13.0537L17.2893 13.0554L17.2946 13.0592L17.2976 13.0608L17.3025 13.0637L17.3055 13.0654L17.3104 13.0683L17.3134 13.0699L17.3183 13.0729L17.3213 13.0745L17.3262 13.0774L17.3292 13.0791L17.3341 13.082L17.3363 13.0841L17.3412 13.0871L17.3429 13.0883L17.3478 13.0912L17.3496 13.0925L17.3544 13.0954L17.3562 13.0966L17.361 13.0996L17.3628 13.1008L17.3668 13.1042L17.3685 13.1054L17.3734 13.1083L17.38 13.1125C17.3849 13.1154 17.3893 13.1197 17.3941 13.1226C17.5471 13.2394 17.6594 13.4022 17.7151 13.5877V13.5877L17.7164 13.5903C17.7179 13.595 17.7198 13.6006 17.7212 13.6054L17.7217 13.6063L17.7244 13.6114C17.7264 13.6192 17.7287 13.6257 17.7307 13.6335C17.7328 13.6415 17.7342 13.6496 17.7349 13.6578L17.7376 13.663L17.7381 13.6639C17.7388 13.6692 17.7402 13.6744 17.742 13.6795L17.7434 13.682C17.7827 13.8716 17.7617 14.0689 17.6836 14.2457V14.2457L17.6767 14.2616L17.673 14.2691L17.6701 14.274L17.6694 14.2767L17.6673 14.2811L17.6665 14.2838L17.6636 14.2887L17.6628 14.2914L17.6599 14.2963L17.6591 14.2989L17.6563 14.3038L17.6555 14.3065L17.6526 14.3114L17.6518 14.314L17.6489 14.319L17.6481 14.3216L17.6452 14.3265L17.6436 14.3296L17.6407 14.3345L17.639 14.3376L17.6362 14.3425L17.6345 14.3456L17.6316 14.3505L17.63 14.3536L17.6263 14.359L17.6247 14.362L17.6209 14.3674L17.6193 14.3705L17.6156 14.3758L17.614 14.3789L17.6102 14.3843L17.6086 14.3874L17.6049 14.3927L17.6033 14.3958L17.5995 14.4011L17.5979 14.4042L17.5942 14.4096L17.5926 14.4127L17.5888 14.418L17.5872 14.4211L17.5826 14.4269L17.581 14.43L17.5764 14.4358L17.5748 14.4389L17.5702 14.4447L17.5686 14.4478L17.564 14.4536L17.5607 14.4577L17.5544 14.4666C17.3613 14.7403 17.0449 14.9614 16.6566 15.0619C16.4119 15.1253 15.673 15.3213 15.494 15.3678L14.9417 13.2078ZM19.0459 16.8624L19.0487 16.8675L19.0491 16.8684C19.0502 16.8745 19.0516 16.8793 19.0527 16.8852L19.0531 16.8861L19.0536 16.887L19.0541 16.8878L19.0545 16.8887C19.0959 17.0978 19.0662 17.3149 18.9701 17.5046V17.5046L18.9607 17.5219L18.9562 17.5299L18.9528 17.5362L18.9512 17.5393L18.9483 17.5442L18.9467 17.5473L18.9438 17.5522L18.9422 17.5553L18.9385 17.5606L18.9368 17.5637L18.9331 17.569L18.9315 17.5721L18.9278 17.5775L18.9261 17.5806L18.9224 17.5859L18.9208 17.589L18.9171 17.5944L18.9154 17.5974L18.9117 17.6028L18.9101 17.6059L18.9064 17.6112L18.9047 17.6143L18.901 17.6197L18.8994 17.6228L18.8957 17.6281L18.894 17.6312L18.8894 17.637L18.8878 17.6401L18.8832 17.6459L18.8816 17.649L18.8775 17.6557L18.8758 17.6588L18.8717 17.6655L18.8701 17.6686L18.866 17.6754L18.8635 17.6789L18.8594 17.6856L18.8569 17.6892L18.8519 17.6963L18.8494 17.6999L18.8444 17.707L18.8419 17.7106L18.8369 17.7177L18.8344 17.7213L18.8294 17.7284L18.8269 17.732L18.822 17.7391L18.8178 17.7436L18.8099 17.7534C18.5754 18.0564 18.1971 18.3055 17.7377 18.4248C17.448 18.5005 16.5726 18.7321 16.3596 18.7871L15.7636 16.4414C15.9763 16.3855 16.854 16.1626 17.1437 16.0869C17.6031 15.9676 18.0542 16.0015 18.4028 16.1521L18.4142 16.157L18.4198 16.1594L18.4281 16.1628L18.4321 16.164L18.4395 16.1677L18.4434 16.1688L18.4509 16.1725L18.4548 16.1737L18.4622 16.1774L18.4653 16.1791L18.4727 16.1828L18.4758 16.1844L18.4832 16.1881L18.4863 16.1897L18.4937 16.1934L18.4968 16.1951L18.5029 16.1985L18.506 16.2001L18.5122 16.2035L18.5152 16.2051L18.5214 16.2085L18.5244 16.2101L18.5306 16.2135L18.5336 16.2151L18.5398 16.2185L18.5428 16.2201L18.549 16.2235L18.552 16.2251L18.5582 16.2285L18.5612 16.2301L18.5674 16.2335L18.5704 16.2352L18.5766 16.2385L18.5796 16.2402L18.5849 16.2439L18.588 16.2456L18.5933 16.2493L18.5963 16.251L18.6016 16.2548L18.6047 16.2564L18.6099 16.2602L18.613 16.2618L18.6183 16.2656L18.6213 16.2672L18.6262 16.2701L18.6293 16.2718L18.6345 16.2756L18.6416 16.2806C18.6469 16.2844 18.653 16.2877 18.6582 16.2915C18.8326 16.4111 18.962 16.5868 19.0255 16.7901L19.0273 16.7934C19.0292 16.7991 19.0306 16.8038 19.0325 16.8094L19.033 16.8103L19.0357 16.8155C19.0377 16.8233 19.0397 16.8311 19.0421 16.8397C19.0464 16.8416 19.0471 16.8512 19.0457 16.8631L19.0459 16.8624Z" fill="white"/>
</svg>
