<svg width="33" height="32" viewBox="0 0 33 32" fill="none" xmlns="http://www.w3.org/2000/svg">
<g clip-path="url(#clip0_12146_29284)">
<path fill-rule="evenodd" clip-rule="evenodd" d="M6.31507 15.5853C6.13228 15.7339 6.03807 15.9511 6.03184 16.2369V19.9111H7.23882V18.6713H8.87034C9.17638 18.6667 9.43917 18.5897 9.65929 18.4383C9.88149 18.2944 9.99644 18.1222 10.0021 17.9239V16.2043C9.98992 15.6456 9.603 15.3643 8.8419 15.3599H7.11646C6.97426 15.3599 6.82761 15.3822 6.67622 15.428C6.53046 15.471 6.41076 15.5231 6.31507 15.5853ZM8.52164 16.1977C8.69762 16.2021 8.78828 16.2692 8.7945 16.3991V17.6316C8.7945 17.6864 8.76487 17.7307 8.70295 17.7651C8.6437 17.811 8.56934 17.8334 8.47987 17.8334H7.61834C7.37125 17.8288 7.24415 17.7471 7.23882 17.587V16.4445C7.24415 16.2894 7.3591 16.2069 7.5816 16.1977H8.52164Z" fill="#1889C1"/>
<path fill-rule="evenodd" clip-rule="evenodd" d="M12.451 16.2235C12.6738 16.2194 12.7819 16.2811 12.7757 16.4102V16.4948H11.1706C10.3984 16.5041 10.0083 16.7744 10.0021 17.3064V18.0034C10.0145 18.5125 10.4227 18.7685 11.2277 18.7733H12.8817C13.2037 18.7733 13.4664 18.6953 13.6702 18.5401C13.8651 18.3903 13.9655 18.2019 13.9723 17.9735V16.167C13.9587 15.6373 13.5541 15.369 12.757 15.3599H10.0207V16.2235H12.451ZM11.3053 17.8561C11.2417 17.8268 11.2091 17.7878 11.2091 17.7385V17.5241C11.2091 17.4327 11.2307 17.371 11.2736 17.3398C11.3201 17.3134 11.4037 17.2994 11.5245 17.2994H12.4424C12.6652 17.2994 12.7757 17.3658 12.7757 17.4975V17.7385C12.7694 17.853 12.6607 17.9095 12.4513 17.9095H11.5245C11.4339 17.9095 11.3622 17.8912 11.3053 17.8561Z" fill="#1889C1"/>
<path d="M16.3942 19.0731C16.4904 19.0691 16.5738 19.0459 16.6414 19.0042C16.7064 18.9654 16.7391 18.9208 16.7391 18.8701V18.6713H15.1855C14.9829 18.6713 14.8209 18.6539 14.7 18.6193C14.5722 18.5879 14.445 18.5292 14.3169 18.4459C14.1957 18.3577 14.1084 18.2654 14.0554 18.1689C14.0003 18.0806 13.9723 17.9683 13.9723 17.8334V15.3599H15.1855V17.5679C15.1855 17.7449 15.293 17.8334 15.5108 17.8334H16.3674C16.4693 17.8334 16.5577 17.811 16.6319 17.7651C16.7034 17.7263 16.7391 17.6802 16.7391 17.6262V15.3599H17.9425V19.0088C17.9357 19.2789 17.8326 19.4951 17.6339 19.659C17.4323 19.823 17.1565 19.9069 16.8047 19.9111H13.9723V19.0731H16.3942Z" fill="#1889C1"/>
<path d="M17.9425 17.9095H20.2583C20.4701 17.9048 20.5802 17.8499 20.5869 17.7447V17.6671C20.5869 17.6446 20.5764 17.6196 20.5559 17.5928C20.5043 17.5276 20.4408 17.4952 20.3652 17.4952H19.217C18.8763 17.4909 18.5857 17.4149 18.3413 17.2684C18.0941 17.1331 17.9674 16.9665 17.9601 16.7711V16.1271C17.9735 15.6247 18.3955 15.369 19.2269 15.3599H21.9127V16.2235H19.6372C19.3701 16.2235 19.2355 16.2765 19.2355 16.3822V16.4657C19.2355 16.5753 19.373 16.6302 19.647 16.6302H20.7917C21.0967 16.6347 21.3567 16.7103 21.5733 16.8576C21.7921 17.0059 21.9057 17.1824 21.9127 17.3873V18.0172C21.9057 18.1943 21.7791 18.3709 21.5357 18.5471C21.417 18.6336 21.2954 18.693 21.1739 18.7266C21.0482 18.7576 20.8775 18.7733 20.6596 18.7733H17.9425V17.9095Z" fill="#1889C1"/>
<path fill-rule="evenodd" clip-rule="evenodd" d="M24.3614 16.2235C24.5845 16.2194 24.6927 16.2811 24.6874 16.4102V16.4948H23.0811C22.308 16.5041 21.9181 16.7744 21.9127 17.3064V18.0034C21.924 18.5125 22.3326 18.7685 23.1374 18.7733H24.7934C25.1158 18.7733 25.3789 18.6953 25.5813 18.5401C25.7751 18.3903 25.8764 18.2019 25.883 17.9735V16.167C25.8705 15.6373 25.4655 15.369 24.669 15.3599H21.9308V16.2235H24.3614ZM23.2168 17.8561C23.1516 17.8268 23.119 17.7878 23.119 17.7385V17.5241C23.119 17.4327 23.1415 17.371 23.1845 17.3398C23.2307 17.3134 23.314 17.2994 23.4346 17.2994H24.3534C24.5754 17.2994 24.6874 17.3658 24.6874 17.4975V17.7385C24.6811 17.853 24.573 17.9095 24.3635 17.9095H23.4346C23.3451 17.9095 23.2731 17.8912 23.2168 17.8561Z" fill="#1889C1"/>
<path d="M25.883 14.9806C25.8925 14.7541 26.0506 14.5722 26.3608 14.4359C26.662 14.2974 27.0573 14.2262 27.5463 14.2222H28.5298V15.0327H27.934C27.6067 15.0368 27.4398 15.1194 27.4326 15.2789V15.4566H28.5298V16.2964H27.4326V18.7733H25.883V14.9806Z" fill="#1889C1"/>
<path fill-rule="evenodd" clip-rule="evenodd" d="M29.7611 17.6687V17.6149L32.5 16.8693V16.1866C32.4878 15.6441 32.1048 15.369 31.3486 15.3599H29.7116C28.9372 15.369 28.5432 15.6348 28.5298 16.1571L28.5402 17.8856C28.5402 18.0507 28.5649 18.1831 28.615 18.283C28.6606 18.3788 28.7515 18.4718 28.8851 18.5632C28.9992 18.6387 29.1301 18.693 29.2758 18.7262C29.4091 18.7576 29.5977 18.7733 29.8398 18.7733H32.492V17.9095H29.9974C29.9292 17.9095 29.8779 17.8835 29.8398 17.8326C29.787 17.7927 29.7611 17.7378 29.7611 17.6687ZM31.2642 16.3741V16.3941L29.7417 16.7911V16.4445C29.7417 16.3799 29.7843 16.3275 29.8684 16.2877C29.936 16.2445 30.0234 16.2235 30.1319 16.2235H30.9772C31.0603 16.2235 31.1295 16.2367 31.1861 16.2639C31.2383 16.292 31.2642 16.3298 31.2642 16.3741Z" fill="#1889C1"/>
<path d="M0.812888 16.2945C0.889155 16.2595 0.965421 16.2321 1.04169 16.215C1.18183 15.5173 1.77456 14.9941 2.48503 14.9941C3.19598 14.9941 3.78896 15.5181 3.92886 16.2155C4.14693 16.2587 4.32735 16.3506 4.46797 16.4875C4.47369 16.3536 4.46844 16.2247 4.45319 16.1032C4.36334 15.0493 3.51559 14.2222 2.48194 14.2222C1.41778 14.2222 0.551436 15.1014 0.506391 16.2006C0.500195 16.2955 0.498288 16.3944 0.501625 16.4977C0.590999 16.4192 0.693006 16.3487 0.812888 16.2945Z" fill="#1889C1"/>
<path d="M3.58287 15.3599H1.32938C1.22089 15.3599 1.10856 15.3829 0.992824 15.4301C0.881169 15.4745 0.78967 15.5281 0.71629 15.5923C0.576551 15.7454 0.504983 15.9693 0.5 16.2639V17.8689C0.504983 18.1642 0.576551 18.3878 0.71629 18.5401C0.78967 18.6053 0.881169 18.659 0.992824 18.7037C1.10856 18.75 1.22089 18.7733 1.32938 18.7733H3.58287C4.16493 18.7685 4.46094 18.4776 4.47022 17.9025V16.2303C4.46094 15.6544 4.16493 15.3645 3.58287 15.3599Z" fill="#1889C1"/>
</g>
<defs>
<clipPath id="clip0_12146_29284">
<rect width="32" height="32" fill="white" transform="translate(0.5)"/>
</clipPath>
</defs>
</svg>
