<svg width="33" height="32" viewBox="0 0 33 32" fill="none" xmlns="http://www.w3.org/2000/svg">
<g clip-path="url(#clip0_12146_29286)">
<path fill-rule="evenodd" clip-rule="evenodd" d="M23.4857 13.2292C24.2111 13.2292 24.7992 12.6556 24.7992 11.9483C24.7992 11.2406 24.2111 10.6665 23.4857 10.6665C22.7611 10.6665 22.1734 11.2406 22.1734 11.9483C22.1734 12.6556 22.7611 13.2292 23.4857 13.2292ZM13.4263 13.9209L13.4117 13.9577C13.314 14.2066 12.8789 15.3148 11.9088 16.4609V11.2497L9.15998 11.7799V21.2257H11.9088V18.3059C12.705 19.4713 13.0981 21.2257 13.0981 21.2257H16.3906C16.065 19.9044 14.6403 17.468 14.6403 17.468C15.9189 15.8859 16.4805 14.2002 16.5699 13.9209H13.4263ZM16.941 17.1205C16.941 14.9775 18.1908 13.8995 20.6529 13.8224C20.6529 13.8224 21.0968 13.8056 21.3594 13.86V15.9923C19.7992 16.0448 19.627 16.5948 19.627 17.878V21.2258H16.941V17.1205ZM4.54988 14.961L4.54857 14.9609C4.21117 14.9393 3.4337 14.8894 3.4337 14.2054C3.4337 13.379 4.55595 13.379 4.97688 13.379C5.71701 13.379 6.67558 13.5924 7.36011 13.7923C7.36011 13.7923 7.74195 13.9236 8.06693 14.0582L8.09713 14.0662V11.8029L8.05564 11.7909C7.24778 11.515 6.30841 11.2497 4.56682 11.2497C1.56398 11.2497 0.5 12.9569 0.5 14.4194C0.5 15.2625 0.870275 17.2466 4.30929 17.4755L4.31284 17.4757C4.60706 17.4934 5.37453 17.5394 5.37453 18.2442C5.37453 18.8286 4.74109 19.1731 3.6757 19.1731C2.50815 19.1731 1.37559 18.8825 0.687677 18.607V20.938C1.7175 21.2015 2.87842 21.3331 4.23902 21.3331C7.17511 21.3331 8.49012 19.7179 8.49012 18.117C8.49012 16.3018 7.01862 15.1224 4.54988 14.961ZM24.8185 21.2257H22.1542V13.9292H24.8185V21.2257ZM29.8353 11.7149V21.2257H32.5V11.2497L29.8353 11.7149ZM28.6093 11.2497L25.9471 11.7149V21.2257H28.6093V11.2497Z" fill="#870D72"/>
</g>
<defs>
<clipPath id="clip0_12146_29286">
<rect width="32" height="32" fill="white" transform="translate(0.5)"/>
</clipPath>
</defs>
</svg>
