<svg width="33" height="32" viewBox="0 0 33 32" fill="none" xmlns="http://www.w3.org/2000/svg">
<path d="M22.5519 12.2479C21.9321 12.022 21.2769 11.9087 20.6173 11.9132C18.4839 11.9132 16.9773 12.9879 16.9666 14.5305C16.9533 15.6639 18.0373 16.3025 18.8573 16.6812C19.6986 17.0705 19.9799 17.3159 19.9773 17.6639C19.9719 18.1932 19.3053 18.4332 18.6853 18.4332C17.8333 18.4332 17.3679 18.3145 16.6519 18.0172L16.3866 17.8932L16.0839 19.6692C16.6026 19.8852 17.5373 20.0705 18.5026 20.0865C20.7706 20.0865 22.2533 19.0185 22.2706 17.3772C22.2893 16.4719 21.7026 15.7879 20.4679 15.2225C19.7173 14.8559 19.2519 14.6105 19.2519 14.2385C19.2519 13.9092 19.6506 13.5572 20.4839 13.5572C21.0386 13.5438 21.5897 13.6479 22.1013 13.8625L22.3013 13.9519L22.6039 12.2359L22.5519 12.2479V12.2479ZM28.0879 12.0572H26.4213C25.9026 12.0572 25.5119 12.1999 25.2853 12.7145L22.0799 19.9759H24.3479L24.8013 18.7852L27.5693 18.7879C27.6346 19.0665 27.8346 19.9759 27.8346 19.9759H29.8346L28.0879 12.0572V12.0572ZM13.8986 11.9905H16.0599L14.7079 19.9132H12.5493L13.8986 11.9879V11.9905V11.9905ZM8.41194 16.3572L8.63594 17.4572L10.7479 12.0572H13.0373L9.63594 19.9652H7.35194L5.48527 13.2692C5.45504 13.1588 5.38404 13.064 5.28661 13.0039C4.61381 12.6563 3.90093 12.3926 3.16394 12.2185L3.19327 12.0519H6.67194C7.14394 12.0705 7.52394 12.2185 7.65061 12.7225L8.41061 16.3612V16.3572H8.41194ZM25.4213 17.1652L26.2826 14.9492C26.2719 14.9732 26.4599 14.4919 26.5693 14.1945L26.7173 14.8785L27.2173 17.1639H25.4199V17.1652H25.4213Z" fill="#4D4DCD"/>
</svg>
