<svg width="216" height="52" viewBox="0 0 216 52" fill="none" xmlns="http://www.w3.org/2000/svg">
<path d="M4.70768 27.7231H5.06666C5.96409 27.7231 7.00512 27.7231 7.90255 27.7231C8.47691 27.7231 8.94358 27.6154 9.37435 27.2564C10.4154 26.4667 10.4154 24.9949 9.37435 24.3128C9.01537 24.0974 8.6923 23.8462 8.33332 23.8462C7.07691 23.7385 5.9282 23.8461 4.70768 23.7385V27.7231ZM4.70768 34.6513H5.06666C6.10768 34.6513 7.00512 34.6513 8.01025 34.6513C8.22563 34.6513 8.47691 34.6513 8.6923 34.6513C10.0564 34.4359 10.9538 33.1795 10.5231 31.8154C10.3077 30.9179 9.48204 30.4513 8.6923 30.2359C8.11794 30.1282 7.43589 30.1282 6.86153 30.1282C6.17948 30.1282 5.49743 30.1282 4.70768 30.1282V34.6513ZM0.148706 21.1179C1.40512 21.1179 2.76922 21.1179 4.02563 21.1179C5.74871 21.1179 7.43589 21.1179 9.15897 21.2256C10.5231 21.2256 11.6718 21.6923 12.4615 22.8051C13.359 24.0615 13.6102 25.4256 13.1436 26.8974C12.9282 27.5795 12.4615 28.0462 11.8872 28.3692C11.6718 28.4769 11.5282 28.5846 11.3128 28.7282C11.7795 28.9436 12.2102 29.1949 12.5692 29.5179C13.4667 30.3077 13.9333 31.4564 13.9333 32.7128C13.9333 34.0769 13.4667 35.2256 12.3538 36.1231C11.5641 36.8051 10.6308 37.1641 9.62563 37.2718C9.26666 37.2718 8.94358 37.3795 8.5846 37.3795C5.8564 37.3795 3.1282 37.3795 0.39999 37.3795C0.292298 37.3795 0.184605 37.3795 0.0410156 37.3795V34.759H1.29743V23.8462H0.0410156L0.148706 21.1179ZM207.097 32.3897C207.097 32.0308 207.097 31.7077 207.097 31.3487C206.99 30.559 206.523 29.9846 205.841 29.6256C204.585 28.8359 203.113 29.2667 202.538 30.6667C202.179 31.7077 202.179 32.6051 202.431 33.6103C202.646 34.4 203.005 34.9744 203.795 35.3333C205.267 35.9077 207.097 34.6513 207.097 33.0718V32.3897ZM204.154 40C203.687 39.8923 203.113 39.7846 202.79 39.5333C201.892 39.0667 201.318 38.3846 200.959 37.3795C201.426 37.3795 201.856 37.3795 202.323 37.3795C202.431 37.3795 202.431 37.4872 202.538 37.4872C203.328 38.8513 204.944 39.2103 206.308 38.3846C206.882 38.0256 207.097 37.5949 207.205 36.9128C207.205 36.2308 207.205 35.5487 207.205 34.8667C207.097 34.9744 206.99 35.2256 206.846 35.3333C205.482 36.9128 202.969 36.5897 201.82 34.9744C201.031 33.9333 200.923 32.8205 201.031 31.5641C201.031 30.7744 201.39 30.0923 201.713 29.4103C202.862 27.6872 205.59 27.3641 206.846 29.1949C206.954 29.3026 207.062 29.4103 207.205 29.6615V28.1897H209.718V29.2308H208.462V29.5897C208.462 31.9949 208.462 34.3641 208.462 36.7692C208.462 38.4923 207.421 39.4974 205.841 39.8564C205.626 39.8564 205.482 39.9641 205.267 39.9641H204.118V40H204.154ZM214.744 16.0923C214.744 14.2615 213.272 12.7897 211.441 12.7897C209.61 12.7897 208.138 14.2615 208.031 16.0923C208.031 17.9231 209.503 19.3949 211.333 19.5026C213.272 19.3949 214.744 17.9231 214.744 16.0923ZM215.426 16.559C215.318 17.241 215.067 17.8154 214.636 18.3897C213.595 19.7538 211.908 20.3282 210.292 19.8615C208.713 19.3949 207.564 18.0308 207.456 16.4513C207.241 14.2974 208.713 12.359 210.759 12C210.759 12 210.867 12 210.974 12H211.872H211.979C213.128 12.2154 213.918 12.682 214.6 13.5795C215.067 14.1538 215.174 14.7282 215.39 15.4103V16.559H215.426ZM136.092 28.8359C135.877 29.9846 135.518 31.0974 135.303 32.2462C134.944 33.8256 134.513 35.441 134.154 37.0205C134.154 37.1282 134.154 37.2359 133.938 37.2359C132.897 37.2359 131.892 37.2359 130.851 37.2359C130.744 36.8769 130.636 36.5538 130.636 36.1949C129.846 33.359 129.056 30.4872 128.374 27.6513C128.374 27.4359 128.267 27.2923 128.015 27.2923C127.8 27.2923 127.549 27.2923 127.226 27.2923V24.8872H132.108V27.2923H130.851C131.426 29.6974 132 32.0667 132.574 34.4718C132.682 34.2564 132.682 33.8974 132.79 33.682C133.364 30.8462 133.938 27.9744 134.621 25.2462C134.621 25.1385 134.728 25.0308 134.836 25.0308C135.733 25.0308 136.667 25.0308 137.564 25.0308C137.779 25.0308 137.779 25.1385 137.779 25.2462C138.462 28.1897 139.036 31.1692 139.718 34.1128C139.718 34.2205 139.718 34.2205 139.826 34.3282L141.405 27.2564H140.149V24.8513H145.031V27.2564C144.815 27.2564 144.456 27.2564 144.241 27.2564C144.133 27.2564 144.026 27.2564 144.026 27.4718C143.236 30.559 142.303 33.718 141.513 36.8051C141.405 37.0205 141.405 37.1641 141.154 37.1641C140.256 37.1641 139.323 37.1641 138.426 37.1641C138.21 37.1641 138.21 37.1641 138.067 36.9487C137.385 34.3282 136.81 31.7077 136.128 28.9795C136.2 28.9436 136.2 28.9436 136.092 28.8359ZM119.687 24.2769C118.897 26.682 118.215 28.9436 117.533 31.3487H121.733C121.051 28.9436 120.369 26.5744 119.687 24.2769ZM127.297 34.6513V37.2718H123.672C123.456 36.482 123.205 35.6923 122.99 34.8667C122.882 34.5077 122.774 34.1846 122.631 33.8256C122.631 33.7179 122.523 33.7179 122.415 33.7179C120.585 33.7179 118.79 33.7179 117.067 33.7179C116.851 33.7179 116.851 33.8256 116.851 33.9333C116.492 34.9744 116.277 35.9795 115.954 37.0205C115.954 37.1282 115.954 37.1282 115.846 37.2359H112.077V34.6154C112.436 34.6154 112.759 34.6154 113.118 34.6154C113.333 34.6154 113.333 34.6154 113.477 34.4C114.841 29.9487 116.313 25.641 117.677 21.1897C117.677 20.9744 117.785 20.9744 118.036 20.9744C119.185 20.9744 120.297 20.9744 121.554 20.9744C121.769 20.9744 121.769 21.0821 121.913 21.1897C123.385 25.5333 124.749 29.9487 126.256 34.2923C126.364 34.5077 126.364 34.5077 126.615 34.5077C126.615 34.6513 126.974 34.6513 127.297 34.6513ZM171.954 29.5179L177.195 29.6256C177.195 28.2615 176.154 27.2205 174.79 27.2205C173.426 27.1487 172.062 28.2615 171.954 29.5179ZM180.713 31.8154H171.954C172.062 32.9641 172.421 33.9692 173.318 34.6513C174.108 35.2256 175.041 35.3333 176.046 35.0103C176.728 34.7949 177.087 34.3282 177.41 33.6461C177.518 33.5385 177.518 33.4308 177.769 33.4308C178.667 33.4308 179.708 33.4308 180.605 33.3231C180.605 33.5385 180.497 33.682 180.497 33.7897C179.815 35.9436 178.344 37.2 176.046 37.559C174.682 37.7744 173.426 37.6667 172.169 36.9846C170.59 36.1949 169.549 34.8308 169.082 33C168.615 30.8462 168.867 28.8 170.231 26.9692C172.492 23.882 177.303 24.0256 179.564 27.0769C180.246 28.2615 180.821 30.4513 180.713 31.8154ZM19.1743 29.5179L24.4154 29.6256C24.5231 28.3692 23.5179 27.3641 22.1538 27.2205C20.7538 27.041 19.282 28.1538 19.1743 29.5179ZM27.7179 31.8154H18.959C18.959 32.0308 18.959 32.2821 19.0667 32.4974C19.1743 32.9641 19.282 33.3949 19.5333 33.8615C20.1077 34.9026 21.1128 35.2256 22.2615 35.1179C23.3026 35.0103 23.9846 34.4359 24.3077 33.5385C24.3077 33.4308 24.4154 33.4308 24.5231 33.4308C25.4205 33.4308 26.4615 33.3231 27.359 33.3231H27.4667C27.359 34.0051 27.1077 34.5795 26.7846 35.1538C25.8872 36.5179 24.6308 37.3077 23.0154 37.559C21.6513 37.7744 20.2872 37.6667 19.0308 36.9846C17.3077 36.0872 16.4102 34.5795 15.9436 32.7846C15.5846 30.9538 15.7282 29.159 16.7333 27.5436C18.7795 24.0256 24.0205 23.6667 26.4256 27.0769C27.3231 28.441 27.7897 30.0205 27.7897 31.7436C27.8256 31.7077 27.8256 31.7077 27.7179 31.8154ZM153.826 31.4564C153.036 31.5641 152.246 31.5641 151.564 31.8154C150.99 31.9231 150.523 32.0308 149.985 32.2821C149.303 32.4974 149.087 33.0718 149.087 33.7538C149.087 34.4359 149.554 34.9026 150.236 35.1179C151.277 35.4769 152.497 35.1179 153.323 34.3282C153.969 33.5026 153.969 32.4974 153.826 31.4564ZM153.826 29.4103C153.826 29.0513 153.718 28.6205 153.718 28.2615C153.61 27.5795 153.144 27.1128 152.462 27.0051C151.995 26.8974 151.421 26.8974 150.99 27.0051C150.2 27.2205 149.626 27.6872 149.626 28.5846C149.626 28.6923 149.626 28.8 149.626 28.9436L146.682 28.8359C146.682 28.2615 146.79 27.6872 147.149 27.2564C147.615 26.359 148.405 25.6769 149.303 25.318C151.133 24.6359 152.928 24.6359 154.759 25.4256C156.231 26 156.913 27.2564 157.021 28.7282C157.128 30.0923 157.021 31.4564 157.021 32.9282C157.021 33.6103 157.021 34.2923 157.021 35.082H158.062V37.4872H154.185V36.1231C154.077 36.2308 153.826 36.4821 153.718 36.5897C151.887 38.1692 148.836 38.0615 147.113 36.482C145.641 35.0103 145.641 32.0308 147.903 30.9179C148.944 30.3436 149.949 30.1282 151.097 30.0205C151.995 29.9128 152.928 29.8051 153.933 29.6615C153.718 29.4103 153.718 29.4103 153.826 29.4103ZM62.3231 27.1487C62.7897 26.682 63.1128 26.2513 63.5795 25.7846C64.6205 24.8872 65.7333 24.5282 67.0974 24.7436C68.1385 24.959 68.6769 25.5333 69.0359 26.4667C69.1436 26.682 69.1436 26.9333 69.2513 27.1487C69.359 27.041 69.4667 26.7897 69.6102 26.682C70.1846 25.7846 70.9743 24.959 72.1231 24.7436C73.1641 24.5282 74.1692 24.5282 74.959 25.2103C75.641 25.7846 75.8564 26.5744 76 27.3641C76 27.5795 76 27.9385 76 28.1538C76 30.559 76 32.9282 76 35.2256V35.5846H77.7231V37.0564H74.3128V36.6974C74.3128 33.8615 74.3128 31.1333 74.3128 28.2615C74.3128 27.9026 74.3128 27.6872 74.2051 27.3641C73.9897 26.2154 73.1641 25.641 71.9436 26C71.0461 26.2154 70.4718 26.7897 69.8974 27.5795C69.4308 28.2615 69.2154 29.0513 69.2154 29.841C69.2154 31.6718 69.2154 33.4667 69.2154 35.2974V35.6564H71.0461V37.1282H67.3128V36.7692C67.3128 33.9333 67.3128 31.0615 67.3128 28.2256C67.3128 27.8667 67.3128 27.5436 67.2051 27.1846C66.9897 26.5026 66.5231 26.1436 65.841 26.0359C64.8 25.9282 64.1179 26.3949 63.4359 27.0769C62.6461 27.9744 62.1795 28.9077 62.2872 30.1641C62.2872 31.8872 62.2872 33.5744 62.2872 35.4051V35.7641H64.1179V37.2359H58.9128V35.7641H60.6359V26.3231H58.9128V24.8513H62.5385C62.2154 25.641 62.2154 26.359 62.3231 27.1487ZM41.4667 30.6667H37.6974C37.6974 30.2 37.6974 29.6256 37.8051 29.1949H43.5128V37.1641H41.7179V34.6513C41.6102 34.759 41.6102 34.759 41.6102 34.8667C40.4615 36.5897 38.9897 37.4872 36.9436 37.5949C35.3641 37.5949 34.1077 37.0205 32.8513 36.0154C31.4872 34.759 30.6974 33.1795 30.3385 31.4564C29.8718 29.1949 30.1231 26.8974 31.0205 24.7436C31.7026 23.2718 32.7436 22.0154 34.2154 21.3333C36.6205 20.1846 39.5641 20.6513 41.2872 23.1641C41.2872 23.2718 41.3949 23.2718 41.5026 23.3795V20.8667H43.2256V26H41.359C41.2513 25.3179 40.8923 24.7436 40.5692 24.1692C39.6718 22.9128 38.4154 22.2308 36.9436 22.2308C35.5795 22.2308 34.4308 22.9128 33.641 23.9538C32.8513 24.8513 32.4923 26 32.2769 27.2564C32.0615 28.9795 32.1692 30.559 32.7436 32.1385C33.1026 33.0359 33.5333 33.8615 34.3231 34.5436C35.6872 35.8 37.4102 36.0154 38.9897 35.2256C40.5692 34.5436 41.6102 32.6051 41.4667 30.6667ZM89.7487 31.0256C89.7487 30.8103 89.7487 30.559 89.7487 30.2359C89.641 29.3385 89.3897 28.4051 88.959 27.6154C88.0615 26.359 86.5538 25.8923 85.1897 26.5744C83.9333 27.1487 82.6769 28.7282 82.9282 30.4513C83.0359 31.3487 82.9282 32.1744 83.1436 33.0718C83.359 34.5436 84.8667 35.8 86.3385 36.0154C87.5949 36.1231 88.7436 35.441 89.282 34.2923C89.5333 33.1795 89.7487 32.1385 89.7487 31.0256ZM80.9897 21.9077H79.4103V20.4359H82.8205V27.5077C82.9282 27.4 82.9282 27.2923 83.0359 27.2923C83.3949 26.718 83.9333 26.1436 84.5077 25.7128C86.0872 24.5641 88.0256 24.5641 89.641 25.9282C90.7897 26.8256 91.3641 28.0821 91.6872 29.4462C92.1538 31.4923 91.9026 33.4308 90.7897 35.2615C90.2154 36.159 89.4256 36.9846 88.3846 37.4154C86.8051 37.9897 84.9743 37.5231 83.8256 36.2667C83.6102 35.9077 83.2513 35.5846 82.9282 35.2256V37.3795H79.4103V35.9077H81.1333V21.9077H80.9897ZM53.6718 31.0256C53.5641 31.0256 53.4564 31.0256 53.4564 31.0256C52.4154 31.1333 51.4102 31.3846 50.2615 31.6C49.5795 31.7077 48.8974 31.959 48.3231 32.3897C47.9641 32.6051 47.641 32.9641 47.641 33.5385C47.4256 34.9026 48.4308 36.2667 49.9026 36.3744C51.482 36.482 53.2051 35.2256 53.5282 33.6461C53.6718 32.6051 53.5282 31.8154 53.6718 31.0256ZM55.2513 35.9077H56.9744C56.9744 36.3744 57.082 36.9487 57.082 37.3795H53.5641V35.2256C53.4564 35.3333 53.4564 35.3333 53.4564 35.3333C52.559 36.8051 51.1949 37.4872 49.4718 37.5949C48 37.7026 46.8513 37.1282 46.0615 35.8718C45.3795 34.7231 45.1641 33.6103 45.8461 32.3538C46.2051 31.5641 46.8872 31.2051 47.6769 30.8821C48.7179 30.4154 49.8308 30.2 50.9795 29.9846C51.7692 29.8769 52.7026 29.7692 53.6 29.6256C53.6 29.0513 53.6 28.3692 53.4923 27.7949C53.2769 26.8974 52.5949 26.4308 51.7692 26.2154C51.0872 26 50.2974 26.1077 49.6154 26.2154C48.7179 26.4308 48.1436 27.1128 47.8923 27.9385C47.7846 28.1538 47.7846 28.2974 47.4256 28.2974C46.8513 28.2974 46.3846 28.2974 45.8461 28.2974C46.2051 26.8256 46.8872 25.7846 48.2513 25.1026C49.8308 24.4205 51.4461 24.4205 53.0256 25.1026C54.282 25.6769 54.9641 26.682 55.1795 28.0461C55.1795 28.4051 55.1795 28.6205 55.1795 28.9436C55.1795 31.0974 55.1795 33.1436 55.1795 35.3333L55.2513 35.9077ZM101.344 30.0923H108.056C108.056 29.0513 107.697 28.2615 107.267 27.4718C106.585 26.5744 105.795 26.1077 104.646 26.3231C102.492 26.5744 101.487 28.1538 101.344 30.0923ZM110.138 31.4564H101.272C101.379 31.9231 101.379 32.2462 101.487 32.6051C101.595 33.2872 101.846 33.9692 102.277 34.6513C103.174 36.0154 105.221 36.4821 106.477 35.6923C107.051 35.3333 107.374 34.7949 107.733 34.2205C107.841 34.0051 107.949 33.8615 108.2 33.8615C108.774 33.8615 109.349 33.8615 109.923 33.8615C109.815 34.0769 109.815 34.3282 109.708 34.5436C108.918 36.3744 106.764 37.6308 104.682 37.3795C101.846 37.1641 99.9077 35.2256 99.441 32.3538C99.082 30.5231 99.3333 28.7282 100.338 27.1128C101.128 25.7487 102.385 24.8513 103.964 24.6C106.226 24.241 108.308 25.3897 109.313 27.4359C109.887 28.5846 110.103 29.841 110.103 31.2051C110.138 31.4564 110.138 31.4564 110.138 31.4564ZM163.733 34.8667H165.205V37.2718H159.497V34.8667H160.754V27.3641H159.497V24.959H163.697V26.7897C163.805 26.682 163.913 26.4308 163.913 26.3231C164.379 25.641 164.954 24.959 165.851 24.8513C166.533 24.6359 167.323 24.7436 168.005 24.8513L168.113 24.959C168.113 25.8564 168.113 26.7897 168.113 27.6872C167.754 27.6872 167.431 27.5795 167.072 27.5795C166.174 27.4718 165.241 27.6872 164.559 28.2615C163.985 28.7282 163.769 29.4103 163.662 30.0923C163.662 31.5641 163.662 33.0359 163.662 34.6513C163.626 34.759 163.626 34.759 163.733 34.8667ZM94.4154 21.8H92.6923V20.4359H96.2102V35.8H97.7897V37.2718H92.6923V35.8H94.4154V21.8ZM186.528 32.8205C186.528 33.5026 186.636 34.1846 186.887 34.8667C187.354 35.7641 188.036 36.3385 189.041 36.3385C190.046 36.3385 190.872 35.8718 191.303 34.9744C191.518 34.4 191.662 33.9333 191.769 33.2513C191.877 32.3538 191.769 31.4205 191.303 30.6308C190.836 29.7333 190.046 29.2667 189.041 29.2667C188.036 29.2667 187.462 29.841 186.995 30.6308C186.528 31.3487 186.528 32.0308 186.528 32.8205ZM193.097 32.6051C193.097 33.7538 192.882 34.759 192.308 35.5487C191.41 36.9128 190.154 37.3795 188.538 37.2718C187.067 37.1641 186.026 36.2308 185.451 34.8667C184.877 33.3949 184.769 31.7795 185.451 30.3077C186.133 28.8359 187.39 28.0461 189.077 28.0461C190.764 28.0461 191.913 28.8359 192.595 30.3077C192.99 31.1333 193.097 31.9231 193.097 32.6051ZM198.123 37.1641H194.138V36.1231H195.395V29.4103H194.138V28.3692H196.759V30.2C197.226 29.4103 197.8 28.6205 198.697 28.2615C199.164 28.1538 199.954 28.1538 200.421 28.2615V29.5179C200.205 29.5179 199.954 29.5179 199.738 29.4103C198.159 29.3026 196.795 30.4513 196.795 32.0308C196.795 33.2872 196.795 34.6513 196.795 35.9077V36.0154H198.267L198.123 37.1641ZM182.185 35.6923H183.656V37.1641H182.185V35.6923ZM210.4 14.2615V15.6256C210.867 15.6256 211.297 15.6256 211.764 15.6256C211.872 15.6256 211.979 15.6256 212.123 15.5179C212.482 15.4103 212.59 15.159 212.482 14.7282C212.482 14.3692 212.267 14.1538 211.908 14.1538C211.441 14.2615 210.974 14.2615 210.4 14.2615ZM212.338 15.9846C212.805 16.0923 212.913 16.4513 212.913 16.7744C212.913 17.0974 213.021 17.5641 213.021 17.9231C212.338 17.9231 212.446 18.0308 212.338 17.3487C212.338 17.1333 212.338 16.8821 212.231 16.6667C212.123 16.3077 212.015 16.0923 211.549 16.0923C211.082 16.0923 210.651 16.0923 210.185 16.0923V17.8154H209.61V13.7231C209.718 13.7231 209.826 13.7231 210.077 13.7231C210.651 13.7231 211.226 13.7231 211.8 13.7231C212.374 13.7231 212.697 14.0821 212.841 14.5128C213.164 15.1949 212.913 15.6256 212.338 15.9846Z" fill="white"/>
</svg>
