<svg width="95" height="52" viewBox="0 0 95 52" fill="none" xmlns="http://www.w3.org/2000/svg">
<g clip-path="url(#clip0_11766_18858)">
<path d="M89.1795 15.5243C89.1711 15.1945 89.2279 14.8664 89.3464 14.5593C89.4649 14.2522 89.6427 13.9723 89.8695 13.7361C90.0962 13.4998 90.3672 13.3121 90.6665 13.1839C90.9658 13.0557 91.2874 12.9897 91.6122 12.9897C91.9371 12.9897 92.2587 13.0557 92.558 13.1839C92.8573 13.3121 93.1283 13.4998 93.355 13.7361C93.5818 13.9723 93.7596 14.2522 93.8781 14.5593C93.9966 14.8664 94.0534 15.1945 94.045 15.5243C94.0534 15.854 93.9966 16.1821 93.8781 16.4892C93.7596 16.7964 93.5818 17.0763 93.355 17.3125C93.1283 17.5487 92.8573 17.7365 92.558 17.8647C92.2587 17.9928 91.9371 18.0589 91.6122 18.0589C91.2874 18.0589 90.9658 17.9928 90.6665 17.8647C90.3672 17.7365 90.0962 17.5487 89.8695 17.3125C89.6427 17.0763 89.4649 16.7964 89.3464 16.4892C89.2279 16.1821 89.1711 15.854 89.1795 15.5243ZM91.6122 18.5757C92.2014 18.5671 92.775 18.3821 93.261 18.0438C93.747 17.7055 94.1238 17.229 94.3441 16.6741C94.5643 16.1192 94.6183 15.5105 94.4992 14.9246C94.3802 14.3386 94.0933 13.8014 93.6746 13.3804C93.256 12.9593 92.7242 12.6732 92.146 12.5579C91.5678 12.4426 90.969 12.5033 90.4246 12.7323C89.8802 12.9613 89.4146 13.3484 89.0861 13.8451C88.7576 14.3418 88.5809 14.926 88.5781 15.5243C88.5767 15.9278 88.6544 16.3276 88.8068 16.7003C88.9591 17.073 89.1831 17.4112 89.4655 17.6951C89.7479 17.9789 90.0832 18.2029 90.4518 18.3538C90.8204 18.5047 91.2149 18.5796 91.6122 18.5741V18.5757ZM90.9827 15.7859H91.5841L92.5002 17.2973H93.0725L92.0993 15.7572C92.2207 15.7575 92.3408 15.7324 92.4523 15.6836C92.5637 15.6347 92.6641 15.5631 92.7472 15.4732C92.8302 15.3832 92.8942 15.2769 92.935 15.1609C92.9759 15.0448 92.9929 14.9214 92.9848 14.7984C92.9848 14.1012 92.5823 13.8102 91.7539 13.8102H90.4369V17.2956H90.9521V15.7842L90.9827 15.7859ZM90.9827 15.3207V14.2434H91.6984C92.0703 14.2434 92.4422 14.3309 92.4422 14.7665C92.4422 15.3191 92.0397 15.3477 91.6122 15.3477H90.9827V15.3207Z" fill="white"/>
<path d="M18.5644 25.201H36.055V38.8322H32.5628L31.2748 35.5192C28.5554 37.9314 23.5756 39.5008 18.1369 39.5008C11.3249 39.5008 7.97599 37.902 5.94332 36.6235C-0.182047 32.9321 -0.353516 28.5728 -0.353516 25.8696C-0.353516 19.6499 5.51425 12.6455 18.5088 12.6455C25.9504 12.6455 34.2228 15.3487 35.3675 21.0739H30.1566C28.4395 16.6271 22.6289 15.6969 18.2206 15.6969C11.0648 15.6969 5.1689 19.3589 5.1689 26.0437C5.1689 31.2172 7.83109 36.5647 18.4211 36.5647C21.2267 36.6594 24.0166 36.1028 26.5783 34.9372C30.0761 33.1626 30.9616 30.8975 30.9616 28.1657H18.5644V25.201Z" fill="white"/>
<path d="M49.7362 35.7806H69.9421V38.832H44.3555V13.314H49.7362V35.7806Z" fill="white"/>
<path d="M81.9948 38.832H76.6133V13.314H81.994L81.9948 38.832Z" fill="white"/>
</g>
<defs>
<clipPath id="clip0_11766_18858">
<rect width="95" height="52" fill="white"/>
</clipPath>
</defs>
</svg>
