<svg width="165" height="52" viewBox="0 0 165 52" fill="none" xmlns="http://www.w3.org/2000/svg">
<path d="M11.4841 39.7932L16.7427 25.3524L1.81156 30.4475C0.122264 31.0197 1.21213 29.6574 1.21213 29.6574L3.5281 26.742C4.61797 25.3524 6.41625 25.3524 6.41625 25.3524C6.41625 25.3524 4.61797 25.3524 3.5281 23.9628L1.21213 21.0474C1.21213 21.0474 0.122264 19.6578 1.81156 20.2573L16.7427 25.3524V35.3519C16.7427 35.3519 16.7427 37.0957 15.3259 38.1584L12.3288 40.3926C12.3288 40.3653 10.8847 41.428 11.4841 39.7932ZM16.7427 15.3529V25.3524L11.4841 10.9117C10.8847 9.27686 12.3015 10.3395 12.3015 10.3395L15.2987 12.5737C16.7427 13.6091 16.7427 15.3529 16.7427 15.3529Z" fill="white"/>
<path d="M87.4482 33.608H88.8378L89.519 31.7552H92.1347L92.8431 33.608H94.2872L91.3445 26.2241H90.2819L87.4482 33.608ZM89.9004 30.6926L90.4454 29.2485C90.6361 28.6763 90.7451 28.3494 90.8268 28.1041H90.8541C90.9086 28.3494 91.0176 28.6763 91.2355 29.2485L91.7532 30.7198H89.9004V30.6926ZM97.9655 33.7442C99.3278 33.7442 100.281 33.281 100.717 32.3274C100.908 31.9459 100.99 31.4555 100.99 30.8833V26.2786H99.6548V30.7743C99.6548 31.183 99.6003 31.51 99.464 31.7824C99.2188 32.3001 98.7011 32.5998 97.9655 32.5998C97.2298 32.5998 96.7121 32.3001 96.4669 31.7824C96.3307 31.51 96.2762 31.183 96.2762 30.8016V26.2786H94.9411V30.8833C94.9411 31.4282 95.0228 31.9187 95.2136 32.3001C95.6495 33.2538 96.6031 33.7442 97.9655 33.7442ZM104.15 33.608H105.486V27.3957H107.447L107.802 26.2514H101.998V27.3957H104.15V33.608ZM108.755 33.608H110.09V30.4201H113.605V33.608H114.967V26.2514H113.605V29.303H110.09V26.2786H108.755V33.608ZM120.117 33.7442C122.27 33.7442 123.823 32.2456 123.823 29.9842C123.823 27.7772 122.297 26.2241 120.117 26.2241C117.937 26.2241 116.411 27.7499 116.411 29.9842C116.411 32.2184 117.937 33.7442 120.117 33.7442ZM120.117 32.5998C118.755 32.5998 117.856 31.619 117.856 29.9569C117.856 28.2949 118.782 27.314 120.117 27.314C121.507 27.314 122.379 28.3221 122.379 29.9569C122.379 31.6462 121.452 32.5998 120.117 32.5998ZM125.239 33.608H126.574V30.7471H127.201C127.392 30.8016 127.637 31.1013 127.991 31.7552L129.054 33.608H130.58L129.354 31.4555C128.972 30.7743 128.672 30.3929 128.427 30.2566V30.2294C129.272 29.9569 129.871 29.303 129.871 28.3221C129.871 27.5865 129.572 26.9053 128.781 26.5238C128.4 26.3331 127.91 26.2241 127.201 26.2241H125.185V33.608H125.239ZM126.602 29.6572V27.3685H127.228C127.637 27.3685 127.882 27.4502 128.046 27.5865C128.373 27.7772 128.536 28.1314 128.536 28.5128C128.536 28.976 128.346 29.303 128.019 29.4937C127.801 29.6027 127.555 29.6844 127.201 29.6844H126.602V29.6572ZM131.697 33.608H133.032V26.2514H131.697V33.608ZM136.193 33.608H137.528V27.3957H139.489L139.871 26.2514H134.067V27.3957H136.22V33.608H136.193ZM142.895 33.608H144.258V30.7198L146.764 26.2786H145.32L143.604 29.521H143.576L141.86 26.2786H140.389L142.895 30.7198V33.608Z" fill="white"/>
<path d="M87.4476 24.0714H88.7826V19.9026C88.7826 19.6574 88.7826 19.2759 88.7826 18.9762H88.8099C88.9461 19.2487 89.1641 19.5212 89.3003 19.7391L90.9079 22.0551H91.5073L92.9514 19.7936C93.0876 19.6029 93.3601 19.167 93.4418 18.9762H93.4691C93.4418 19.2759 93.4418 19.6574 93.4418 19.9571V24.0986H94.8042V16.742H93.5781L91.807 19.4667C91.5618 19.8481 91.3711 20.1751 91.2076 20.4475H91.1804C91.0169 20.1478 90.8261 19.8754 90.5537 19.4939L88.6192 16.7147H87.3931V24.0714H87.4476ZM95.785 24.0714H97.1746L97.8558 22.2186H100.471L101.18 24.0714H102.624L99.6813 16.6875H98.6187L95.785 24.0714ZM98.2645 21.1287L98.8094 19.6846C99.0002 19.1125 99.1091 18.7855 99.1909 18.5403H99.2181C99.2726 18.7855 99.3816 19.1125 99.5723 19.6846L100.09 21.156H98.2645V21.1287ZM103.632 24.0714H107.583V22.927H104.967V16.7147H103.632V24.0714ZM109.299 24.0714H110.634V17.8591H112.596L112.978 16.7147H107.174V17.8591H109.327V24.0714H109.299ZM112.297 24.0714H113.686L114.367 22.2186H116.983L117.691 24.0714H119.135L116.193 16.6875H115.13L112.297 24.0714ZM114.776 21.1287L115.321 19.6846C115.512 19.1125 115.621 18.7855 115.702 18.5403H115.73C115.784 18.7855 115.893 19.1125 116.111 19.6846L116.629 21.156H114.776V21.1287ZM128.754 20.502H127.391V22.8453C127.092 22.9815 126.656 23.0632 126.165 23.0632C124.585 23.0632 123.658 22.0279 123.658 20.4475C123.658 18.8945 124.585 17.8046 126.356 17.8046C127.146 17.8046 127.8 17.9953 128.372 18.2951V17.0417C127.827 16.851 127.092 16.6875 126.247 16.6875C123.795 16.6875 122.214 18.3223 122.214 20.5565C122.214 22.6545 123.631 24.2076 126.056 24.2076C127.092 24.2076 128.072 23.9624 128.726 23.6082V20.502H128.754ZM129.625 24.0714H131.015L131.696 22.2186H134.312L135.02 24.0714H136.464L133.549 16.6875H132.459L129.625 24.0714ZM132.105 21.1287L132.65 19.6846C132.841 19.1125 132.95 18.7855 133.031 18.5403H133.059C133.113 18.7855 133.222 19.1125 133.44 19.6846L133.958 21.156H132.105V21.1287ZM137.472 24.0714H138.808V19.9026C138.808 19.6574 138.808 19.2759 138.808 18.9762H138.835C138.971 19.2487 139.189 19.5212 139.325 19.7391L140.933 22.0551H141.56L143.004 19.7936C143.14 19.6029 143.412 19.167 143.494 18.9762H143.521C143.494 19.2759 143.494 19.6574 143.494 19.9571V24.0986H144.856V16.742H143.63L141.859 19.4667C141.614 19.8481 141.423 20.1751 141.26 20.4475H141.233C141.069 20.1478 140.878 19.8754 140.633 19.4939L138.699 16.7147H137.472V24.0714ZM146.682 24.0714H148.017V16.7147H146.682V24.0714ZM156.382 24.0714V16.7147H155.019V20.6383C155.019 21.047 155.019 21.4829 155.047 21.8644H155.019C154.801 21.5102 154.529 21.156 154.202 20.72L151.123 16.6875H149.788V24.0441H151.123V19.8754C151.123 19.4394 151.123 19.0307 151.096 18.731H151.123C151.368 19.058 151.614 19.4394 151.94 19.8481L155.128 24.0441H156.382V24.0714ZM164.338 20.502H162.975V22.8453C162.676 22.9815 162.24 23.0632 161.749 23.0632C160.169 23.0632 159.243 22.0279 159.243 20.4475C159.243 18.8945 160.169 17.8046 161.94 17.8046C162.73 17.8046 163.384 17.9953 163.956 18.2951V17.0417C163.411 16.851 162.676 16.6875 161.831 16.6875C159.379 16.6875 157.799 18.3223 157.799 20.5565C157.799 22.6545 159.215 24.2076 161.64 24.2076C162.676 24.2076 163.657 23.9624 164.31 23.6082V20.502H164.338Z" fill="white"/>
<path d="M20.2852 33.6899H25.571V22.3281C26.5247 21.6197 27.7508 21.2382 28.7589 21.2382C30.7206 21.2382 30.9386 22.6278 30.9386 24.2626V33.6899H36.2245V22.6823V22.3281C37.1781 21.6197 38.377 21.2382 39.3851 21.2382C41.3469 21.2382 41.5921 22.5733 41.5921 24.1809V33.6899H46.9052V22.8185C46.9052 18.1866 44.0715 16.688 41.0199 16.688C39.3034 16.688 37.2054 17.4237 35.1891 19.0312C34.3172 17.5599 32.7641 16.688 30.6661 16.688C28.6771 16.688 26.7699 17.6416 25.2441 18.786L24.7536 17.0967H20.3124V33.6899H20.2852ZM56.3598 42.0002C62.681 42.0002 65.6509 39.3028 65.6509 36.3329C65.6509 30.1206 54.7522 32.8181 54.7522 30.0116C54.7522 29.8482 54.7522 29.6574 54.8885 29.276C55.3789 29.4122 56.0873 29.494 56.7685 29.494C61.019 29.494 63.9889 27.069 63.9889 23.2545C63.9889 21.8921 63.5802 20.5843 62.79 19.5762C63.0625 19.4672 63.5529 19.4399 63.7709 19.4399C64.1796 19.4399 64.7245 19.5217 65.1605 19.6034L66.1414 15.9523C65.8689 15.9251 65.2967 15.8706 64.9425 15.8706C62.5448 15.8706 61.4822 16.47 60.5285 17.3419C60.3923 17.4782 60.2833 17.5599 60.1198 17.4509C59.4114 17.0422 58.1853 16.688 56.6595 16.688C51.5371 16.688 49.4664 20.0121 49.4664 22.9275C49.4664 25.1072 50.4473 27.1235 52.3818 28.1589C51.0467 28.8945 50.1748 30.0389 50.1748 31.2105C50.1748 32.0551 50.5562 32.8453 51.2647 33.254C49.7661 33.7717 48.322 35.134 48.322 37.0685C48.322 39.8205 51.1284 42.0002 56.3598 42.0002ZM57.1227 38.4309C54.4798 38.4309 52.9812 37.4772 52.9812 36.1149C52.9812 35.3792 53.3627 34.8615 53.6896 34.5618C55.3789 35.4337 60.6648 34.9433 60.6648 36.9051C60.6648 37.9404 58.9755 38.4309 57.1227 38.4309ZM56.7412 25.6249C55.1609 25.6249 54.398 24.3716 54.398 23.091C54.398 21.3472 55.4062 20.5298 56.6867 20.5298C58.2943 20.5298 59.1117 21.8649 59.1117 23.1182C59.0845 24.7803 58.0763 25.6249 56.7412 25.6249ZM77.585 33.6899H81.9444C81.672 32.7908 81.672 31.4557 81.672 30.4203V22.982C81.672 18.9495 79.574 16.6608 74.4516 16.6608C71.8087 16.6608 69.5744 17.2874 67.6127 18.2683L69.2475 21.5924C70.4463 20.9657 72.0539 20.5843 73.4435 20.5843C75.2417 20.5843 76.3589 21.211 76.3589 22.764V22.9275L73.7159 23.0365C72.0266 23.1182 70.5281 23.4179 69.3292 24.0446C67.6127 24.9438 66.5501 26.3333 66.5501 28.5676C66.5501 31.7554 68.9478 33.9897 72.1901 33.9897C74.2609 33.9897 75.7049 33.2267 76.8221 32.2459L77.585 33.6899ZM76.3589 26.3061V29.385C75.9774 29.6302 75.1055 29.9844 73.9339 29.9844C72.6806 29.9844 71.8632 29.4122 71.8632 28.2679C71.8632 27.5594 72.1084 27.1507 72.5988 26.8238C73.062 26.5513 73.7159 26.4151 74.5606 26.3606L76.3589 26.3061Z" fill="white"/>
</svg>
